<?xml version="1.0" encoding="UTF-8" standalone="no"?>
<!-- Created with Inkscape (http://www.inkscape.org/) -->

<svg
   width="100"
   height="80"
   viewBox="0 0 26.458333 21.166666"
   version="1.1"
   id="angular"
   xml:space="preserve"
   inkscape:version="1.4 (86a8ad7, 2024-10-11)"
   sodipodi:docname="angular-after.svg"
   xmlns:inkscape="http://www.inkscape.org/namespaces/inkscape"
   xmlns:sodipodi="http://sodipodi.sourceforge.net/DTD/sodipodi-0.dtd"
   xmlns:xlink="http://www.w3.org/1999/xlink"
   xmlns="http://www.w3.org/2000/svg"
   xmlns:svg="http://www.w3.org/2000/svg"><sodipodi:namedview
     id="namedview7"
     pagecolor="#ffffff"
     bordercolor="#000000"
     borderopacity="0.25"
     inkscape:showpageshadow="2"
     inkscape:pageopacity="0.0"
     inkscape:pagecheckerboard="0"
     inkscape:deskcolor="#d1d1d1"
     inkscape:document-units="mm"
     showgrid="false"
     inkscape:zoom="8"
     inkscape:cx="33.3125"
     inkscape:cy="34.75"
     inkscape:window-width="1920"
     inkscape:window-height="1010"
     inkscape:window-x="-6"
     inkscape:window-y="-6"
     inkscape:window-maximized="1"
     inkscape:current-layer="g1" /><defs
     id="defs2" /><g
     inkscape:label="Слой 1"
     inkscape:groupmode="layer"
     id="layer1"><circle
       id="path562"
       style="fill:#000000;stroke:#000000;stroke-width:0.264583"
       cx="-429.3226"
       cy="80.52858"
       r="0.047444247" /><circle
       id="path564"
       style="fill:#000000;stroke:#000000;stroke-width:0.264583"
       cx="-375.22894"
       cy="95.704185"
       r="0.047444247" /><g
       style="fill:none"
       id="g1"
       transform="matrix(0.52852871,0,0,0.52852871,8.3859058,5.7490025)"><path
         style="fill:none;fill-opacity:1;stroke:#773200;stroke-width:1.50181056;stroke-dasharray:none;stroke-opacity:1"
         d="M -15.032144,-9.6244217 C 4.8114639,-1.3789048 2.0045869,2.9204496 9.9762384,9.8567453 13.182827,12.646863 19.127855,18.736533 19.127855,18.736533"
         id="path5"
         sodipodi:nodetypes="csc" /><path
         style="fill:#006217;fill-opacity:1;stroke:#000000;stroke-width:0.500603;stroke-dasharray:none;stroke-opacity:1"
         d="m 10.03106,9.6291631 c 10.782601,1.0873199 8.82469,2.0330739 11.960531,4.8023329 2.04832,1.808869 1.928383,3.230596 3.080743,5.708435 0.895735,1.926036 1.694174,4.000815 3.171353,5.527215 1.358145,1.403399 4.983554,3.080742 4.983554,3.080742 0,0 -11.550302,0.949304 -16.400424,-1.630981 C 12.982563,25.071747 9.5419237,21.28481 8.4906902,17.059189 7.8800622,14.604663 10.03106,9.6291631 10.03106,9.6291631 Z"
         id="path26"
         sodipodi:nodetypes="cssscsac" /><path
         style="fill:#006217;fill-opacity:1;stroke:#000000;stroke-width:0.500603;stroke-dasharray:none;stroke-opacity:1"
         d="m -4.7466119,-3.5513016 c 0.9979093,6.2957447 -1.172335,6.1601723 -0.7402503,9.2094171 0.3819683,2.6955653 1.0744414,5.6106065 2.8904684,7.6389095 0.9571432,1.069022 3.8339039,1.957441 3.8339039,1.957441 0,0 0.4484348,-4.634264 0.056354,-6.901022 C 0.72387201,5.0581133 -0.32324304,1.7306137 -2.1531023,-1.0686209 -2.8079232,-2.0703347 -4.7466119,-3.5513016 -4.7466119,-3.5513016 Z"
         id="path27"
         sodipodi:nodetypes="csscssc" /><path
         style="fill:#006217;fill-opacity:1;stroke:#000000;stroke-width:0.50060352;stroke-dasharray:none;stroke-opacity:1"
         d="m -8.5988261,-8.5371008 c 6.433315,-1.7215912 11.068374,0.853965 15.403712,3.896233 2.029726,1.424335 4.1680621,6.1614863 4.1680621,6.1614863 0,0 -3.6613361,-0.174132 -5.3459931,-0.81549091 C 0.34217189,-1.3068188 -8.5988261,-8.5371008 -8.5988261,-8.5371008 Z"
         id="path28"
         sodipodi:nodetypes="cscsc" /><text
         xml:space="preserve"
         style="font-weight:bold;font-size:6.00724px;font-family:Calibri;-inkscape-font-specification:'Calibri, Bold';text-align:start;writing-mode:lr-tb;direction:ltr;text-anchor:start;fill:#ffeeaa;fill-opacity:1;stroke:#ab4800;stroke-width:0;stroke-dasharray:none;stroke-opacity:1"
         id="text28"
         transform="translate(-31.037419,-2.7533197)"><textPath
           xlink:href="#path30"
           id="textPath30"><tspan
             id="tspan28"
             style="fill:#ffeeaa;fill-opacity:1;stroke-width:0;stroke:#ab4800;stroke-opacity:1">Angular</tspan></textPath></text><path
         style="fill:none;fill-opacity:1;stroke:#773200;stroke-width:0.500603;stroke-dasharray:none;stroke-opacity:1"
         d="m 42.453801,16.906125 c 1.188934,0.250302 5.506639,3.316499 5.506639,3.316499 l 4.38028,7.1336 5.256338,4.630583"
         id="path30"
         sodipodi:nodetypes="cccc" /></g></g></svg>
