<?xml version="1.0" encoding="UTF-8" standalone="no"?>
<!-- Created with Inkscape (http://www.inkscape.org/) -->

<svg
   width="770"
   height="770"
   viewBox="0 0 203.72916 203.72917"
   version="1.1"
   id="svg5"
   xml:space="preserve"
   inkscape:version="1.4 (86a8ad7, 2024-10-11)"
   sodipodi:docname="anti-cellulite.svg"
   xmlns:inkscape="http://www.inkscape.org/namespaces/inkscape"
   xmlns:sodipodi="http://sodipodi.sourceforge.net/DTD/sodipodi-0.dtd"
   xmlns="http://www.w3.org/2000/svg"
   xmlns:svg="http://www.w3.org/2000/svg"><sodipodi:namedview
     id="namedview7"
     pagecolor="#ffffff"
     bordercolor="#000000"
     borderopacity="0.25"
     inkscape:showpageshadow="2"
     inkscape:pageopacity="0.0"
     inkscape:pagecheckerboard="0"
     inkscape:deskcolor="#d1d1d1"
     inkscape:document-units="mm"
     showgrid="false"
     inkscape:zoom="0.5"
     inkscape:cx="809.00001"
     inkscape:cy="955.00001"
     inkscape:window-width="2560"
     inkscape:window-height="1494"
     inkscape:window-x="-11"
     inkscape:window-y="-11"
     inkscape:window-maximized="1"
     inkscape:current-layer="layer1" /><defs
     id="defs2"><clipPath
       id="clip0_2002_448"><rect
         width="93"
         height="94"
         fill="white"
         transform="translate(0 0.5)"
         id="rect18" /></clipPath></defs><g
     inkscape:label="Слой 1"
     inkscape:groupmode="layer"
     id="layer1"><path
       id="path16724"
       style="fill:#000000;fill-opacity:1;stroke:#000000;stroke-width:0;stroke-linecap:round;paint-order:fill markers stroke"
       d="M 101.81704 1.2464355 C 46.28941 1.2464315 1.2753693 46.260486 1.2753743 101.7881 C 1.2753743 157.31573 46.289413 202.32977 101.81704 202.32977 C 157.34467 202.32978 202.35871 157.31573 202.35871 101.7881 C 202.35871 46.260484 157.34467 1.2464295 101.81704 1.2464355 z M 120.98331 71.768229 C 120.99546 71.768611 121.00532 71.775421 121.01742 71.775981 C 134.04132 71.927851 142.10966 84.461043 142.12001 96.060803 L 142.12001 96.061837 L 142.12001 96.064421 C 142.12001 96.072257 142.11742 96.328919 142.11742 96.336755 C 141.95391 112.1272 129.83367 120.957 118.10752 129.49339 C 112.79722 133.36056 107.78012 137.0123 104.03758 141.1857 C 104.02092 141.2042 103.99676 141.20964 103.9797 141.22756 C 103.93194 141.278 103.89269 141.33376 103.84017 141.38103 C 103.63942 141.56287 103.41495 141.69736 103.18182 141.80478 C 103.15836 141.81554 103.13732 141.82834 103.1136 141.83837 C 102.79081 141.97568 102.44939 142.05076 102.10643 142.05076 C 101.82333 142.05076 101.54467 141.99187 101.27496 141.90038 C 101.23389 141.88654 101.19349 141.87759 101.153 141.86163 C 100.90025 141.76162 100.66519 141.61578 100.44865 141.43426 C 100.42518 141.41467 100.39564 141.40883 100.37268 141.38827 C 100.3513 141.36907 100.34367 141.34186 100.32308 141.32212 C 100.27479 141.27605 100.2207 141.23978 100.17528 141.18931 C 96.437862 137.03144 91.434049 133.38735 86.136861 129.52801 C 74.942689 121.3732 62.25365 112.13349 62.092851 96.335205 C 62.092316 96.276251 62.105532 96.219479 62.10887 96.161056 C 62.107422 96.123869 62.087545 96.092689 62.087683 96.055119 C 62.129126 84.396572 70.28658 71.798834 83.388192 71.77288 L 83.393359 71.77288 C 83.422283 71.77288 83.450445 71.776075 83.479142 71.777014 C 83.48553 71.777344 83.49083 71.774053 83.497229 71.77443 C 83.53082 71.775729 83.563901 71.781282 83.597481 71.782699 C 83.628048 71.785082 83.658686 71.787016 83.688949 71.79045 C 90.506739 72.100042 97.077288 74.830259 102.11211 79.395671 C 107.14213 74.839105 113.69801 72.105703 120.50479 71.792517 C 120.54205 71.78809 120.57971 71.785533 120.61744 71.782699 C 120.6495 71.781351 120.68098 71.775154 120.71305 71.773914 C 120.80421 71.766938 120.89451 71.765437 120.98331 71.768229 z M 83.352535 76.964811 C 73.476858 77.01638 67.329242 86.889849 67.281165 96.041166 C 67.2815 96.078233 67.283748 96.278282 67.283748 96.283012 C 67.418627 109.47294 77.995389 117.17604 89.191972 125.33085 C 93.697985 128.61249 98.326443 131.99418 102.13743 135.74727 C 105.95293 131.98527 110.54041 128.58224 115.05241 125.29933 C 126.23347 117.15748 136.7915 109.46988 136.92653 96.285079 C 136.92708 96.234066 136.93961 96.185256 136.94306 96.134701 C 136.94234 96.11031 136.92915 96.090009 136.92911 96.065454 C 136.91873 86.872414 130.46198 77.016006 120.85722 76.964811 C 114.48289 77.228556 108.36101 80.068628 104.04636 84.77157 C 104.04604 84.771935 104.04565 84.772239 104.04533 84.772603 C 103.98687 84.838073 103.92444 84.901234 103.85826 84.961739 C 103.64095 85.15878 103.39898 85.309859 103.14461 85.421143 C 103.13651 85.424683 103.12896 85.428023 103.12084 85.431478 C 102.79575 85.569848 102.45065 85.641284 102.10643 85.641284 L 102.10436 85.641284 L 102.10281 85.641284 C 101.79589 85.640861 101.49032 85.58366 101.20002 85.47592 C 101.18897 85.471808 101.17848 85.467786 101.16747 85.463517 C 100.87611 85.350887 100.60188 85.18558 100.36028 84.96484 C 100.35855 84.963262 100.35632 84.962805 100.3546 84.961222 C 100.35232 84.959135 100.3517 84.956081 100.34943 84.953988 C 100.29536 84.903997 100.24134 84.853349 100.19078 84.797925 C 95.874677 80.080819 89.739623 77.228974 83.352535 76.964811 z " /><circle
       id="path564"
       style="fill:#000000;stroke:#000000;stroke-width:0.264583"
       cx="-375.22894"
       cy="95.704185"
       r="0.047444247" /><g
       style="fill:none"
       id="g1"
       transform="matrix(1.5070237,0,0,1.5070237,32.520095,71.013238)"><g
         clip-path="url(#clip0_2002_448)"
         id="g18" /></g></g></svg>
