<?xml version="1.0" encoding="UTF-8" standalone="no"?>
<!-- Created with Inkscape (http://www.inkscape.org/) -->

<svg
   version="1.1"
   id="svg8080"
   width="512"
   height="512"
   viewBox="0 0 512 512"
   sodipodi:docname="Calculator.svg"
   inkscape:version="1.2.2 (732a01da63, 2022-12-09)"
   xmlns:inkscape="http://www.inkscape.org/namespaces/inkscape"
   xmlns:sodipodi="http://sodipodi.sourceforge.net/DTD/sodipodi-0.dtd"
   xmlns="http://www.w3.org/2000/svg"
   xmlns:svg="http://www.w3.org/2000/svg">
  <defs
     id="defs8084" />
  <sodipodi:namedview
     id="namedview8082"
     pagecolor="#ffffff"
     bordercolor="#000000"
     borderopacity="0.25"
     inkscape:showpageshadow="2"
     inkscape:pageopacity="0.0"
     inkscape:pagecheckerboard="0"
     inkscape:deskcolor="#d1d1d1"
     showgrid="false"
     inkscape:zoom="1.6757812"
     inkscape:cx="240.78322"
     inkscape:cy="256"
     inkscape:window-width="3360"
     inkscape:window-height="1850"
     inkscape:window-x="3348"
     inkscape:window-y="-12"
     inkscape:window-maximized="1"
     inkscape:current-layer="g8086" />
  <g
     inkscape:groupmode="layer"
     inkscape:label="Image"
     id="g8086">
    <path
       id="path8266"
       style="fill:#000000;stroke-width:2.55153;stroke-linecap:round;paint-order:fill markers stroke"
       d="M 256.32227 1.1601562 A 256 256 0 0 0 0.32226562 257.16016 A 256 256 0 0 0 256.32227 513.16016 A 256 256 0 0 0 512.32227 257.16016 A 256 256 0 0 0 256.32227 1.1601562 z M 162.88672 168.19727 C 187.43385 168.19727 206.88638 173.60472 221.24414 184.41797 C 235.6019 195.23122 248.5696 210.20285 260.14844 229.33398 C 271.72727 210.20285 284.69693 195.23122 299.05469 184.41797 C 313.8756 173.60472 333.32813 168.19727 357.41211 168.19727 C 388.44339 168.19727 412.52738 177.34714 429.66406 195.64648 C 447.26389 213.94583 456.0625 235.98799 456.0625 261.77344 C 456.0625 287.97478 447.26389 310.22604 429.66406 328.52539 C 412.52738 346.40884 388.44339 355.34961 357.41211 355.34961 C 332.86497 355.34961 313.41245 349.94411 299.05469 339.13086 C 284.69693 328.31761 271.72727 313.34403 260.14844 294.21289 C 248.5696 313.34403 235.36974 328.31761 220.54883 339.13086 C 206.19107 349.94411 186.9707 355.34961 162.88672 355.34961 C 131.85544 355.34961 107.53929 346.19974 89.939453 327.90039 C 72.802774 309.60104 64.234375 287.55888 64.234375 261.77344 C 64.234375 235.5721 72.802774 213.52994 89.939453 195.64648 C 107.53929 177.34714 131.85544 168.19727 162.88672 168.19727 z M 162.88672 211.86719 C 146.67635 211.86719 134.40317 216.23302 126.06641 224.9668 C 118.1928 233.70058 114.25586 245.96946 114.25586 261.77344 C 114.25586 277.57742 118.1928 289.8463 126.06641 298.58008 C 134.40317 307.31386 146.67635 311.68164 162.88672 311.68164 C 178.63394 311.68164 191.8338 307.73012 202.48633 299.82812 C 213.13886 291.51024 224.48731 278.8251 236.5293 261.77344 C 224.48731 244.72177 213.13886 232.24574 202.48633 224.34375 C 191.8338 216.02586 178.63394 211.86719 162.88672 211.86719 z M 357.41211 211.86719 C 342.12804 211.86719 328.92818 216.02586 317.8125 224.34375 C 306.69682 232.24574 295.34837 244.72177 283.76953 261.77344 C 295.81152 278.8251 307.15997 291.51024 317.8125 299.82812 C 328.46503 307.73012 341.66489 311.68164 357.41211 311.68164 C 389.83285 311.68164 406.04297 295.04498 406.04297 261.77344 C 406.04297 246.38535 401.87387 234.32558 393.53711 225.5918 C 385.6635 216.44212 373.62248 211.86719 357.41211 211.86719 z " />
  </g>
</svg>
