<?xml version="1.0" encoding="UTF-8" standalone="no"?>
<!-- Created with Inkscape (http://www.inkscape.org/) -->

<svg
   width="770"
   height="770"
   viewBox="0 0 203.72916 203.72917"
   version="1.1"
   id="svg5"
   xml:space="preserve"
   inkscape:version="1.4 (86a8ad7, 2024-10-11)"
   sodipodi:docname="chatbots.svg"
   xmlns:inkscape="http://www.inkscape.org/namespaces/inkscape"
   xmlns:sodipodi="http://sodipodi.sourceforge.net/DTD/sodipodi-0.dtd"
   xmlns="http://www.w3.org/2000/svg"
   xmlns:svg="http://www.w3.org/2000/svg"><sodipodi:namedview
     id="namedview7"
     pagecolor="#ffffff"
     bordercolor="#000000"
     borderopacity="0.25"
     inkscape:showpageshadow="2"
     inkscape:pageopacity="0.0"
     inkscape:pagecheckerboard="0"
     inkscape:deskcolor="#d1d1d1"
     inkscape:document-units="mm"
     showgrid="false"
     inkscape:zoom="1"
     inkscape:cx="473"
     inkscape:cy="394.5"
     inkscape:window-width="2560"
     inkscape:window-height="1494"
     inkscape:window-x="-11"
     inkscape:window-y="-11"
     inkscape:window-maximized="1"
     inkscape:current-layer="layer1" /><defs
     id="defs2"><inkscape:path-effect
       effect="fillet_chamfer"
       id="path-effect2"
       is_visible="true"
       lpeversion="1"
       nodesatellites_param="F,0,0,1,0,16.880278,0,1 @ F,0,0,1,0,10.407575,0,1 @ F,0,0,1,0,2.5947053,0,1 @ F,0,1,1,0,8.3319876,0,1 @ F,0,0,1,0,10.525442,0,1 @ F,0,0,1,0,8.3319876,0,1 @ F,0,0,1,0,12.371464,0,1 @ F,0,0,1,0,10.946398,0,1"
       radius="0"
       unit="px"
       method="auto"
       mode="F"
       chamfer_steps="1"
       flexible="false"
       use_knot_distance="true"
       apply_no_radius="true"
       apply_with_radius="true"
       only_selected="false"
       hide_knots="false" /><clipPath
       id="clip0_2002_448"><rect
         width="93"
         height="94"
         fill="white"
         transform="translate(0 0.5)"
         id="rect18" /></clipPath><inkscape:path-effect
       effect="fillet_chamfer"
       id="path-effect2-7"
       is_visible="true"
       lpeversion="1"
       nodesatellites_param="F,0,0,1,0,16.880278,0,1 @ F,0,0,1,0,10.407575,0,1 @ F,0,0,1,0,2.5947053,0,1 @ F,0,0,1,0,9.4304122,0,1 @ F,0,0,1,0,9.4852091,0,1 @ F,0,0,1,0,9.0699861,0,1 @ F,0,0,1,0,12.371464,0,1 @ F,0,0,1,0,10.946398,0,1"
       radius="0"
       unit="px"
       method="auto"
       mode="F"
       chamfer_steps="1"
       flexible="false"
       use_knot_distance="true"
       apply_no_radius="true"
       apply_with_radius="true"
       only_selected="false"
       hide_knots="false" /><inkscape:path-effect
       effect="fillet_chamfer"
       id="path-effect2-7-5"
       is_visible="true"
       lpeversion="1"
       nodesatellites_param="F,0,0,1,0,16.880278,0,1 @ F,0,0,1,0,10.407575,0,1 @ F,0,0,1,0,2.5947053,0,1 @ F,0,0,1,0,9.4304122,0,1 @ F,0,0,1,0,9.4852091,0,1 @ F,0,0,1,0,9.0699861,0,1 @ F,0,0,1,0,12.371464,0,1 @ F,0,0,1,0,10.946398,0,1"
       radius="0"
       unit="px"
       method="auto"
       mode="F"
       chamfer_steps="1"
       flexible="false"
       use_knot_distance="true"
       apply_no_radius="true"
       apply_with_radius="true"
       only_selected="false"
       hide_knots="false" /><inkscape:path-effect
       effect="fillet_chamfer"
       id="path-effect2-7-5-7"
       is_visible="true"
       lpeversion="1"
       nodesatellites_param="F,0,0,1,0,16.880278,0,1 @ F,0,0,1,0,10.407575,0,1 @ F,0,0,1,0,2.5947053,0,1 @ F,0,0,1,0,9.4304122,0,1 @ F,0,0,1,0,9.4852091,0,1 @ F,0,0,1,0,9.0699861,0,1 @ F,0,0,1,0,12.371464,0,1 @ F,0,0,1,0,10.946398,0,1"
       radius="0"
       unit="px"
       method="auto"
       mode="F"
       chamfer_steps="1"
       flexible="false"
       use_knot_distance="true"
       apply_no_radius="true"
       apply_with_radius="true"
       only_selected="false"
       hide_knots="false" /><inkscape:path-effect
       effect="fillet_chamfer"
       id="path-effect2-7-5-1"
       is_visible="true"
       lpeversion="1"
       nodesatellites_param="F,0,0,1,0,16.880278,0,1 @ F,0,0,1,0,10.407575,0,1 @ F,0,0,1,0,2.5947053,0,1 @ F,0,0,1,0,9.4304122,0,1 @ F,0,0,1,0,9.4852091,0,1 @ F,0,0,1,0,9.0699861,0,1 @ F,0,0,1,0,12.371464,0,1 @ F,0,0,1,0,10.946398,0,1"
       radius="0"
       unit="px"
       method="auto"
       mode="F"
       chamfer_steps="1"
       flexible="false"
       use_knot_distance="true"
       apply_no_radius="true"
       apply_with_radius="true"
       only_selected="false"
       hide_knots="false" /><inkscape:path-effect
       effect="fillet_chamfer"
       id="path-effect2-7-5-1-2"
       is_visible="true"
       lpeversion="1"
       nodesatellites_param="F,0,0,1,0,16.880278,0,1 @ F,0,0,1,0,10.407575,0,1 @ F,0,0,1,0,2.5947053,0,1 @ F,0,0,1,0,9.4304122,0,1 @ F,0,0,1,0,9.4852091,0,1 @ F,0,0,1,0,9.0699861,0,1 @ F,0,0,1,0,12.371464,0,1 @ F,0,0,1,0,10.946398,0,1"
       radius="0"
       unit="px"
       method="auto"
       mode="F"
       chamfer_steps="1"
       flexible="false"
       use_knot_distance="true"
       apply_no_radius="true"
       apply_with_radius="true"
       only_selected="false"
       hide_knots="false" /><inkscape:path-effect
       effect="fillet_chamfer"
       id="path-effect2-7-5-1-22"
       is_visible="true"
       lpeversion="1"
       nodesatellites_param="F,0,0,1,0,17.294241,0,1 @ F,0,0,1,0,10.407575,0,1 @ F,0,0,1,0,2.5947053,0,1 @ F,0,0,1,0,9.4304122,0,1 @ F,0,0,1,0,9.4852091,0,1 @ F,0,0,1,0,9.0699861,0,1 @ F,0,0,1,0,12.371464,0,1 @ F,0,0,1,0,10.946398,0,1 @ F,0,0,1,0,0,0,1 @ F,0,0,1,0,0,0,1"
       radius="0"
       unit="px"
       method="auto"
       mode="F"
       chamfer_steps="1"
       flexible="false"
       use_knot_distance="true"
       apply_no_radius="true"
       apply_with_radius="true"
       only_selected="false"
       hide_knots="false" /></defs><g
     inkscape:label="Слой 1"
     inkscape:groupmode="layer"
     id="layer1"><path
       id="path16724"
       style="fill:#000000;fill-opacity:1;stroke:#000000;stroke-width:0;stroke-linecap:round;stroke-linejoin:round;paint-order:fill markers stroke"
       d="M 101.81724,1.2465172 C 46.289604,1.2465132 1.2755638,46.260554 1.2755688,101.78818 c 0,55.52763 45.0140382,100.54166 100.5416712,100.54166 55.52763,1e-5 100.54167,-45.01403 100.54167,-100.54166 0,-55.527628 -45.01404,-100.5416688 -100.54167,-100.5416628 z"
       sodipodi:nodetypes="sssss" /><circle
       id="path564"
       style="fill:#000000;stroke:#000000;stroke-width:0.264583"
       cx="-375.22894"
       cy="95.704185"
       r="0.047444247" /><rect
       style="fill:#7a7a7a;fill-opacity:1;stroke:#000000;stroke-width:1.32291667;stroke-linecap:round;stroke-linejoin:round;stroke-dasharray:none;stroke-opacity:1"
       id="rect2"
       width="4.7624998"
       height="41.010418"
       x="143.13959"
       y="56.356247" /><path
       style="fill:#7a7a7a;fill-opacity:1;stroke:#000000;stroke-width:6.17393077;stroke-linecap:round;stroke-linejoin:round;stroke-opacity:1;stroke-dasharray:none"
       d="m 72.838213,99.427058 -0.175429,-5.173617 a 20.698036,20.698036 114.75252 0 1 7.786366,-16.887983 11.97625,11.97625 153.80365 0 1 3.357223,-1.651692 52.743924,52.743924 169.58048 0 1 16.944957,-3.11595 l 0.50163,-0.01558 a 35.520546,35.520546 13.171884 0 1 17.84601,4.176504 21.223522,21.223522 52.363266 0 1 7.19435,9.329681 23.319928,23.319928 88.613795 0 1 0.50881,21.026281 16.419994,16.419994 147.80264 0 1 -15.27625,9.61899 L 90.289441,116.49074 A 17.663434,17.663434 44.35669 0 1 72.838213,99.427058 Z"
       id="path1-1-2"
       sodipodi:nodetypes="ccccccccc"
       inkscape:path-effect="#path-effect2-7-5"
       inkscape:original-d="m 73.410268,116.29764 -1.100186,-32.445796 9.067164,-7.226027 9.948221,-3.735206 19.408133,-0.602874 11.07303,5.918154 10.01984,17.603544 -9.35491,21.049475 z"
       transform="matrix(-0.01098921,-0.83641362,0.49387957,-0.01227698,9.9970897,203.68915)" /><path
       style="fill:#7a7a7a;fill-opacity:1;stroke:#000000;stroke-width:6.17393079;stroke-linecap:round;stroke-linejoin:round;stroke-dasharray:none;stroke-opacity:1"
       d="m 72.838213,99.427058 -0.175429,-5.173617 a 20.698036,20.698036 114.75252 0 1 7.786366,-16.887983 11.97625,11.97625 153.80365 0 1 3.357223,-1.651692 52.743924,52.743924 169.58048 0 1 16.944957,-3.11595 l 0.50163,-0.01558 a 35.520546,35.520546 13.171884 0 1 17.84601,4.176504 21.223522,21.223522 52.363266 0 1 7.19435,9.329681 23.319928,23.319928 88.613795 0 1 0.50881,21.026281 16.419994,16.419994 147.80264 0 1 -15.27625,9.61899 L 90.289441,116.49074 A 17.663434,17.663434 44.35669 0 1 72.838213,99.427058 Z"
       id="path1-1-2-6"
       sodipodi:nodetypes="ccccccccc"
       inkscape:path-effect="#path-effect2-7-5-7"
       inkscape:original-d="m 73.410268,116.29764 -1.100186,-32.445796 9.067164,-7.226027 9.948221,-3.735206 19.408133,-0.602874 11.07303,5.918154 10.01984,17.603544 -9.35491,21.049475 z"
       transform="matrix(0.00695574,0.83645688,-0.49393303,0.00989526,189.56548,31.785873)" /><path
       style="fill:#ffffff;stroke:#000000;stroke-width:2.38504;stroke-linecap:round;stroke-linejoin:round;stroke-dasharray:none;stroke-opacity:1"
       d="m 72.838213,99.427058 -0.175429,-5.173617 a 20.698036,20.698036 114.75252 0 1 7.786366,-16.887983 17.125756,17.125756 150.10836 0 1 3.26135,-1.874727 42.233197,42.233197 165.2325 0 1 15.286747,-4.029657 33.397628,33.397628 13.241087 0 1 18.230083,4.289621 23.522252,23.522252 48.097089 0 1 8.70092,9.696346 24.043769,24.043769 87.690465 0 1 0.87388,21.667659 16.419994,16.419994 147.80264 0 1 -15.27625,9.61899 L 90.289441,116.49074 A 17.663434,17.663434 44.35669 0 1 72.838213,99.427058 Z"
       id="path1"
       sodipodi:nodetypes="ccccccccc"
       inkscape:path-effect="#path-effect2"
       inkscape:original-d="m 73.410268,116.29764 -1.100186,-32.445796 9.067164,-7.226027 9.31221,-4.53022 17.261594,-1.318387 13.85558,7.428681 10.01984,17.603544 -9.35491,21.049475 z"
       transform="matrix(1.6640162,0,0,1.6640162,-67.437974,-41.080396)" /><path
       style="fill:#7a7a7a;fill-opacity:1;stroke:#000000;stroke-width:3.77810712;stroke-linecap:round;stroke-linejoin:round;stroke-opacity:1;stroke-dasharray:none"
       d="m 72.838213,99.427058 -0.175429,-5.173617 a 20.698036,20.698036 114.75252 0 1 7.786366,-16.887983 11.97625,11.97625 153.80365 0 1 3.357223,-1.651692 52.743924,52.743924 169.58048 0 1 16.944957,-3.11595 l 0.50163,-0.01558 a 35.520546,35.520546 13.171884 0 1 17.84601,4.176504 21.223522,21.223522 52.363266 0 1 7.19435,9.329681 23.319928,23.319928 88.613795 0 1 0.50881,21.026281 16.419994,16.419994 147.80264 0 1 -15.27625,9.61899 L 90.289441,116.49074 A 17.663434,17.663434 44.35669 0 1 72.838213,99.427058 Z"
       id="path1-1"
       sodipodi:nodetypes="ccccccccc"
       inkscape:path-effect="#path-effect2-7"
       inkscape:original-d="m 73.410268,116.29764 -1.100186,-32.445796 9.067164,-7.226027 9.948221,-3.735206 19.408133,-0.602874 11.07303,5.918154 10.01984,17.603544 -9.35491,21.049475 z"
       transform="matrix(1.1655966,0,0,0.9466963,-17.610907,32.530368)" /><ellipse
       style="fill:#7a7a7a;fill-opacity:1;stroke:#000000;stroke-width:3.96875;stroke-linecap:round;stroke-linejoin:round;stroke-opacity:1;stroke-dasharray:none"
       id="path2"
       cx="145.78542"
       cy="55.430206"
       rx="8.2020836"
       ry="8.8635416" /><path
       style="fill:#000000;fill-opacity:1;stroke:#000000;stroke-width:6.17393;stroke-linecap:round;stroke-linejoin:round;stroke-dasharray:none;stroke-opacity:1"
       d="m 72.838213,99.427058 -0.175429,-5.173617 a 20.698036,20.698036 114.75252 0 1 7.786366,-16.887983 11.97625,11.97625 153.80365 0 1 3.357223,-1.651692 52.743924,52.743924 169.58048 0 1 16.944957,-3.11595 l 0.50163,-0.01558 a 35.520546,35.520546 13.171884 0 1 17.84601,4.176504 21.223522,21.223522 52.363266 0 1 7.19435,9.329681 23.319928,23.319928 88.613795 0 1 0.50881,21.026281 16.419994,16.419994 147.80264 0 1 -15.27625,9.61899 L 90.289441,116.49074 A 17.663434,17.663434 44.35669 0 1 72.838213,99.427058 Z"
       id="path1-1-2-4"
       sodipodi:nodetypes="ccccccccc"
       inkscape:path-effect="#path-effect2-7-5-1"
       inkscape:original-d="m 73.410268,116.29764 -1.100186,-32.445796 9.067164,-7.226027 9.948221,-3.735206 19.408133,-0.602874 11.07303,5.918154 10.01984,17.603544 -9.35491,21.049475 z"
       transform="matrix(-0.00430263,-0.17572228,0.19336981,-0.00257927,61.648897,142.45723)" /><path
       style="fill:#000000;fill-opacity:1;stroke:#000000;stroke-width:6.17393;stroke-linecap:round;stroke-linejoin:round;stroke-dasharray:none;stroke-opacity:1"
       d="m 71.332269,100.78032 0.377657,-6.53822 a 23.298446,23.298446 117.37646 0 1 8.739224,-16.876642 11.97625,11.97625 153.80365 0 1 3.357223,-1.651692 52.743924,52.743924 169.58048 0 1 16.944957,-3.11595 l 0.50163,-0.01558 a 35.520546,35.520546 13.171884 0 1 17.84601,4.176504 21.223522,21.223522 52.363266 0 1 7.19435,9.329681 23.319928,23.319928 88.613795 0 1 0.50881,21.026281 8.0931509,8.0931509 168.1339 0 1 -12.67891,2.66404 L 99.58768,97.451233 86.169478,111.09166 A 10.594661,10.594661 34.797953 0 1 71.332269,100.78032 Z"
       id="path1-1-2-4-1"
       sodipodi:nodetypes="ccccccccccc"
       inkscape:path-effect="#path-effect2-7-5-1-22"
       inkscape:original-d="m 70.334991,118.04578 1.975091,-34.193936 9.067164,-7.226027 9.948221,-3.735206 19.408133,-0.602874 11.07303,5.918154 10.01984,17.603544 -9.35491,21.049475 L 99.58768,97.451233 86.169478,111.09166 Z"
       transform="matrix(-0.31649108,0.00805219,-0.02644758,-0.10179991,132.49718,136.33164)" /><path
       style="fill:#000000;fill-opacity:1;stroke:#000000;stroke-width:6.17393;stroke-linecap:round;stroke-linejoin:round;stroke-dasharray:none;stroke-opacity:1"
       d="m 72.838213,99.427058 -0.175429,-5.173617 a 20.698036,20.698036 114.75252 0 1 7.786366,-16.887983 11.97625,11.97625 153.80365 0 1 3.357223,-1.651692 52.743924,52.743924 169.58048 0 1 16.944957,-3.11595 l 0.50163,-0.01558 a 35.520546,35.520546 13.171884 0 1 17.84601,4.176504 21.223522,21.223522 52.363266 0 1 7.19435,9.329681 23.319928,23.319928 88.613795 0 1 0.50881,21.026281 16.419994,16.419994 147.80264 0 1 -15.27625,9.61899 L 90.289441,116.49074 A 17.663434,17.663434 44.35669 0 1 72.838213,99.427058 Z"
       id="path1-1-2-4-3"
       sodipodi:nodetypes="ccccccccc"
       inkscape:path-effect="#path-effect2-7-5-1-2"
       inkscape:original-d="m 73.410268,116.29764 -1.100186,-32.445796 9.067164,-7.226027 9.948221,-3.735206 19.408133,-0.602874 11.07303,5.918154 10.01984,17.603544 -9.35491,21.049475 z"
       transform="matrix(0.02179406,0.17441861,-0.19215003,0.02183807,133.3028,104.64227)" /></g></svg>
