<?xml version="1.0" encoding="UTF-8" standalone="no"?>
<!-- Created with Inkscape (http://www.inkscape.org/) -->

<svg
   width="200"
   height="200"
   viewBox="0 0 52.916665 52.916668"
   version="1.1"
   id="svg5"
   xml:space="preserve"
   inkscape:version="1.4 (86a8ad7, 2024-10-11)"
   sodipodi:docname="default4.svg"
   xmlns:inkscape="http://www.inkscape.org/namespaces/inkscape"
   xmlns:sodipodi="http://sodipodi.sourceforge.net/DTD/sodipodi-0.dtd"
   xmlns="http://www.w3.org/2000/svg"
   xmlns:svg="http://www.w3.org/2000/svg"><sodipodi:namedview
     id="namedview7"
     pagecolor="#ffffff"
     bordercolor="#000000"
     borderopacity="0.25"
     inkscape:showpageshadow="2"
     inkscape:pageopacity="0.0"
     inkscape:pagecheckerboard="0"
     inkscape:deskcolor="#d1d1d1"
     inkscape:document-units="mm"
     showgrid="false"
     inkscape:zoom="2.487013"
     inkscape:cx="70.56658"
     inkscape:cy="62.32376"
     inkscape:window-width="1920"
     inkscape:window-height="1010"
     inkscape:window-x="-6"
     inkscape:window-y="-6"
     inkscape:window-maximized="1"
     inkscape:current-layer="layer1" /><defs
     id="defs2" /><g
     inkscape:label="Слой 1"
     inkscape:groupmode="layer"
     id="layer1"><circle
       id="path562"
       style="fill:#000000;stroke:#000000;stroke-width:0.264583"
       cx="-429.3226"
       cy="80.52858"
       r="0.047444247" /><circle
       id="path564"
       style="fill:#000000;stroke:#000000;stroke-width:0.264583"
       cx="-375.22894"
       cy="95.704185"
       r="0.047444247" /><ellipse
       style="fill:#dcf1f8;fill-opacity:0.473684;stroke:#ffffff;stroke-width:1.31604;stroke-dasharray:none;stroke-opacity:0.300509"
       id="path23"
       cx="-26.458334"
       cy="26.458332"
       rx="25.800314"
       ry="25.800312"
       transform="scale(-1,1)" /><g
       style="fill:none"
       id="g1"
       transform="matrix(0.52852871,0,0,0.52852871,8.3859058,5.7490025)"><path
         style="fill:#fcfcfc;fill-opacity:0.473684;stroke:#ffffff;stroke-width:0"
         d="m -6.9019359,32.612856 c -0.1945187,2.947958 0.2513714,5.958188 0.6104798,8.867369 0.061753,0.500271 0.2592041,0.978551 0.3103211,1.480017 0.3722551,3.651944 -0.055649,2.351657 0.3793062,4.534566 0.1093715,0.548901 0.1686508,1.107187 0.2835055,1.654968 0.1511567,0.72092 0.5303794,1.388705 0.7547162,2.085308 0.018082,0.05616 -0.017877,0.11663 -0.026815,0.174945 0.031501,0.183884 0.023861,0.378982 0.094502,0.551656 0.063182,0.154443 0.2363805,0.24777 0.2962632,0.403526 0.1717369,0.446671 0.1385847,1.033346 0.3103216,1.480017 0.3517635,0.914912 1.1172426,1.712444 1.5758207,2.569279 0.2244436,0.419359 0.3112476,0.900719 0.5120826,1.331887 0.4120645,0.884645 1.10614723,1.571008 1.60263673,2.394328 0.40201168,0.1362 0.0238615,0.378982 0.0945018,0.551656 0.244221,0.596969 0.63476011,1.076043 1.01010841,1.587282 0.24688641,0.336273 0.40010461,0.767869 0.74065951,1.008812 0.2609756,0.184638 1.8496681,0.402189 2.0993637,0.32178 3.5532516,-1.144304 -0.066567,-0.0773 1.5604658,-0.835161 0.053483,-0.02493 0.1480258,0.07931 0.1749467,0.02681 C 6.1371758,61.522823 5.7611047,61.182065 5.412266,59.747361 5.2931748,59.257562 5.2887427,58.735518 5.1019457,58.267339 4.6952709,57.248074 4.0975839,56.315716 3.5797539,55.34817 2.9555223,54.18182 3.6031376,56.126809 2.7177773,53.962652 2.272473,52.874155 2.1586868,51.555868 1.8276875,50.424137 1.6508045,49.819354 1.2175961,48.706097 1.1266009,47.988939 c -0.01485,-0.117059 0.083143,-0.23565 0.05363,-0.349896 -0.086042,-0.333072 -0.32017248,-0.618491 -0.39076585,-0.955182 -0.0363202,-0.173221 0.0786405,-0.347859 0.080445,-0.52484 0.005978,-0.586384 -0.19269927,-1.271817 -0.25669094,-1.829912 -0.58239627,-0.374181 0.019229,-0.71918 -0.0140565,-1.076498 C 0.48058135,41.979666 0.3705536,43.517187 0.36928759,41.247748 0.36912294,40.952767 0.52298696,40.667345 0.5033622,40.373017 0.48580925,40.109759 0.27267762,39.883166 0.26072868,39.619596 c -0.0160316,-0.353615 0.13915929,-0.696371 0.16089023,-1.049682 0.0428731,-0.697029 -0.0352072,-1.45718 -0.0281138,-2.152993 0.0120849,-1.185443 -0.3787724,-2.33411 -0.5401962,-3.484882 -0.0245867,-0.175274 0.05363003,-0.349894 0.08044504,-0.524841 -0.18431846,-0.744479 -0.35554858,-1.492322 -0.55295453,-2.233438 -0.39420857,-1.479967 -0.73766947,-2.916665 -0.93096227,-4.440063 -0.07753,-0.611035 0.1664903,-2.257579 -0.6742713,-2.610148 -0.8366178,-0.35083 -1.1617967,0.09764 -1.708598,0.633401 -1.3216996,1.295022 -1.4981937,2.018683 -2.1644529,3.607497 -0.1949322,0.464851 -0.5667605,0.845535 -0.7393612,1.319131 -0.1659281,0.455288 -0.1673139,1.091592 -0.2413351,1.574522 -0.03327,0.217063 -0.5177283,0.675887 -0.4839692,0.821105 0.1260271,0.542117 0.4401429,1.022434 0.6602147,1.533651 z"
         id="path24" /><path
         style="fill:#fcfcfc;fill-opacity:0.473684;stroke:#ffffff;stroke-width:0"
         d="m 56.699419,6.1136771 c 2.160295,0.6873667 5.727901,1.628205 7.610576,3.0088309 1.201753,0.881287 2.057931,2.904697 2.65485,4.247762 0.160734,0.361652 0.353982,0.707961 0.53097,1.06194 0.294981,0.766957 0.555585,1.548039 0.884952,2.300871 0.57221,1.307919 0.104982,-0.120013 0.707959,0.884951 0.274566,0.45761 0.136454,0.926494 0.353981,1.415921 0.119805,0.269559 0.427391,0.431758 0.530971,0.70796 0.08286,0.220961 -0.05724,0.479019 0,0.70796 0.06399,0.255964 0.270546,0.457658 0.353976,0.70796 0.0373,0.111939 -0.02863,0.23951 0,0.35398 0.159518,0.638069 0.579569,1.304923 0.707964,1.946891 0.19508,0.975422 0.06046,1.722656 0.176988,2.654851 0.2034,1.627211 0.587298,3.958118 -0.176988,5.486692 -0.0095,0.01893 -0.852658,0.0323 -0.884952,0 -0.09328,-0.09328 -0.103815,-0.244215 -0.176988,-0.353979 -0.158141,-0.237207 -0.338093,-0.692069 -0.530971,-0.884951 -0.150416,-0.150415 -1.662504,-1.362222 -1.769903,-1.41592 -0.05277,-0.02639 -0.135273,0.04171 -0.176989,0 -0.265485,-0.265486 -0.442478,-0.619466 -0.707963,-0.884951 -0.322719,-0.322722 -0.32766,-0.01514 -0.53097,-0.35398 -0.326924,-0.544879 -0.887585,-1.513643 -1.061941,-2.123881 -0.04861,-0.17018 0.05597,-0.363063 0,-0.53097 -0.01867,-0.05597 -0.144263,0.04909 -0.176988,0 -0.134928,-0.202396 -0.005,-0.535957 -0.176988,-0.707961 -0.0417,-0.04171 -0.144264,0.04909 -0.176994,0 -0.176608,-0.26491 -0.29441,-1.23721 -0.353976,-1.41592 -0.08344,-0.250302 -0.270547,-0.457658 -0.353982,-0.70796 -0.111104,-0.333316 -0.04621,-0.734915 -0.176989,-1.061941 -0.06197,-0.154933 -0.279356,-0.204729 -0.353981,-0.35398 -0.108786,-0.217569 -0.100066,-0.477193 -0.176989,-0.70796 -0.19508,-0.585238 -0.22804,-0.178106 -0.53097,-0.88495 -0.339514,-0.792198 -0.196026,-1.138084 -0.353982,-1.769901 -0.07705,-0.308221 -0.266701,-0.579468 -0.353981,-0.884951 -0.03244,-0.113453 0.05277,-0.248443 0,-0.35398 -0.131919,-0.263841 -0.367343,-0.462519 -0.53097,-0.70796 -0.241727,-0.362592 -0.223755,-0.931715 -0.530971,-1.238931 -0.09328,-0.09328 -0.260694,-0.08371 -0.353976,-0.176989 -0.0417,-0.04172 0.03274,-0.127903 0,-0.176991 -0.308377,-0.46256 -0.885228,-0.814481 -1.238934,-1.23893 -0.626415,-0.751702 -1.346864,-1.631791 -1.769899,-2.477861 -0.05277,-0.105537 0.05277,-0.2484437 0,-0.3539804 C 57.424604,9.5109363 57.139955,9.0320715 56.876408,8.7685283 56.677398,8.5695144 56.227826,8.3951366 55.991461,8.2375582 c -0.059,-0.058997 -0.117992,-0.1179938 -0.176994,-0.1769904 0,-0.058997 0.0417,-0.1352731 0,-0.1769899 -0.0417,-0.041715 -0.135273,0.041715 -0.176988,0 -0.09821,-0.098209 -0.310349,-1.516706 -0.176988,-1.5929109 0.362201,-0.206974 0.825951,-0.1179932 1.238928,-0.1769899 z"
         id="path25" /></g><path
       style="fill:#4190aa;fill-opacity:0.473684;stroke:#113b8a;stroke-width:0.173211;stroke-dasharray:none;stroke-opacity:1"
       d="m 15.322863,37.425048 c 0.140112,1.554021 1.220098,3.360475 3.163424,2.385069 1.943327,-0.975405 1.393384,-3.726675 -0.327232,-4.860414 -0.839866,-0.5534 -1.843651,-1.901968 -2.422549,-0.814755 -0.720401,1.352965 -0.413643,3.2901 -0.413643,3.2901 z"
       id="path1-9-1"
       sodipodi:nodetypes="csssc" /><path
       style="fill:#4190aa;fill-opacity:0.473684;stroke:#113b8a;stroke-width:0.128874;stroke-dasharray:none;stroke-opacity:1"
       d="m 8.115523,49.079642 c -1.7686447,-1.1088 -1.4806667,-5.282674 -0.386673,-3.97107 0.9246099,1.108529 2.756198,2.826096 4.235517,3.5417 0.871428,0.421544 -0.752674,1.168203 -2.1783597,1.155127 C 8.9980591,49.798172 8.115526,49.079641 8.115526,49.079641 Z"
       id="path1-9-5"
       sodipodi:nodetypes="csssc" /><path
       style="fill:#ffffff;fill-opacity:0.473684;stroke:#113b8a;stroke-width:0;stroke-dasharray:none;stroke-opacity:1"
       d="m 16.318917,34.587211 c 0.26467,1.972992 1.411608,3.131497 0.04878,3.17825 -0.469841,0.01612 -0.336846,-0.374119 -0.401035,-1.03714 -0.01694,-0.174935 -0.0476,-0.368854 -0.106687,-0.57931 -0.34154,-1.216533 0.458945,-1.561799 0.458945,-1.561799 z"
       id="path1-8-2-5"
       sodipodi:nodetypes="csssc" /><path
       style="fill:#4190aa;fill-opacity:0.473684;stroke:#113b8a;stroke-width:0.173211;stroke-dasharray:none;stroke-opacity:1"
       d="m 17.553457,27.211696 c 0.140112,1.554021 1.138247,3.161693 3.081573,2.186287 1.943327,-0.975405 1.687512,-4.428339 -0.327232,-4.860414 -1.038304,-0.222671 -1.922,-0.313692 -2.356403,0.838891 -0.509926,1.352965 -0.397938,1.835236 -0.397938,1.835236 z"
       id="path1-9-1-4"
       sodipodi:nodetypes="csssc" /><path
       style="fill:#ffffff;fill-opacity:0.473684;stroke:#113b8a;stroke-width:0;stroke-dasharray:none;stroke-opacity:1"
       d="m 19.494913,25.010839 c -0.303103,1.967455 0.236255,3.367553 -1.084336,3.027657 -0.45528,-0.117178 -0.449034,-0.453998 -0.32343,-1.10817 0.03313,-0.172603 0.155682,-0.336221 0.193491,-0.519718 0.254999,-1.23757 0.980415,-1.434846 0.980415,-1.434846 z"
       id="path1-8-2-5-2"
       sodipodi:nodetypes="cssscc" /><path
       style="fill:#ffffff;fill-opacity:0.473684;stroke:#113b8a;stroke-width:0;stroke-dasharray:none;stroke-opacity:1"
       d="m 10.727556,49.064054 c 0.941247,-0.607805 -0.181305,-0.12465 -1.0054995,-1.444291 -0.2496602,-0.399738 -0.730459,-0.146806 -0.8466954,0.470999 -0.063607,0.338121 -0.016955,0.527439 0.1080012,0.687859 0.7765217,0.997157 1.7442147,0.285427 1.7442147,0.285427 z"
       id="path1-8-2-1"
       sodipodi:nodetypes="csssc" /></g></svg>
