<?xml version="1.0" encoding="UTF-8" standalone="no"?>
<!-- Created with Inkscape (http://www.inkscape.org/) -->

<svg
   width="770"
   height="770"
   viewBox="0 0 203.72916 203.72917"
   version="1.1"
   id="svg5"
   xml:space="preserve"
   inkscape:version="1.4 (86a8ad7, 2024-10-11)"
   sodipodi:docname="Global1.svg"
   xmlns:inkscape="http://www.inkscape.org/namespaces/inkscape"
   xmlns:sodipodi="http://sodipodi.sourceforge.net/DTD/sodipodi-0.dtd"
   xmlns="http://www.w3.org/2000/svg"
   xmlns:svg="http://www.w3.org/2000/svg"><sodipodi:namedview
     id="namedview7"
     pagecolor="#ffffff"
     bordercolor="#000000"
     borderopacity="0.25"
     inkscape:showpageshadow="2"
     inkscape:pageopacity="0.0"
     inkscape:pagecheckerboard="0"
     inkscape:deskcolor="#d1d1d1"
     inkscape:document-units="mm"
     showgrid="false"
     inkscape:zoom="0.35355339"
     inkscape:cx="-306.88435"
     inkscape:cy="763.67533"
     inkscape:window-width="1920"
     inkscape:window-height="1010"
     inkscape:window-x="-6"
     inkscape:window-y="-6"
     inkscape:window-maximized="1"
     inkscape:current-layer="layer1" /><defs
     id="defs2" /><g
     inkscape:label="Слой 1"
     inkscape:groupmode="layer"
     id="layer1"><path
       id="path16724"
       style="fill:#000000;fill-opacity:1;stroke:#000000;stroke-width:0;stroke-linecap:round;paint-order:fill markers stroke"
       d="M 102.00566 1.5074015 A 100.54166 100.54166 0 0 0 1.4639933 102.04907 A 100.54166 100.54166 0 0 0 102.00566 202.59073 A 100.54166 100.54166 0 0 0 202.54733 102.04907 A 100.54166 100.54166 0 0 0 102.00566 1.5074015 z M 97.988334 80.042143 C 99.231727 80.044257 100.47462 80.059646 101.72919 80.07935 C 114.61494 80.215927 125.34472 80.690606 132.72833 83.945264 C 138.12162 87.365775 139.15982 93.680791 135.10958 98.307178 L 69.944568 98.648759 C 63.070775 95.662751 62.059573 87.315382 67.921436 84.630493 C 80.5736 80.640271 89.284584 80.02734 97.988334 80.042143 z M 69.74303 105.15069 L 135.47028 105.49537 C 137.17428 107.40116 137.40622 109.52424 137.84172 112.64842 C 138.33806 116.92735 136.04065 119.41646 133.28695 120.54871 C 125.79593 122.82768 114.79957 123.74306 101.80257 123.88081 C 91.679311 124.0398 72.810181 122.65278 68.048043 119.4325 C 65.031429 117.66828 62.809886 108.16249 69.74303 105.15069 z " /><circle
       id="path562"
       style="fill:#000000;stroke:#000000;stroke-width:0.264583"
       cx="-429.3226"
       cy="80.52858"
       r="0.047444247" /><circle
       id="path564"
       style="fill:#000000;stroke:#000000;stroke-width:0.264583"
       cx="-375.22894"
       cy="95.704185"
       r="0.047444247" /><path
       style="fill:#ffffff;fill-opacity:0;stroke:#ffffff;stroke-width:2.64583;stroke-linecap:round;stroke-dasharray:none;stroke-opacity:1;paint-order:fill markers stroke"
       d="m 69.716784,98.303147 c -6.873796,-2.98601 -7.884866,-11.333546 -2.023,-14.018436 14.459617,-4.560253 23.771342,-4.708883 33.807946,-4.551254 12.88575,0.136577 23.61536,0.611653 30.99897,3.866314 5.39329,3.42051 6.43116,9.735216 2.38092,14.361606 z"
       id="path12313-9"
       sodipodi:nodetypes="cccccc" /><path
       style="fill:#ffffff;fill-opacity:0;stroke:#ffffff;stroke-width:2.64583;stroke-linecap:round;stroke-dasharray:none;stroke-opacity:1;paint-order:fill markers stroke"
       d="m 69.515222,104.80514 c -6.933144,3.0118 -4.711754,12.51746 -1.695143,14.28168 4.762138,3.22028 23.631266,4.60735 33.754531,4.44836 12.997,-0.13775 23.99383,-1.05337 31.48485,-3.33234 2.7537,-1.13225 5.05081,-3.62137 4.55447,-7.9003 -0.4355,-3.12418 -0.66722,-5.24688 -2.37122,-7.15267 z"
       id="path12313-5-4"
       sodipodi:nodetypes="ccccccc" /><path
       style="fill:none;fill-opacity:1;stroke:#ffffff;stroke-width:2.64583333;stroke-linecap:round;stroke-dasharray:none;stroke-opacity:1;paint-order:fill markers stroke"
       d="m 70.511961,98.888351 c -1.966302,1.670489 -1.358118,4.256089 -0.391313,5.448289"
       id="path14361"
       sodipodi:nodetypes="cc" /><path
       style="fill:none;fill-opacity:1;stroke:#ffffff;stroke-width:2.64583333;stroke-linecap:round;stroke-dasharray:none;stroke-opacity:1;paint-order:fill markers stroke"
       d="m 133.78304,98.853106 c 1.98469,1.686114 1.52273,4.812384 0.54689,6.015734"
       id="path14361-4"
       sodipodi:nodetypes="cc" /><path
       style="fill:none;fill-opacity:1;stroke:#ffffff;stroke-width:2.64583333;stroke-linecap:round;stroke-dasharray:none;stroke-opacity:1;paint-order:fill markers stroke"
       d="M 53.826923,102.46154 27.865385,105.75"
       id="path15137" /><path
       style="fill:none;fill-opacity:1;stroke:#ffffff;stroke-width:2.64583333;stroke-linecap:round;stroke-dasharray:none;stroke-opacity:1;paint-order:fill markers stroke"
       d="m 54.865383,113.01923 -18.51923,13.84615"
       id="path15139" /><path
       style="fill:none;fill-opacity:1;stroke:#ffffff;stroke-width:2.64583333;stroke-linecap:round;stroke-dasharray:none;stroke-opacity:1;paint-order:fill markers stroke"
       d="M 143.13462,88.961538 168.05769,78.75"
       id="path15141" /><path
       style="fill:none;fill-opacity:1;stroke:#ffffff;stroke-width:2.64583333;stroke-linecap:round;stroke-dasharray:none;stroke-opacity:1;paint-order:fill markers stroke"
       d="m 145.03846,98.999999 25.09615,3.634611"
       id="path15143" /><path
       style="fill:none;fill-opacity:1;stroke:#ffffff;stroke-width:2.64583333;stroke-linecap:round;stroke-dasharray:none;stroke-opacity:1;paint-order:fill markers stroke"
       d="m 144,112.32692 25.09615,10.03846"
       id="path15145" /><path
       style="fill:none;fill-opacity:1;stroke:#ffffff;stroke-width:2.64583333;stroke-linecap:round;stroke-dasharray:none;stroke-opacity:1;paint-order:fill markers stroke"
       d="M 51.576922,88.442307 34.442307,80.307692"
       id="path15147" /></g></svg>
