<?xml version="1.0" encoding="UTF-8" standalone="no"?>
<svg
   width="40"
   height="40"
   viewBox="0 0 40 40"
   fill="none"
   version="1.1"
   id="svg23399"
   sodipodi:docname="Global.svg"
   inkscape:version="1.2.2 (732a01da63, 2022-12-09)"
   xmlns:inkscape="http://www.inkscape.org/namespaces/inkscape"
   xmlns:sodipodi="http://sodipodi.sourceforge.net/DTD/sodipodi-0.dtd"
   xmlns="http://www.w3.org/2000/svg"
   xmlns:svg="http://www.w3.org/2000/svg">
  <defs
     id="defs23403" />
  <sodipodi:namedview
     id="namedview23401"
     pagecolor="#ffffff"
     bordercolor="#000000"
     borderopacity="0.25"
     inkscape:showpageshadow="2"
     inkscape:pageopacity="0.0"
     inkscape:pagecheckerboard="0"
     inkscape:deskcolor="#d1d1d1"
     showgrid="false"
     inkscape:zoom="21.45"
     inkscape:cx="18.764569"
     inkscape:cy="20"
     inkscape:window-width="3360"
     inkscape:window-height="1850"
     inkscape:window-x="3348"
     inkscape:window-y="-12"
     inkscape:window-maximized="1"
     inkscape:current-layer="svg23399" />
  <circle
     style="fill:none;fill-opacity:1;stroke:#000000;stroke-width:4.73761;stroke-linecap:round;stroke-dasharray:none;stroke-opacity:0.564286;paint-order:fill markers stroke"
     id="path27712"
     cx="19.999998"
     cy="19.999998"
     r="17.631193" />
  <path
     id="circle23397"
     style="fill:#000000;fill-opacity:1;stroke:#f9a779;stroke-width:0.888889;stroke-opacity:0"
     d="M 20,4.4444445 A 15.555556,15.555556 0 0 0 4.4444445,20 15.555556,15.555556 0 0 0 20,35.555556 15.555556,15.555556 0 0 0 35.555556,20 15.555556,15.555556 0 0 0 20,4.4444445 Z M 19.67882,10.0625 c 1.968709,0 3.532395,0.486148 4.690972,1.458334 1.158576,0.972265 1.855344,2.37384 2.090278,4.20486 h -3.013889 c -0.340355,-2.130753 -1.575755,-3.19618 -3.706598,-3.19618 -1.377243,0 -2.426503,0.49826 -3.147568,1.494792 -0.712979,0.988444 -1.081637,2.44276 -1.105903,4.362847 v 1.361111 c 0,1.911999 0.400992,3.398737 1.203125,4.460069 0.810132,1.053244 1.932276,1.579862 3.366318,1.579862 1.571732,0 2.689812,-0.356468 3.354167,-1.069445 v -3.463542 h -3.645833 v -2.333334 h 6.708334 v 6.781252 c -0.64,0.834488 -1.527149,1.4665 -2.661459,1.895832 -1.134221,0.429422 -2.42254,0.644097 -3.864583,0.644098 -1.482666,0 -2.79519,-0.336237 -3.937501,-1.00868 -1.142398,-0.672444 -2.025484,-1.632477 -2.649305,-2.880209 -0.615732,-1.255733 -0.935714,-2.718177 -0.96007,-4.387153 v -1.385417 c 0,-2.673597 0.640052,-4.759837 1.920139,-6.25868 1.280088,-1.506959 3.066488,-2.260417 5.359376,-2.260417 z" />
</svg>
