<?xml version="1.0" encoding="UTF-8" standalone="no"?>
<svg
   width="44"
   height="44"
   viewBox="0 0 44 44"
   fill="none"
   version="1.1"
   id="svg266"
   sodipodi:docname="GoCorona.svg"
   inkscape:version="1.2.2 (732a01da63, 2022-12-09)"
   xmlns:inkscape="http://www.inkscape.org/namespaces/inkscape"
   xmlns:sodipodi="http://sodipodi.sourceforge.net/DTD/sodipodi-0.dtd"
   xmlns="http://www.w3.org/2000/svg"
   xmlns:svg="http://www.w3.org/2000/svg">
  <defs
     id="defs270" />
  <sodipodi:namedview
     id="namedview268"
     pagecolor="#ffffff"
     bordercolor="#000000"
     borderopacity="0.25"
     inkscape:showpageshadow="2"
     inkscape:pageopacity="0.0"
     inkscape:pagecheckerboard="0"
     inkscape:deskcolor="#d1d1d1"
     showgrid="false"
     inkscape:zoom="15.16744"
     inkscape:cx="26.009662"
     inkscape:cy="24.724013"
     inkscape:window-width="3360"
     inkscape:window-height="1850"
     inkscape:window-x="3348"
     inkscape:window-y="-12"
     inkscape:window-maximized="1"
     inkscape:current-layer="svg266" />
  <path
     id="rect4048"
     style="fill:#000000;fill-opacity:1;stroke-width:2.385;stroke-linecap:round;paint-order:fill markers stroke"
     d="M 22.272333,0.08153863 A 22.144522,22.144522 0 0 0 0.12780234,22.226069 22.144522,22.144522 0 0 0 22.272333,44.3706 22.144522,22.144522 0 0 0 44.416864,22.226069 22.144522,22.144522 0 0 0 22.272333,0.08153863 Z M 17.383661,6.9584918 c 1.065147,0.041076 2.040347,0.6686089 2.419922,1.6660159 0.387397,1.018177 0.04055,2.1249013 -0.78125,2.8124993 l 0.445312,1.210937 0.705078,0.816406 c 0.161299,0.186604 0.407144,0.276294 0.652344,0.246094 0.661098,-0.0813 1.317639,-0.08518 1.960937,-0.01758 0.218,0.0232 0.435299,-0.04907 0.591797,-0.201172 l 0.509766,-0.49414 0.375,-1.09375 c -0.319801,-0.438917 -0.427881,-1.019946 -0.238281,-1.572264 0.321798,-0.9362663 1.373895,-1.4205073 2.308594,-1.0371083 0.805197,0.329889 1.243512,1.2251453 1.007812,2.0585923 -0.1498,0.530859 -0.529594,0.930154 -0.996094,1.126953 l -0.416015,1.210938 0.09375,0.669922 c 0.0326,0.229699 0.16984,0.428528 0.36914,0.548828 0.669899,0.406497 1.285975,0.904018 1.826172,1.478515 0.1815,0.1934 0.450638,0.27701 0.710938,0.22461 l 1.339843,-0.269531 1.513672,-0.839844 c 0.0078,-0.744298 0.407225,-1.463163 1.107422,-1.851563 1.058697,-0.586897 2.398792,-0.192584 2.962891,0.882813 0.509297,0.970097 0.189975,2.189912 -0.732422,2.787109 -0.720297,0.465499 -1.598946,0.44828 -2.277344,0.05078 l -1.523437,0.84375 -0.84961,0.902343 c -0.228156,0.2423 -0.309756,0.585452 -0.222656,0.90625 5e-4,0.0019 0.0015,0.004 0.002,0.0059 0.149,0.552797 0.237991,1.107503 0.275391,1.658203 0.0217,0.328097 0.207247,0.62445 0.498047,0.78125 l 1.111328,0.597656 2.199219,0.414062 c 0.387697,-0.337595 0.920998,-0.500837 1.466796,-0.398437 0.978497,0.1848 1.608122,1.154009 1.357422,2.128906 -0.215699,0.834797 -1.03824,1.39065 -1.898437,1.28125 -0.586599,-0.0746 -1.060155,-0.428345 -1.314453,-0.902343 l -2.212891,-0.416016 -1.365234,0.166016 c -0.2517,0.0311 -0.471619,0.189423 -0.574219,0.419921 -0.408599,0.909897 -0.971971,1.746253 -1.667969,2.46875 -0.172881,0.1795 -0.238581,0.435182 -0.175781,0.675782 l 0.339844,1.310547 0.83789,1.310546 c 0.921498,-0.137898 1.88011,0.2598 2.41211,1.091797 0.715097,1.117797 0.39034,2.59716 -0.722657,3.31836 -1.112397,0.721097 -2.626371,0.406531 -3.355468,-0.697266 -0.5105,-0.772797 -0.51536,-1.726125 -0.101563,-2.482422 l -0.890625,-1.388672 -1.09375,-0.898437 c -0.161899,-0.1336 -0.382478,-0.167856 -0.580078,-0.09766 -0.2193,0.0781 -0.441222,0.148084 -0.669922,0.208984 -1.242696,0.331099 -2.495803,0.372421 -3.6875,0.169922 -0.174699,-0.0293 -0.354681,0.02122 -0.488281,0.136718 l -0.585938,0.507813 -0.4375,1.072266 c 0.295299,0.456297 0.372244,1.043286 0.152344,1.583984 -0.373799,0.917601 -1.451684,1.342403 -2.363281,0.908203 -0.785097,-0.3739 -1.172425,-1.293984 -0.890625,-2.113281 0.1794,-0.5218 0.579642,-0.897861 1.05664,-1.068359 l 0.482422,-1.1875 -0.08984,-1.042969 c -0.871899,-0.5444 -1.646853,-1.242661 -2.28125,-2.06836 l -1.490235,0.146485 -1.396484,0.6875 c 0.0091,0.933497 -0.472722,1.822053 -1.318359,2.251953 -1.1949164,0.606897 -2.6620354,0.06912 -3.2773432,-1.201172 -0.6151283,-1.269697 -0.1460784,-2.789587 1.0488278,-3.396484 0.894207,-0.4543 1.9399034,-0.268425 2.6679684,0.386718 l 1.316406,-0.65039 0.914062,-0.976563 c 0.05969,-0.0639 0.08129,-0.152328 0.05859,-0.236328 v -0.002 c -0.422199,-1.566895 -0.378677,-3.151725 0.04492,-4.607422 0.0227,-0.0799 0.0051,-0.164917 -0.04883,-0.228515 L 12.721551,18.71435 11.024286,17.825678 c -0.467659,0.205201 -1.022196,0.204619 -1.5097654,-0.05078 -0.880817,-0.461397 -1.198866,-1.568637 -0.673828,-2.427734 0.460939,-0.753297 1.4430164,-1.038542 2.2402344,-0.652344 0.516038,0.2498 0.848855,0.717478 0.947265,1.234375 l 1.699219,0.888672 1.207031,0.113281 c 0.0839,0.0081 0.167403,-0.0268 0.220703,-0.0918 0.5481,-0.674897 1.200208,-1.271068 1.941406,-1.759765 0.203399,-0.1348 0.328832,-0.358263 0.332032,-0.601563 l 0.01367,-1.09375 -0.474609,-1.291015 C 15.940747,12.019515 15.011524,11.400196 14.643425,10.433098 14.137327,9.1032327 14.882592,7.6194777 16.307488,7.1205992 16.663663,6.9957191 17.02861,6.9447978 17.38366,6.9584898 Z m 4.4375,8.9218742 c -0.529011,0.0052 -1.06497,0.07628 -1.59961,0.21875 -3.421689,0.911797 -5.452053,4.409609 -4.535156,7.8125 0.916797,3.40279 4.433879,5.421564 7.855469,4.509766 3.421689,-0.911797 5.451953,-4.409611 4.535156,-7.8125 -0.773631,-2.871105 -3.399204,-4.756836 -6.255859,-4.728516 z" />
  <path
     d="m 22.947004,26.543306 c -3.1008,0.8263 -6.2797,-0.7544 -7.5311,-3.5905 0.0354,0.3187 0.0955,0.6388 0.1815,0.9581 0.9168,3.4029 4.4338,5.4223 7.8555,4.5105 3.4218,-0.9119 5.4523,-4.4095 4.5355,-7.8125 -0.0861,-0.3192 -0.1949,-0.6263 -0.3245,-0.9199 0.342,3.0784 -1.6163,6.0281 -4.7169,6.8543 z"
     fill="#F07281"
     id="path252"
     style="fill:#ffffff;fill-opacity:0.2875" />
  <path
     d="m 13.322604,35.628406 c -0.2611,-0.9691 -1.2626,-1.5442 -2.23702,-1.2845 -0.9744,0.2596 -1.5526498,1.2557 -1.2915595,2.2247 0.2610895,0.9691 1.2626495,1.5442 2.2370795,1.2845 0.9744,-0.2596 1.5526,-1.2557 1.2915,-2.2247 z"
     fill="#EB5569"
     id="path254"
     style="fill:#ffffff;fill-opacity:1" />
  <path
     d="m 36.109204,30.070306 c -0.1725,-0.64 -0.834,-1.0199 -1.4776,-0.8484 -0.6436,0.1715 -1.0256,0.8294 -0.8531,1.4695 0.1724,0.6401 0.834,1.0199 1.4776,0.8484 0.6436,-0.1715 1.0255,-0.8294 0.8531,-1.4695 z"
     fill="#EB5569"
     id="path256"
     style="fill:#ffffff;fill-opacity:1" />
  <path
     d="m 32.841504,8.1345367 c -0.254,-0.9427703 -1.2284,-1.5022503 -2.1764,-1.2496403 -0.948,0.25261 -1.5106,1.2216703 -1.2566,2.1644403 0.254,0.9427698 1.2284,1.5022493 2.1764,1.2496293 0.948,-0.25261 1.5106,-1.2216593 1.2566,-2.1644293 z"
     fill="#EB5569"
     id="path258"
     style="fill:#ffffff;fill-opacity:1" />
  <path
     d="m 22.194104,24.180106 c -0.2368,-0.879 -1.1453,-1.4006 -2.0291,-1.1651 -0.8838,0.2355 -1.4083,1.139 -1.1715,2.0179 0.2369,0.879 1.1453,1.4006 2.0291,1.1651 0.8838,-0.2355 1.4083,-1.139 1.1715,-2.0179 z"
     fill="#EB5569"
     id="path260"
     style="fill:#ffffff;fill-opacity:1" />
  <path
     d="m 26.309404,21.714206 c -0.1612,-0.5983 -0.7795,-0.9533 -1.3811,-0.793 -0.6016,0.1603 -0.9586,0.7752 -0.7974,1.3735 0.1612,0.5983 0.7796,0.9533 1.3811,0.793 0.6016,-0.1603 0.9586,-0.7753 0.7974,-1.3735 z"
     fill="#EB5569"
     id="path262"
     style="fill:#ffffff;fill-opacity:1" />
  <path
     d="m 21.956404,19.228506 c -0.1354,-0.5024 -0.6546,-0.8005 -1.1597,-0.6659 -0.5052,0.1346 -0.805,0.651 -0.6696,1.1533 0.1354,0.5024 0.6546,0.8005 1.1597,0.6659 0.5052,-0.1346 0.805,-0.651 0.6696,-1.1533 z"
     fill="#EB5569"
     id="path264"
     style="fill:#ffffff;fill-opacity:1" />
</svg>
