<?xml version="1.0" encoding="UTF-8" standalone="no"?>
<!-- Created with Inkscape (http://www.inkscape.org/) -->

<svg
   version="1.1"
   id="svg5962"
   width="512"
   height="512"
   viewBox="0 0 512 512"
   sodipodi:docname="Hangman.svg"
   inkscape:version="1.2.2 (732a01da63, 2022-12-09)"
   xml:space="preserve"
   xmlns:inkscape="http://www.inkscape.org/namespaces/inkscape"
   xmlns:sodipodi="http://sodipodi.sourceforge.net/DTD/sodipodi-0.dtd"
   xmlns="http://www.w3.org/2000/svg"
   xmlns:svg="http://www.w3.org/2000/svg"><defs
     id="defs5966" /><sodipodi:namedview
     id="namedview5964"
     pagecolor="#ffffff"
     bordercolor="#000000"
     borderopacity="0.25"
     inkscape:showpageshadow="2"
     inkscape:pageopacity="0.0"
     inkscape:pagecheckerboard="0"
     inkscape:deskcolor="#d1d1d1"
     showgrid="false"
     inkscape:zoom="1.6757812"
     inkscape:cx="240.78322"
     inkscape:cy="256"
     inkscape:window-width="3360"
     inkscape:window-height="1850"
     inkscape:window-x="3348"
     inkscape:window-y="-12"
     inkscape:window-maximized="1"
     inkscape:current-layer="g5968" /><g
     inkscape:groupmode="layer"
     inkscape:label="Image"
     id="g5968"><path
       style="fill:#000000"
       d="m 233.09674,511.54247 c -51.2818,-5.28781 -99.0995,-24.83988 -138.000004,-56.4265 -4.95,-4.01933 -14.856698,-13.31792 -22.014886,-20.66355 C 52.652853,413.48849 39.058363,394.13729 26.562449,368.23397 14.679421,343.60113 7.5733486,320.84653 3.4100082,294.09674 c -3.12039477,-20.04878 -3.12039477,-54.95122 0,-75 4.3087225,-27.68388 11.3912168,-49.9849 24.1365478,-76 C 40.919588,115.8004 55.830662,95.407638 78.741054,73.08185 99.704988,52.652853 119.05619,39.058363 144.95951,26.562449 169.59235,14.679421 192.34695,7.5733482 219.09674,3.4100077 c 20.04878,-3.12039468 54.95122,-3.12039468 75,0 42.97742,6.6890123 82.54102,23.3459953 117.28836,49.3804963 11.91481,8.927193 33.88915,30.185659 43.73087,42.306232 16.43576,20.241454 33.00895,49.361564 41.8801,73.585854 5.10816,13.94876 10.294,34.3939 12.7874,50.41415 3.12039,20.04878 3.12039,54.95122 0,75 -6.68901,42.97742 -23.346,82.54102 -49.3805,117.28836 -8.92719,11.91481 -30.18566,33.88915 -42.30623,43.73087 -20.25063,16.44321 -49.35983,33.00795 -73.61509,41.89105 -13.85492,5.07414 -34.72634,10.35637 -50.07634,12.67353 -15.40333,2.32521 -47.39352,3.29674 -61.30857,1.86192 z m -109.5,-254.44573 v -145.5 h -6 -6 v 145.5 145.5 h 6 6 z m 26,0 v -145.5 h -6.5 -6.5 v 145.5 145.5 h 6.5 6.5 z m 25,0 v -145.5 h -6.5 -6.5 v 145.5 145.5 h 6.5 6.5 z m 25,88.5 v -57 h 57 57 v 57 57 h 6.5 6.5 v -145.5 -145.5 h -6.5 -6.5 v 57.00826 57.00825 l -56.75,-0.25825 -56.75,-0.25826 -0.25826,-56.75 -0.25825,-56.75 h -6.49175 -6.49174 v 145.5 145.5 h 6.5 6.5 z m 0,-76 v -6 h 57 57 v 6 6 h -57 -57 z m 0,-25.5 v -6.5 h 57 57 v 6.5 6.5 h -57 -57 z m 152,13 v -145.5 h -6.5 -6.5 v 145.5 145.5 h 6.5 6.5 z m 25,0 v -145.5 h -6 -6 v 145.5 145.5 h 6 6 z m 26,0 v -145.5 h -6.5 -6.5 v 145.5 145.5 h 6.5 6.5 z"
       id="path6120" /></g></svg>
