<?xml version="1.0" encoding="UTF-8" standalone="no"?>
<!-- Created with Inkscape (http://www.inkscape.org/) -->

<svg
   width="770"
   height="770"
   viewBox="0 0 203.72916 203.72917"
   version="1.1"
   id="svg5"
   xml:space="preserve"
   inkscape:version="1.2.2 (732a01da63, 2022-12-09)"
   sodipodi:docname="рисунок.svg"
   xmlns:inkscape="http://www.inkscape.org/namespaces/inkscape"
   xmlns:sodipodi="http://sodipodi.sourceforge.net/DTD/sodipodi-0.dtd"
   xmlns="http://www.w3.org/2000/svg"
   xmlns:svg="http://www.w3.org/2000/svg"><sodipodi:namedview
     id="namedview7"
     pagecolor="#ffffff"
     bordercolor="#000000"
     borderopacity="0.25"
     inkscape:showpageshadow="2"
     inkscape:pageopacity="0.0"
     inkscape:pagecheckerboard="0"
     inkscape:deskcolor="#d1d1d1"
     inkscape:document-units="mm"
     showgrid="false"
     inkscape:zoom="0.76435185"
     inkscape:cx="208.67353"
     inkscape:cy="470.98728"
     inkscape:window-width="3360"
     inkscape:window-height="1850"
     inkscape:window-x="3348"
     inkscape:window-y="-12"
     inkscape:window-maximized="1"
     inkscape:current-layer="layer1" /><defs
     id="defs2" /><g
     inkscape:label="Слой 1"
     inkscape:groupmode="layer"
     id="layer1"><path
       id="path369"
       style="fill:#000000;stroke-width:0.264583"
       d="M 102.12917,1.5875 A 100.54166,100.54166 0 0 0 1.5875,102.12918 100.54166,100.54166 0 0 0 102.12917,202.67084 100.54166,100.54166 0 0 0 202.67083,102.12918 100.54166,100.54166 0 0 0 102.12917,1.5875 Z m -0.0315,2.2427573 c 4.66715,-0.00397 9.35005,0.1515375 11.80548,0.4687052 22.73979,2.9372946 42.29945,12.5087325 58.31272,28.5346935 15.53644,15.548731 25.34847,35.945758 27.9952,58.196448 0.63495,5.338179 0.62734,16.919776 -0.0145,22.211576 -2.94869,24.31219 -14.0277,45.72079 -32.12414,62.07528 -14.95431,13.5148 -34.03527,22.13343 -54.43389,24.58713 -3.29179,0.39594 -14.53572,0.7065 -17.59479,0.48576 -17.678721,-1.2757 -34.402781,-6.91096 -48.394979,-16.3065 C 23.507532,167.87287 8.0964153,142.90831 4.3258341,113.90313 3.6605003,108.78505 3.6467915,95.661957 4.3010295,90.487501 8.5283484,57.05306 28.506727,28.817492 58.472917,13.926283 68.599514,8.8940342 78.489238,5.9168442 90.386731,4.3191163 92.779254,3.9978217 97.430498,3.8342301 102.09764,3.8302573 Z m -0.72192,5.1412883 C 80.091511,9.1653626 59.061603,16.626592 42.074951,30.910259 39.020464,33.478704 33.560596,38.966994 30.843079,42.201043 19.976932,55.132577 12.83927,70.654713 10.200928,87.091843 4.8467104,120.44914 17.524795,153.49508 43.79681,174.66273 c 14.923062,12.02367 32.906947,19.01783 52.511523,20.42201 0.654844,0.0469 2.976565,0.10564 5.159377,0.13074 21.35866,0.24531 42.47402,-7.09147 59.21292,-20.57445 26.11399,-21.03447 38.87831,-54.07844 33.65841,-87.134742 C 189.68758,58.049599 170.85726,32.287601 144.20774,18.92236 130.62072,12.108215 115.93861,8.8389338 101.37572,8.9715456 Z m 35.82417,19.3269864 c 3.03909,-5.55e-4 6.14221,0.552907 8.70438,1.636593 6.82488,2.886612 11.95549,9.040168 15.7055,18.836576 2.00733,5.243896 3.72009,13.212456 4.53771,21.112406 0.86819,8.388646 -0.28991,24.212786 -1.9296,26.36945 -0.42662,0.561134 -5.00044,2.436027 -5.94279,2.436027 -0.0629,0 -0.0383,-0.565547 0.0543,-1.256771 l 0.16795,-1.25677 -0.89503,1.984375 c -0.81317,1.802105 -0.97188,1.991762 -1.726,2.067052 -0.71988,0.0719 -0.83044,-1.8e-4 -0.83044,-0.542077 0,-0.558277 -0.0986,-0.613587 -0.92345,-0.517287 -0.99707,0.1164 -0.93399,-0.005 -1.75132,3.357944 -0.17684,0.7276 -0.4465,1.40533 -0.59945,1.50585 -0.23692,0.1557 -3.74001,1.03949 -5.65546,1.42679 -0.45897,0.0928 -0.59532,0.30278 -0.59532,0.91726 0,0.90308 -0.41363,1.1572 -1.88877,1.1622 -0.92931,0.003 -0.97805,0.0513 -1.4025,1.39785 -0.45301,1.43709 -0.68568,1.5737 -2.06654,1.21284 -0.56317,-0.14718 -0.56597,-0.0459 0.0605,-2.40088 1.29189,-4.85663 1.23272,-13.094763 -0.14314,-19.883555 -0.97019,-4.787128 -3.25179,-11.401769 -5.42138,-15.71687 l -1.83813,-3.655591 v -2.771923 c 0,-3.494352 -0.54271,-6.167904 -1.89962,-9.360669 -1.91784,-4.512605 -4.28928,-7.61834 -7.39283,-9.68158 -2.15571,-1.433115 -4.4873,-2.243914 -6.64818,-2.312004 -0.89429,-0.02818 -1.52082,-0.167304 -1.52135,-0.337447 -3.8e-4,-0.15912 0.24116,-0.991374 0.5364,-1.849499 1.98453,-5.768114 7.15593,-10.319311 14.6141,-12.861747 2.00192,-0.682445 4.32681,-1.018111 6.69054,-1.018543 z m -41.267244,9.46919 c 2.084964,0.05664 4.480254,0.667753 6.921544,1.826245 6.36877,3.022243 14.04451,9.9679 20.42407,18.481559 8.56414,11.42902 11.45318,16.770969 13.75575,25.437207 2.53193,9.529448 2.86621,15.33017 1.30173,22.573307 -0.61263,2.83631 -1.65007,4.87445 -4.1584,8.16953 -1.82388,2.39595 -3.30927,3.77335 -5.93711,5.50457 -2.6178,1.72463 -3.75027,2.16559 -6.71018,2.61173 v -5.2e-4 c -1.42996,0.21554 -3.08586,0.39246 -3.67988,0.39326 l -1.08004,0.002 0.8816,-1.75183 c 0.48488,-0.96341 0.8816,-1.89226 0.8816,-2.06448 0,-0.17221 0.42707,-0.72376 0.94878,-1.22525 1.67093,-1.60617 3.00687,-4.53777 3.01687,-6.6182 0.005,-1.15435 -0.76998,-3.35632 -1.47794,-4.19767 -0.48068,-0.57127 -0.7461,-1.31116 -0.92553,-2.57814 -0.62056,-4.381947 -1.55581,-6.830175 -3.83697,-10.046942 -1.34958,-1.903106 -4.36596,-4.743752 -6.50813,-6.129341 -1.18444,-0.766108 -1.50976,-1.122449 -1.52136,-1.666048 -0.0124,-0.582927 -0.25328,-0.796449 -1.53582,-1.360641 -0.83674,-0.368087 -1.98179,-0.8303 -2.54455,-1.026811 -1.15692,-0.403984 -1.49035,-1.012902 -1.49035,-2.722314 v -1.136365 l 1.38907,-0.166915 c 0.76398,-0.09176 1.776,-0.168198 2.24895,-0.169498 0.81709,-0.0022 0.8599,-0.05145 0.8599,-0.995805 0,-1.798657 -0.78893,-7.783891 -1.34875,-10.2309 -0.3022,-1.320913 -0.9624,-3.711093 -1.4671,-5.311821 -2.90233,-9.20515 -6.017357,-14.733383 -11.392585,-20.220471 l -3.000334,-3.062862 0.925008,-0.815971 c 1.200739,-1.059552 2.975193,-1.557323 5.060157,-1.500683 z m -8.460983,2.380216 2.793628,2.677356 c 6.737699,6.457978 11.544079,16.068917 13.844119,27.682548 0.49036,2.475918 0.97063,5.240928 1.06763,6.144328 l 0.17622,1.642277 -2.20658,0.07751 -2.2071,0.077 0.0904,1.936833 c 0.0496,1.065339 0.16847,2.477906 0.26407,3.138827 0.1699,1.17455 0.20648,1.213392 1.62884,1.718241 2.94163,1.044092 3.43958,1.324865 3.43958,1.939933 0,0.429347 0.42802,0.848036 1.61851,1.582849 5.36561,3.311847 9.10434,8.526409 10.27482,14.33092 0.29805,1.47806 0.54209,2.97387 0.54209,3.32383 0,0.39583 0.29091,0.85142 0.76998,1.20561 2.16442,1.60023 1.62979,5.6949 -1.11311,8.52609 -0.67634,0.69811 -1.4146,1.84632 -1.78491,2.77606 -0.6506,1.63348 -1.409,2.48987 -5.1847,5.85236 -1.99083,1.77296 -2.82075,2.27224 -4.55321,2.73833 -0.63279,0.17024 -1.62112,0.64998 -2.19624,1.0666 -0.57512,0.41662 -1.64094,0.88528 -2.36833,1.04128 -1.50844,0.32347 -4.348361,0.34652 -5.129924,0.0413 -0.296383,-0.11574 -1.104975,-0.0517 -1.852084,0.14728 -2.043073,0.54413 -4.009269,0.44057 -5.823934,-0.30696 -0.873124,-0.35967 -2.123281,-0.65584 -2.778125,-0.65784 -1.379388,-0.004 -3.731432,-1.00518 -4.85345,-2.0655 -0.79582,-0.75207 -2.025716,-2.9381 -2.025716,-3.6003 0,-0.21631 -0.561047,-0.64175 -1.246953,-0.94516 -2.421281,-1.07105 -3.330312,-2.55312 -3.326412,-5.42551 0.0021,-1.54036 -0.09828,-1.97353 -0.597379,-2.5709 -0.834072,-0.99829 -1.038153,-2.49051 -0.536918,-3.93 0.224509,-0.64477 0.410278,-1.7295 0.412378,-2.41019 0.0063,-2.01912 0.532246,-5.21605 1.213362,-7.37216 0.719645,-2.278088 3.030234,-6.15726 4.695321,-7.883246 1.270108,-1.316563 4.727957,-4.169135 5.801196,-4.785755 0.399261,-0.229392 0.72681,-0.554633 0.727604,-0.722953 0.0015,-0.265933 2.622206,-1.497503 4.830196,-2.269629 0.682757,-0.238759 0.7258,-0.346455 0.70125,-1.749764 -0.01439,-0.822507 -0.103688,-2.15036 -0.198438,-2.950724 l -0.172082,-1.455166 -3.172933,-0.132292 -3.17345,-0.132292 -0.221692,-1.322916 C 85.5172,76.398439 85.058669,74.255312 84.620158,72.363543 82.379469,62.697101 79.574736,55.509952 76.335392,51.133314 74.726563,48.959643 70.99156,45.036826 69.309981,43.754436 c -2.158692,-1.646238 -2.080385,-1.69707 3.582727,-2.32699 6.596379,-0.733728 8.679493,-0.93154 11.655103,-1.106909 z m -26.720849,1.402498 c 2.230756,0.0076 4.268945,0.969871 6.751009,2.951758 2.741104,2.188724 5.715499,5.214634 7.473446,7.602637 3.657844,4.96883 7.222155,15.068794 9.040275,25.616524 0.257108,1.491588 0.597906,2.722207 0.757576,2.734717 0.159671,0.01251 1.552818,0.004 3.095935,-0.01912 l 2.80603,-0.04238 0.170533,1.246952 c 0.289411,2.111494 0.297886,2.095579 -1.350306,2.605009 -1.614308,0.498959 -3.770312,1.626547 -3.770312,1.971973 0,0.113703 -0.852493,0.789258 -1.894458,1.5012 -5.477352,3.742507 -8.722748,8.533012 -10.120313,14.938624 -0.238122,1.09141 -0.519501,2.83601 -0.625284,3.87729 l -0.192237,1.8929 -1.204577,-0.45837 c -2.996633,-1.14077 -7.052308,-4.83684 -8.849589,-8.064627 -1.767535,-3.174372 -2.472601,-5.674776 -2.772441,-9.833506 -0.14615,-2.027113 -0.280816,-4.161814 -0.299206,-4.743896 l -0.03307,-1.058333 -0.255282,1.322916 c -0.140311,0.727604 -0.275253,3.882765 -0.299723,7.011459 l -0.04444,5.688541 -2.38125,0.614433 c -3.306635,0.853346 -8.234685,0.878816 -11.685592,0.05994 l -2.42521,-0.575665 -0.189652,-2.280481 c -0.10448,-1.254264 -0.126849,-3.300277 -0.04961,-4.547009 0.09722,-1.569123 0.07214,-1.941316 -0.08165,-1.208712 -0.12219,0.582083 -0.228795,3.052633 -0.237195,5.490104 l -0.0155,4.431766 h -1.5875 c -1.526708,0 -1.5875,-0.0258 -1.5875,-0.676957 0,-0.394846 -0.11321,-0.607236 -0.271301,-0.509526 -0.16519,0.10209 -0.203531,0.676556 -0.09819,1.470713 l 0.173116,1.30328 -1.952336,-0.002 c -3.732478,-0.004 -8.046606,-1.08759 -9.872782,-2.480483 -0.753423,-0.574661 -0.929829,-0.927221 -1.179257,-2.359543 -0.16126,-0.926022 -0.300341,-2.090557 -0.309541,-2.587956 -0.01609,-0.867706 -0.02745,-0.877697 -0.279053,-0.247013 -0.14834,0.371837 -0.185174,1.377347 -0.08475,2.315104 0.194516,1.816357 -0.01278,2.041229 -1.14825,1.245919 -0.461737,-0.323413 -0.590563,-0.678591 -0.599963,-1.653646 -0.01192,-1.232007 -0.02284,-1.246984 -1.389063,-1.903243 -1.715074,-0.823825 -1.767947,-1.119989 -0.851111,-4.791439 1.567694,-6.277791 3.503942,-11.011515 6.132959,-14.9934 1.905083,-2.885416 7.062619,-8.148953 9.097636,-9.284705 l 1.469161,-0.820105 0.468706,-2.445329 c 1.009093,-5.263974 2.761821,-8.340697 6.554638,-11.508341 3.266897,-2.728415 8.031762,-6.069412 10.14305,-7.112227 2.267043,-1.119746 4.118357,-1.691564 5.85339,-1.685686 z m 54.641626,4.245219 c 0.34768,-0.01212 0.82744,-0.0053 1.35496,0.02325 2.58971,0.139941 4.87433,1.282323 7.54631,3.773413 3.34095,3.11478 5.63297,7.211482 6.5381,11.686108 0.23852,1.17916 0.3966,2.690924 0.3514,3.359485 l -0.0822,1.21543 -1.25522,-1.942001 c -2.12995,-3.29487 -6.38493,-8.53612 -10.79779,-13.30048 -2.32027,-2.50509 -4.21886,-4.631483 -4.21886,-4.725293 0,-0.04691 0.21559,-0.07779 0.56327,-0.08992 z m -54.862285,54.271105 0.608749,0.83303 c 2.507578,3.43179 6.325296,6.88444 9.174117,8.29666 l 1.918229,0.95084 0.0057,1.61334 c 0.0039,1.07211 0.191928,2.01279 0.560173,2.80396 0.366247,0.78688 0.53949,1.64958 0.51108,2.54455 -0.08292,2.61171 1.350264,5.22817 3.696415,6.74843 0.743664,0.48187 1.515309,1.24192 1.738395,1.71204 1.222345,2.5759 4.238139,4.58265 7.213513,4.7997 1.136506,0.0829 2.264583,0.37369 3.208073,0.82683 1.293827,0.62138 1.748628,0.69537 4.101042,0.66817 1.455207,-0.0172 3.300678,-0.0262 4.101042,-0.0212 3.641027,0.0236 4.624997,-0.10022 6.069917,-0.76172 0.80802,-0.36993 1.70738,-0.88472 1.99884,-1.14411 0.29147,-0.25939 1.24458,-0.62378 2.1177,-0.80977 2.0895,-0.4451 3.39178,-1.13061 4.72633,-2.48874 2.12088,-2.15835 2.6065,-2.37592 5.43688,-2.43292 1.39521,-0.0281 2.68017,0.0635 2.85564,0.2036 0.32486,0.25935 -1.41965,1.89932 -4.58525,4.31033 -7.0254,5.35074 -12.08164,9.10288 -14.51901,10.77454 -3.037322,2.08315 -7.421684,4.6074 -9.328118,5.37021 l -1.112594,0.44494 -1.369426,-1.09038 c -1.994012,-1.58764 -2.220304,-1.59143 -4.629691,-0.0832 -8.399351,5.25785 -12.057977,7.17748 -15.002702,7.87188 -4.286166,1.01073 -6.749178,-0.0606 -9.645923,-4.19458 -0.819615,-1.16968 -2.358137,-3.05412 -3.418396,-4.18786 -1.060258,-1.13374 -1.927531,-2.17489 -1.927531,-2.31355 0,-0.13867 0.267891,-0.28992 0.595313,-0.33642 0.435312,-0.0618 0.144613,-0.26252 -1.082105,-0.7462 -2.367751,-0.93358 -3.602078,-2.14864 -3.977535,-3.91553 -0.163864,-0.77115 -0.298173,-1.74644 -0.298173,-2.16731 0,-0.66187 -0.20719,-0.8758 -1.533756,-1.58285 -1.695096,-0.90347 -2.682624,-2.15795 -3.225643,-4.09742 -0.443383,-1.58362 -0.26127,-2.09727 1.454691,-4.10621 2.140914,-2.50645 2.647296,-3.68197 2.624646,-6.0911 -0.01597,-1.69915 -0.154864,-2.27603 -0.965832,-4.01474 -1.07779,-2.31077 -2.039206,-3.78954 -4.186308,-6.43682 -1.538005,-1.89628 -3.692798,-5.07585 -3.692798,-5.44928 0,-0.11459 0.506017,-0.2451 1.124479,-0.2899 0.934188,-0.0676 1.110167,-0.16571 1.038697,-0.58033 -0.07065,-0.4099 0.02389,-0.46627 0.529166,-0.31626 0.338355,0.10045 2.415409,0.25226 4.616256,0.33744 4.337692,0.16789 7.944618,-0.15617 10.788489,-0.96945 z m 67.112185,22.99654 c 0.32326,-0.007 0.66488,0.003 1.03818,0.0232 3.11268,0.17166 5.3457,1.47531 7.14375,4.17081 0.7875,1.18055 0.58721,1.44421 -1.58078,2.08204 -1.10945,0.32641 -1.9654,0.64582 -1.9017,0.70952 0.0637,0.0637 1.1205,-0.0748 2.34818,-0.30748 6.79965,-1.28849 13.43805,1.97573 16.3282,8.02846 0.85951,1.80003 0.99676,2.35691 1.07746,4.37751 0.0508,1.2733 0.007,2.3151 -0.0972,2.3151 -0.10441,0 -0.59624,-0.35653 -1.09244,-0.7922 -2.02126,-1.7747 -4.79828,-2.64738 -8.42429,-2.64738 -8.52447,0 -16.5479,2.90975 -23.60683,8.56123 -4.24943,3.40217 -9.66762,9.15434 -13.61829,14.45752 -2.42744,3.25848 -9.392825,13.96672 -13.036409,20.04218 h 5.17e-4 c -1.369559,2.28366 -1.321451,2.25341 -3.188436,1.99265 -3.632932,-0.5074 -7.502025,-1.48178 -8.426359,-2.12235 -1.363677,-0.94503 -3.13004,-2.996 -3.888652,-4.51497 -1.271012,-2.54495 -0.994328,-4.59326 1.245919,-9.22476 l 1.173572,-2.42621 2.169376,1.1653 c 2.868925,1.54042 3.3526,1.48475 1.086756,-0.12454 -2.239711,-1.59071 -3.095138,-2.65995 -3.798735,-4.74855 -0.616254,-1.82931 -0.668373,-2.85359 -0.247013,-4.85448 0.770558,-3.65913 3.239358,-6.62117 7.907011,-9.48728 3.102017,-1.90474 3.769696,-2.25264 6.614583,-3.44681 5.989504,-2.51418 15.1148,-8.83244 26.32604,-18.22835 4.83358,-4.05092 6.1847,-4.94929 8.44755,-5.00021 z m 15.03784,19.16317 c 2.2402,0.01 4.01203,0.40371 5.66735,1.23042 1.80201,0.89997 2.79839,2.00268 6.4084,7.0931 2.95799,4.17102 4.53473,6.21891 6.30969,8.19434 0.32779,0.36481 0.56587,0.7394 0.52917,0.8325 -0.4596,1.16484 -7.07137,7.39391 -11.07685,10.43554 -12.18867,9.25567 -25.8272,14.70817 -40.98044,16.3835 -4.89707,0.54142 -16.66875,0.46219 -16.66875,-0.11214 0,-0.38242 5.72376,-9.70225 8.85786,-14.42289 5.31726,-8.00899 8.3079,-11.81081 12.81162,-16.28635 2.84152,-2.82373 5.03407,-4.73081 7.03781,-6.12159 6.95019,-4.82405 11.10317,-6.40315 18.69498,-7.10964 0.86379,-0.0804 1.66243,-0.12001 2.40916,-0.11679 z" /></g></svg>
