<?xml version="1.0" encoding="UTF-8" standalone="no"?>
<!-- Created with Inkscape (http://www.inkscape.org/) -->

<svg
   width="770"
   height="770"
   viewBox="0 0 203.72916 203.72917"
   version="1.1"
   id="svg5"
   xml:space="preserve"
   inkscape:version="1.4 (86a8ad7, 2024-10-11)"
   sodipodi:docname="mens-training.svg"
   xmlns:inkscape="http://www.inkscape.org/namespaces/inkscape"
   xmlns:sodipodi="http://sodipodi.sourceforge.net/DTD/sodipodi-0.dtd"
   xmlns="http://www.w3.org/2000/svg"
   xmlns:svg="http://www.w3.org/2000/svg"><sodipodi:namedview
     id="namedview7"
     pagecolor="#ffffff"
     bordercolor="#000000"
     borderopacity="0.25"
     inkscape:showpageshadow="2"
     inkscape:pageopacity="0.0"
     inkscape:pagecheckerboard="0"
     inkscape:deskcolor="#d1d1d1"
     inkscape:document-units="mm"
     showgrid="false"
     inkscape:zoom="0.99999999"
     inkscape:cx="320.5"
     inkscape:cy="531.5"
     inkscape:window-width="2560"
     inkscape:window-height="1494"
     inkscape:window-x="-11"
     inkscape:window-y="-11"
     inkscape:window-maximized="1"
     inkscape:current-layer="layer1" /><defs
     id="defs2"><clipPath
       id="clip0_2002_448"><rect
         width="93"
         height="94"
         fill="white"
         transform="translate(0 0.5)"
         id="rect18" /></clipPath></defs><g
     inkscape:label="Слой 1"
     inkscape:groupmode="layer"
     id="layer1"><path
       id="path16724"
       style="fill:#000000;fill-opacity:1;stroke:#000000;stroke-width:0;stroke-linecap:round;paint-order:fill markers stroke"
       d="M 101.81704 1.2464355 C 46.289409 1.2464315 1.2753693 46.260484 1.2753743 101.7881 C 1.2753743 157.31573 46.289412 202.32977 101.81704 202.32977 C 157.34467 202.32978 202.35871 157.31573 202.35871 101.7881 C 202.35871 46.260482 157.34467 1.2464295 101.81704 1.2464355 z M 42.029993 80.298458 L 64.044153 80.298458 L 64.044153 121.9569 L 42.029993 121.9569 L 42.029993 80.298458 z M 137.27741 80.298458 L 159.29105 80.298458 L 159.29105 121.9569 L 137.27741 121.9569 L 137.27741 80.298458 z M 29.978532 96.022046 L 39.098389 96.022046 L 39.098389 107.24668 L 29.978532 107.24668 L 29.978532 96.022046 z M 161.76222 96.022046 L 170.88208 96.022046 L 170.88208 107.24668 L 161.76222 107.24668 L 161.76222 96.022046 z M 66.862585 96.157955 L 134.31635 96.157955 L 134.31635 107.11077 L 66.862585 107.11077 L 66.862585 96.157955 z " /><circle
       id="path564"
       style="fill:#000000;stroke:#000000;stroke-width:0.264583"
       cx="-375.22894"
       cy="95.704185"
       r="0.047444247" /></g></svg>
