<?xml version="1.0" encoding="UTF-8" standalone="no"?>
<!-- Created with Inkscape (http://www.inkscape.org/) -->

<svg
   width="200"
   height="200"
   viewBox="0 0 52.916665 52.916668"
   version="1.1"
   id="svg5"
   xml:space="preserve"
   inkscape:version="1.4 (86a8ad7, 2024-10-11)"
   sodipodi:docname="neuro.svg"
   xmlns:inkscape="http://www.inkscape.org/namespaces/inkscape"
   xmlns:sodipodi="http://sodipodi.sourceforge.net/DTD/sodipodi-0.dtd"
   xmlns:xlink="http://www.w3.org/1999/xlink"
   xmlns="http://www.w3.org/2000/svg"
   xmlns:svg="http://www.w3.org/2000/svg"><sodipodi:namedview
     id="namedview7"
     pagecolor="#ffffff"
     bordercolor="#000000"
     borderopacity="0.25"
     inkscape:showpageshadow="2"
     inkscape:pageopacity="0.0"
     inkscape:pagecheckerboard="0"
     inkscape:deskcolor="#d1d1d1"
     inkscape:document-units="mm"
     showgrid="false"
     inkscape:zoom="2.8284271"
     inkscape:cx="101.6466"
     inkscape:cy="97.93429"
     inkscape:window-width="1920"
     inkscape:window-height="1010"
     inkscape:window-x="-6"
     inkscape:window-y="-6"
     inkscape:window-maximized="1"
     inkscape:current-layer="layer1"
     showguides="false" /><defs
     id="defs2"><linearGradient
       id="linearGradient2"
       inkscape:collect="always"><stop
         style="stop-color:#ffffff;stop-opacity:0.00584795;"
         offset="0"
         id="stop3" /><stop
         style="stop-color:#ffffff;stop-opacity:1;"
         offset="1"
         id="stop2" /></linearGradient><linearGradient
       inkscape:collect="always"
       xlink:href="#linearGradient2"
       id="linearGradient3"
       x1="25.730728"
       y1="12.197668"
       x2="25.730728"
       y2="29.924749"
       gradientUnits="userSpaceOnUse" /></defs><g
     inkscape:label="Слой 1"
     inkscape:groupmode="layer"
     id="layer1"><path
       id="path23"
       style="fill:#000000;fill-opacity:1;stroke:#ffffff;stroke-width:0;stroke-dasharray:none;stroke-opacity:0.300509"
       d="M -26.458333 0.65784098 A 25.800314 25.800312 0 0 1 -0.65784098 26.458333 A 25.800314 25.800312 0 0 1 -26.458333 52.258826 A 25.800314 25.800312 0 0 1 -52.258826 26.458333 A 25.800314 25.800312 0 0 1 -26.458333 0.65784098 z M -24.355619 14.027568 C -24.562934 14.027568 -24.728213 14.030875 -24.851196 14.037903 C -24.974179 14.041417 -25.068654 14.054027 -25.135417 14.07511 C -25.205693 14.092679 -25.255101 14.120691 -25.283211 14.159342 C -25.314835 14.197994 -25.341193 14.25071 -25.362276 14.317472 L -27.470675 20.363098 C -27.51284 20.489595 -27.539198 20.589548 -27.54974 20.663338 C -27.560281 20.737128 -27.546017 20.793152 -27.507365 20.831803 C -27.468713 20.866941 -27.400079 20.888338 -27.301693 20.895365 C -27.203306 20.905907 -27.068209 20.910868 -26.896033 20.910868 C -26.716829 20.910868 -26.576253 20.907561 -26.474353 20.900533 C -26.375967 20.897019 -26.300201 20.888233 -26.247493 20.874178 C -26.194786 20.856609 -26.157989 20.833559 -26.136906 20.805448 C -26.115823 20.777338 -26.098251 20.74054 -26.084196 20.694861 L -25.625826 19.324402 L -23.064225 19.324402 L -22.63221 20.658171 C -22.618155 20.707364 -22.598413 20.74964 -22.573816 20.784778 C -22.552733 20.816402 -22.515935 20.84276 -22.463228 20.863843 C -22.414035 20.881412 -22.342094 20.893505 -22.247221 20.900533 C -22.155862 20.907561 -22.034512 20.910868 -21.883419 20.910868 C -21.721784 20.910868 -21.595473 20.905907 -21.504114 20.895365 C -21.412755 20.884824 -21.349599 20.86012 -21.314461 20.821468 C -21.279323 20.779302 -21.266713 20.721108 -21.277254 20.647319 C -21.287796 20.573529 -21.314154 20.475229 -21.356319 20.352246 L -23.45955 14.301453 C -23.480633 14.241718 -23.505337 14.19448 -23.533447 14.159342 C -23.561558 14.120691 -23.605488 14.092679 -23.665222 14.07511 C -23.728471 14.054027 -23.81416 14.041417 -23.923088 14.037903 C -24.032015 14.030875 -24.176415 14.027568 -24.355619 14.027568 z M -29.120186 14.027568 C -29.257225 14.027568 -29.369788 14.032529 -29.457633 14.04307 C -29.545479 14.053612 -29.615766 14.067876 -29.668473 14.085445 C -29.72118 14.103014 -29.757978 14.126064 -29.779061 14.154175 C -29.803657 14.182285 -29.815751 14.213605 -29.815751 14.248743 L -29.815751 20.689693 C -29.815751 20.724831 -29.803657 20.756667 -29.779061 20.784778 C -29.757978 20.812888 -29.72118 20.835422 -29.668473 20.852991 C -29.615766 20.87056 -29.545479 20.884824 -29.457633 20.895365 C -29.369788 20.905907 -29.257225 20.910868 -29.120186 20.910868 C -28.986662 20.910868 -28.874098 20.905907 -28.782739 20.895365 C -28.694894 20.884824 -28.624606 20.87056 -28.571899 20.852991 C -28.519192 20.835422 -28.480741 20.812888 -28.456144 20.784778 C -28.435061 20.756667 -28.424622 20.724831 -28.424622 20.689693 L -28.424622 14.248743 C -28.424622 14.213605 -28.435061 14.182285 -28.456144 14.154175 C -28.480741 14.126064 -28.519192 14.103014 -28.571899 14.085445 C -28.62812 14.067876 -28.700579 14.053612 -28.788424 14.04307 C -28.876269 14.032529 -28.986662 14.027568 -29.120186 14.027568 z M -24.334432 15.360819 L -23.37015 18.259867 L -25.304399 18.259867 L -24.3396 15.360819 L -24.334432 15.360819 z M -26.127604 30.018323 A 5.5022087 3.5398829 0 0 0 -31.629594 33.558158 A 5.5022087 3.5398829 0 0 0 -26.127604 37.097994 A 5.5022087 3.5398829 0 0 0 -20.625614 33.558158 A 5.5022087 3.5398829 0 0 0 -26.127604 30.018323 z "
       transform="scale(-1,1)" /><ellipse
       style="fill:#999999;fill-opacity:0.41086587;stroke:#ffffff;stroke-width:0;stroke-dasharray:none;stroke-opacity:1"
       id="path1-0"
       cx="26.1276"
       cy="33.557987"
       rx="4.6603098"
       ry="2.8149142" /><circle
       id="path562"
       style="fill:#000000;stroke:#000000;stroke-width:0.264583"
       cx="-429.3226"
       cy="80.52858"
       r="0.047444247" /><circle
       id="path564"
       style="fill:#000000;stroke:#000000;stroke-width:0.264583"
       cx="-375.22894"
       cy="95.704185"
       r="0.047444247" /><path
       style="fill:url(#linearGradient3);stroke:#ffffff;stroke-width:0;stroke-dasharray:none;stroke-opacity:1"
       d="M 23.201825,34.198084 16.867187,11.575521 c 0,0 3.518311,-3.7482444 8.797397,-4.1671877 C 28.883287,7.1529 34.59427,10.781771 34.59427,10.781771 l -5.883655,23.431674 c 0,0 -1.389532,1.003565 -2.625771,0.957453 -2.068636,-0.07716 -2.883019,-0.972814 -2.883019,-0.972814 z"
       id="path2"
       sodipodi:nodetypes="ccsccsc" /></g></svg>
