<?xml version="1.0" encoding="UTF-8" standalone="no"?>
<!-- Created with Inkscape (http://www.inkscape.org/) -->

<svg
   width="512"
   height="512"
   viewBox="0 0 135.46666 135.46668"
   version="1.1"
   id="svg1"
   xml:space="preserve"
   inkscape:version="1.4 (86a8ad7, 2024-10-11)"
   sodipodi:docname="NFT.svg"
   xmlns:inkscape="http://www.inkscape.org/namespaces/inkscape"
   xmlns:sodipodi="http://sodipodi.sourceforge.net/DTD/sodipodi-0.dtd"
   xmlns="http://www.w3.org/2000/svg"
   xmlns:svg="http://www.w3.org/2000/svg"><sodipodi:namedview
     id="namedview1"
     pagecolor="#ffffff"
     bordercolor="#000000"
     borderopacity="0.25"
     inkscape:showpageshadow="2"
     inkscape:pageopacity="0.0"
     inkscape:pagecheckerboard="0"
     inkscape:deskcolor="#d1d1d1"
     inkscape:document-units="mm"
     inkscape:zoom="1.2245804"
     inkscape:cx="116.77469"
     inkscape:cy="242.53206"
     inkscape:window-width="1920"
     inkscape:window-height="1010"
     inkscape:window-x="-6"
     inkscape:window-y="-6"
     inkscape:window-maximized="1"
     inkscape:current-layer="layer1" /><defs
     id="defs1" /><g
     inkscape:label="Слой 1"
     inkscape:groupmode="layer"
     id="layer1"><path
       style="fill:#ffffff;fill-opacity:1;stroke-width:0.389705"
       d="m 69.511119,62.643628 c -0.19597,-0.01831 -0.4676,0.003 -0.81442,0.06408 -0.331,0.05655 -0.74468,0.15507 -1.24282,0.295589 -0.41779,0.117859 -0.75235,0.224607 -1.00304,0.319877 -0.25068,0.09527 -0.44858,0.193918 -0.59324,0.296106 -0.13178,0.08628 -0.22007,0.173066 -0.2651,0.259416 -0.0323,0.07045 -0.0437,0.153063 -0.0341,0.248563 l 0.48524,3.564641 c -1.36592,0.508072 -2.55717,1.082971 -3.57291,1.725476 -1.00288,0.626601 -1.80817,1.307221 -2.41587,2.043286 -0.6077,0.736065 -1.01309,1.513901 -1.21595,2.332157 -0.20609,0.806887 -0.18888,1.637032 0.0517,2.489771 0.26622,0.943696 0.68756,1.696232 1.26246,2.25826 0.58775,0.546126 1.27569,0.958891 2.06602,1.239201 0.79033,0.280308 1.64091,0.464724 2.55023,0.551904 0.92539,0.08263 1.85597,0.120722 2.79105,0.114722 0.93507,-0.006 1.84237,-0.01733 2.72283,-0.03256 0.89331,-0.03104 1.70745,-0.0023 2.44326,0.08475 0.7326,0.07565 1.34168,0.235369 1.82676,0.47904 0.50115,0.239139 0.8284,0.631436 0.98237,1.177189 0.23093,0.818628 -0.0406,1.607091 -0.81545,2.365747 -0.77801,0.747284 -2.10678,1.386317 -3.98684,1.916679 -1.20517,0.339977 -2.28181,0.551287 -3.22978,0.634587 -0.9319,0.07878 -1.73972,0.104868 -2.42414,0.077 -0.68442,-0.02788 -1.25187,-0.07042 -1.7017,-0.127641 -0.44984,-0.05723 -0.77968,-0.05738 -0.98857,0.0015 -0.16069,0.04533 -0.29729,0.115136 -0.4098,0.208256 -0.0997,0.07721 -0.17053,0.19539 -0.21239,0.354501 -0.042,0.159103 -0.0431,0.368148 -0.005,0.627352 0.0384,0.259203 0.1116,0.581841 0.22066,0.968416 0.14112,0.500272 0.28927,0.869617 0.44338,1.108459 0.15091,0.227473 0.33356,0.384719 0.54881,0.471289 0.22811,0.07068 0.53817,0.124511 0.93017,0.161231 0.40808,0.03233 0.88086,0.04648 1.41749,0.04237 0.53342,-0.01545 1.12154,-0.05306 1.76423,-0.111622 0.63949,-0.06993 1.31396,-0.167855 2.02417,-0.294555 l 0.47025,3.604948 c 0.003,0.134136 0.0438,0.245089 0.12093,0.333829 0.0931,0.08421 0.23611,0.13036 0.42891,0.13746 0.196,0.01835 0.45091,8.6e-4 0.76584,-0.05116 0.331,-0.05655 0.75394,-0.157256 1.26814,-0.302307 0.40173,-0.113324 0.72662,-0.223058 0.9741,-0.329696 0.26676,-0.09979 0.46611,-0.192266 0.5979,-0.278536 0.14787,-0.09081 0.23563,-0.177595 0.26458,-0.259415 0.0449,-0.08635 0.0633,-0.176835 0.0537,-0.272335 l -0.52399,-3.79305 c 1.51695,-0.526129 2.8627,-1.138412 4.03593,-1.837614 1.17322,-0.699205 2.12907,-1.460206 2.86855,-2.282548 0.73949,-0.822341 1.23941,-1.693801 1.50017,-2.614311 0.27681,-0.925042 0.2779,-1.876282 0.002,-2.854089 -0.2598,-0.920957 -0.68256,-1.649091 -1.26711,-2.183846 -0.58775,-0.546125 -1.27528,-0.953724 -2.0624,-1.222665 -0.79033,-0.280309 -1.65384,-0.453135 -2.59209,-0.519865 -0.92539,-0.08263 -1.86419,-0.11912 -2.81533,-0.10852 -0.93508,0.006 -1.85882,0.02074 -2.77141,0.04496 -0.89653,0.01968 -1.71889,-0.0059 -2.46755,-0.077 -0.7326,-0.07565 -1.35082,-0.238866 -1.85518,-0.489376 -0.50436,-0.250511 -0.83214,-0.643325 -0.98289,-1.177706 -0.0962,-0.341095 -0.0966,-0.678233 0,-1.012341 0.0966,-0.334109 0.30155,-0.655883 0.6134,-0.964799 0.31185,-0.308917 0.74856,-0.603281 1.31103,-0.884701 0.56248,-0.28142 1.26145,-0.540463 2.09703,-0.77618 0.91593,-0.258382 1.77242,-0.420518 2.56935,-0.485758 0.81301,-0.06979 1.53245,-0.100518 2.15904,-0.09302 0.64266,0.0028 1.18646,0.0208 1.62988,0.05529 0.44342,0.03447 0.76882,0.02276 0.97772,-0.03617 0.11248,-0.03172 0.20524,-0.07551 0.27595,-0.132291 0.0675,-0.06814 0.11611,-0.168931 0.14831,-0.300757 0.029,-0.143201 0.0207,-0.330311 -0.0274,-0.56224 -0.032,-0.236463 -0.0985,-0.531719 -0.19792,-0.884184 -0.0738,-0.261504 -0.14645,-0.485621 -0.21704,-0.674377 -0.0738,-0.200123 -0.15309,-0.361886 -0.23978,-0.484725 -0.0738,-0.138739 -0.16374,-0.242802 -0.26975,-0.311092 -0.0931,-0.08418 -0.22505,-0.151368 -0.39533,-0.201538 -0.15741,-0.06606 -0.42934,-0.10596 -0.81493,-0.11989 -0.3888,-0.02525 -0.81472,-0.02781 -1.27745,-0.0078 -0.46593,0.0087 -0.95839,0.04396 -1.47897,0.104903 -0.52059,0.06094 -1.01261,0.131467 -1.47537,0.212907 l -0.42684,-3.358968 c -0.0353,-0.125068 -0.0919,-0.232181 -0.16899,-0.320911 -0.077,-0.08862 -0.21214,-0.136484 -0.40462,-0.14366 z"
       id="path8" /><path
       id="path6"
       style="fill:#000000;fill-opacity:1;stroke-width:0.389705"
       d="M 67.733333,0 C 30.325151,-3.9999996e-6 0,30.325243 0,67.733333 c 0,37.408087 30.325151,67.733337 67.733333,67.733337 37.408187,0 67.733857,-30.32525 67.733847,-67.733337 C 135.46719,30.325244 105.14152,-9.9999961e-7 67.733333,0 Z m 6.629053,30.169218 c 1.17045,0.05985 2.082897,0.459327 2.437577,1.416968 1.41872,3.830547 1.560629,3.688147 1.560629,3.688147 0,0 8.656778,-0.874425 2.270662,4.681884 -6.403313,5.571272 -5.574499,7.067446 -5.396226,7.119962 3.218815,0.948211 8.351091,6.307089 9.464712,7.251254 13.3633,11.329794 21.66555,32.981619 2.237589,47.772797 -1.46173,1.11288 -11.306264,3.32935 -14.028084,3.86126 -30.114327,5.88491 -38.394178,-23.433864 -24.837244,-47.561954 2.963304,-3.77686 10.175201,-6.802746 7.297746,-9.010303 -1.472289,-1.129526 -4.75284,-3.08056 -11.05824,-7.730794 1.27685,-7.802984 11.774992,-7.093107 11.774992,-7.093107 3.06042,-4.896429 7.675823,-3.533925 8.938473,-1.702738 0,0 5.826074,-2.872934 9.337414,-2.693376 z"
       sodipodi:nodetypes="ssssssscsscsccscccs" /><path
       style="fill:#241c1c;stroke-width:0.264583"
       d="M 91.055554,66.152778 Z"
       id="path3" /><path
       style="fill:#000000;fill-opacity:1;stroke-width:0.338714"
       id="path9"
       d="m 52.019676,53.486794 c 0.275418,-0.133599 0.545197,-0.303723 0.826254,-0.400792 1.319606,-0.455759 2.679078,-0.682224 4.015554,-0.925419 2.421679,-0.440665 2.558847,-0.423115 4.975019,-0.822001 0.780542,-0.128859 1.560467,-0.26755 2.340703,-0.401326 0.709591,-0.127772 1.419703,-0.248041 2.128779,-0.383313 1.821751,-0.347527 3.637542,-0.765948 5.444992,-1.277377 4.206822,-1.190356 -0.697293,0.119301 3.358005,-0.946939 2.176383,-0.618664 4.357182,-1.194734 6.539235,-1.756792 0.35932,-0.07455 0.715698,-0.180221 1.072422,-0.281519 0,0 -3.170645,-3.582193 -3.170645,-3.582193 v 0 c -0.292616,0.168129 -0.586359,0.331063 -0.884092,0.473623 -1.970304,0.965619 -3.975621,1.727819 -5.996884,2.348023 -2.785163,0.898559 -0.341154,0.133344 -3.315433,0.992424 -0.554873,0.160265 -1.107932,0.33707 -1.662678,0.4985 -1.859669,0.541168 -3.724675,1.032027 -5.59149,1.501913 -0.754039,0.161904 -1.507059,0.337117 -2.262119,0.485721 -1.755476,0.345499 -3.237169,0.593324 -5.007329,0.772295 -1.674511,0.169301 -3.022217,0.254229 -4.684972,0.12275 -0.441661,-0.03491 -0.879764,-0.1474 -1.319644,-0.221093 z" /></g></svg>
