<?xml version="1.0" encoding="UTF-8" standalone="no"?>
<!-- Created with Inkscape (http://www.inkscape.org/) -->

<svg
   width="512"
   height="415"
   viewBox="0 0 135.46666 109.80208"
   version="1.1"
   id="svg5"
   xml:space="preserve"
   inkscape:version="1.2.2 (732a01da63, 2022-12-09)"
   sodipodi:docname="phones.svg"
   xmlns:inkscape="http://www.inkscape.org/namespaces/inkscape"
   xmlns:sodipodi="http://sodipodi.sourceforge.net/DTD/sodipodi-0.dtd"
   xmlns="http://www.w3.org/2000/svg"
   xmlns:svg="http://www.w3.org/2000/svg"><sodipodi:namedview
     id="namedview7"
     pagecolor="#ffffff"
     bordercolor="#000000"
     borderopacity="0.25"
     inkscape:showpageshadow="2"
     inkscape:pageopacity="0.0"
     inkscape:pagecheckerboard="0"
     inkscape:deskcolor="#d1d1d1"
     inkscape:document-units="mm"
     showgrid="false"
     inkscape:zoom="0.76435185"
     inkscape:cx="361.7444"
     inkscape:cy="561.25984"
     inkscape:window-width="3360"
     inkscape:window-height="1850"
     inkscape:window-x="3348"
     inkscape:window-y="-12"
     inkscape:window-maximized="1"
     inkscape:current-layer="layer1" /><defs
     id="defs2" /><g
     inkscape:label="Слой 1"
     inkscape:groupmode="layer"
     id="layer1"><path
       style="fill:#000000;stroke-width:0.264583"
       d="M 13.400241,109.49933 C 6.8813709,108.0567 1.8104804,102.90794 0.45752337,96.35786 c -0.608657,-2.9467 -0.610568,-20.71107 -0.0025,-23.6904 C 1.5229664,67.43448 5.1097439,62.92077 9.9728179,60.68997 11.525742,59.97762 14.967182,59.11872 16.268542,59.11872 h 0.641604 l 0.134148,-6.94531 C 17.220262,43.06292 17.964976,38.77274 20.51793,32.1623 24.364241,22.20293 31.709449,13.3664 40.944637,7.58828 49.139278,2.46119 57.84055,0 67.772161,0 74.570794,0 79.512994,0.87804 85.679704,3.18148 98.967342,8.1448 109.93295,18.9737 115.02639,32.1623 c 2.55295,6.61044 3.29767,10.90062 3.47364,20.01111 l 0.13414,6.94531 h 0.64161 c 1.30136,0 4.7428,0.8589 6.29572,1.57125 4.86308,2.2308 8.44985,6.74451 9.5178,11.97749 0.60603,2.96958 0.60603,20.73293 0,23.70251 -1.36697,6.69822 -6.52275,11.78599 -13.34423,13.1682 -5.03866,1.02096 -8.95162,-0.65205 -10.81413,-4.62366 L 110.23778,103.43642 110.083,74.46455 C 109.91865,43.70992 109.96568,44.85643 108.66112,39.80414 106.83777,32.74263 103.01369,26.12987 97.653992,20.77017 85.016764,8.13294 66.18007,4.82525 49.775267,12.36274 38.771672,17.41854 29.925051,28.0232 26.883097,39.80414 25.578542,44.85643 25.625574,43.70992 25.46127,74.46455 l -0.15478,28.97187 -0.693159,1.47809 c -1.878603,4.00593 -6.075213,5.72184 -11.21309,4.58482 z"
       id="path309" /></g></svg>
