<?xml version="1.0" encoding="UTF-8" standalone="no"?>
<!-- Created with Inkscape (http://www.inkscape.org/) -->

<svg
   version="1.1"
   id="svg13839"
   width="512"
   height="512"
   viewBox="0 0 512 512"
   sodipodi:docname="Portfolio.svg"
   inkscape:version="1.2.2 (732a01da63, 2022-12-09)"
   xmlns:inkscape="http://www.inkscape.org/namespaces/inkscape"
   xmlns:sodipodi="http://sodipodi.sourceforge.net/DTD/sodipodi-0.dtd"
   xmlns="http://www.w3.org/2000/svg"
   xmlns:svg="http://www.w3.org/2000/svg">
  <defs
     id="defs13843" />
  <sodipodi:namedview
     id="namedview13841"
     pagecolor="#ffffff"
     bordercolor="#000000"
     borderopacity="0.25"
     inkscape:showpageshadow="2"
     inkscape:pageopacity="0.0"
     inkscape:pagecheckerboard="0"
     inkscape:deskcolor="#d1d1d1"
     showgrid="false"
     inkscape:zoom="1.6757812"
     inkscape:cx="240.78322"
     inkscape:cy="256"
     inkscape:window-width="3360"
     inkscape:window-height="1850"
     inkscape:window-x="3348"
     inkscape:window-y="-12"
     inkscape:window-maximized="1"
     inkscape:current-layer="g13845" />
  <g
     inkscape:groupmode="layer"
     inkscape:label="Image"
     id="g13845">
    <path
       style="fill:#000000;fill-opacity:1;stroke-width:1.00177"
       d="M 232.4565,511.32618 C 181.07978,506.02953 133.17357,486.44477 94.201061,454.80535 89.241899,450.7793 79.316866,441.46516 72.145426,434.10725 51.678622,413.10827 38.058969,393.72472 25.539919,367.7781 13.634903,343.10407 6.5156707,320.31143 2.3446244,293.51692 c -3.12616586,-20.0823 -3.12616586,-55.04309 0,-75.12539 C 6.6613198,190.66137 13.756929,168.32307 26.52585,142.26447 39.923635,114.9225 54.862315,94.495646 77.815111,72.132532 98.817841,51.669378 118.20486,38.05216 144.15613,25.535359 168.83456,13.632463 191.63128,6.514513 218.43059,2.3442126 c 20.08589,-3.12561679 55.05293,-3.12561679 75.13882,0 43.05697,6.7001929 82.6938,23.3850204 117.50546,49.4630554 11.93687,8.942115 33.95188,30.236115 43.81182,42.376958 16.46618,20.275294 33.07005,49.444084 41.95762,73.708874 5.11761,13.97208 10.31305,34.4514 12.81107,50.49843 3.12616,20.0823 3.12616,55.04309 0,75.12539 -6.7014,43.04927 -23.38922,82.67902 -49.47191,117.48445 -8.94371,11.93473 -30.24153,33.9458 -42.38454,43.80398 -20.28811,16.4707 -49.45119,33.06313 -73.75135,41.96108 -13.88056,5.08262 -34.79062,10.37369 -50.16903,12.69472 -15.43184,2.3291 -47.48124,3.30225 -61.42205,1.86503 z M 350.67492,349.42611 c 14.8702,-3.6828 28.35157,-14.33061 34.86179,-27.53444 8.17278,-16.57578 8.71873,-22.72576 8.71873,-98.21509 V 160.7954 h -14.02592 -14.02591 l -0.0198,63.35575 c -0.011,35.3051 -0.44793,66.31476 -0.98673,70.03904 -1.62589,11.23847 -4.55816,17.67325 -10.90052,23.92082 -6.74334,6.64256 -11.94254,8.50298 -23.40023,8.37327 -6.4982,-0.0735 -8.68758,-0.56391 -13.49641,-3.0228 -7.07168,-3.61594 -12.46676,-10.34816 -15.56846,-19.42701 -2.19012,-6.41054 -2.23231,-7.56035 -2.73856,-74.62455 l -0.51418,-68.11368 -13.77546,-0.27869 -13.77545,-0.27868 0.0198,63.88485 c 0.0232,74.76514 0.55083,80.80666 8.47193,97.01059 10.22926,20.92565 30.81817,31.34515 58.63224,29.6722 3.58162,-0.21542 9.21703,-1.0616 12.52314,-1.8804 z M 240.97223,336.08797 v -12.02006 h -47.58792 -47.58792 v -29.04848 -29.04848 h 35.06478 35.06479 v -12.5209 -12.5209 H 180.86117 145.79639 V 213.38317 185.8372 h 47.58792 47.58792 V 173.3163 160.7954 H 179.3584 117.74456 v 93.65632 93.65632 h 61.61384 61.61383 z"
       id="path13973" />
  </g>
</svg>
