<?xml version="1.0" encoding="UTF-8" standalone="no"?>
<!-- Created with Inkscape (http://www.inkscape.org/) -->

<svg
   version="1.1"
   id="svg16913"
   width="520"
   height="520"
   viewBox="0 0 520 520"
   sodipodi:docname="Relvise.svg"
   inkscape:version="1.2.2 (732a01da63, 2022-12-09)"
   xmlns:inkscape="http://www.inkscape.org/namespaces/inkscape"
   xmlns:sodipodi="http://sodipodi.sourceforge.net/DTD/sodipodi-0.dtd"
   xmlns="http://www.w3.org/2000/svg"
   xmlns:svg="http://www.w3.org/2000/svg">
  <defs
     id="defs16917" />
  <sodipodi:namedview
     id="namedview16915"
     pagecolor="#ffffff"
     bordercolor="#000000"
     borderopacity="0.25"
     inkscape:showpageshadow="2"
     inkscape:pageopacity="0.0"
     inkscape:pagecheckerboard="0"
     inkscape:deskcolor="#d1d1d1"
     showgrid="false"
     inkscape:zoom="1.6757812"
     inkscape:cx="197.22145"
     inkscape:cy="235.71096"
     inkscape:window-width="3360"
     inkscape:window-height="1850"
     inkscape:window-x="3348"
     inkscape:window-y="-12"
     inkscape:window-maximized="1"
     inkscape:current-layer="g16919" />
  <g
     inkscape:groupmode="layer"
     inkscape:label="Image"
     id="g16919">
    <path
       style="fill:#000000"
       id="path17053"
       d="" />
    <path
       style="fill:#000000"
       id="path17051"
       d="" />
    <path
       style="fill:#000000"
       id="path17049"
       d="" />
    <path
       style="fill:#000000"
       id="path17047"
       d="" />
    <path
       id="path17055"
       style="fill:#000000;fill-opacity:1;stroke-width:2.24439;stroke-linecap:round;paint-order:fill markers stroke"
       d="M 260,0 A 260,260 0 0 0 0,260 260,260 0 0 0 260,520 260,260 0 0 0 520,260 260,260 0 0 0 260,0 Z M 149.19141,126.64258 c 32.80679,0 65.6236,0.006 98.42382,0.002 8.71693,0.0403 17.45335,-0.15128 26.14844,0.57031 1.00139,0.076 2.17665,0.19645 3.0625,0.27735 9.30665,0.94652 18.53857,2.77478 27.39844,5.72461 0.52072,0.17059 1.34493,0.46761 1.86523,0.64062 9.49468,3.34896 18.49944,8.09159 26.38672,14.24414 1.8137,1.43631 3.79486,3.13103 5.53906,4.81055 10.62846,10.09819 18.04139,23.18906 21.79493,37.12891 0.36442,1.31659 0.72292,2.78687 1.00586,4.02539 1.18383,5.24776 1.9379,10.58558 2.30468,15.94531 0.89635,13.90891 -0.112,28.08926 -4.4414,41.43555 -4.99821,15.67145 -15.35321,29.72532 -29.20899,39.12695 -9.3907,6.22083 -19.41314,11.46948 -28.90039,17.54492 16.12583,26.68423 32.25407,53.36711 48.38086,80.05078 H 304.9668 c -15.77181,-26.26188 -31.54634,-52.5223 -47.31641,-78.78515 h -61.21484 v 78.78515 h -47.24414 z m 103.62304,29.63867 -56.3789,0.006 v 125.24219 c 17.70166,0.005 35.40381,5.1e-4 53.10547,-0.0215 9.50166,0.19085 19.16867,-0.512 28.19531,-3.58984 9.11788,-2.98958 17.35428,-8.49061 23.41601,-15.76563 7.54148,-8.94624 11.82887,-20.16072 13.4336,-31.54492 1.73313,-12.95355 0.80849,-26.42802 -3.99414,-38.70312 -4.91608,-12.85497 -14.91655,-23.90528 -27.69141,-29.82422 -9.31927,-4.40737 -19.81507,-5.79935 -30.08594,-5.79883 z" />
  </g>
</svg>
