<?xml version="1.0" encoding="UTF-8" standalone="no"?>
<!-- Created with Inkscape (http://www.inkscape.org/) -->

<svg
   width="770"
   height="770"
   viewBox="0 0 203.72916 203.72917"
   version="1.1"
   id="svg5"
   xml:space="preserve"
   inkscape:version="1.2.2 (732a01da63, 2022-12-09)"
   sodipodi:docname="sushi.svg"
   xmlns:inkscape="http://www.inkscape.org/namespaces/inkscape"
   xmlns:sodipodi="http://sodipodi.sourceforge.net/DTD/sodipodi-0.dtd"
   xmlns="http://www.w3.org/2000/svg"
   xmlns:svg="http://www.w3.org/2000/svg"><sodipodi:namedview
     id="namedview7"
     pagecolor="#ffffff"
     bordercolor="#000000"
     borderopacity="0.25"
     inkscape:showpageshadow="2"
     inkscape:pageopacity="0.0"
     inkscape:pagecheckerboard="0"
     inkscape:deskcolor="#d1d1d1"
     inkscape:document-units="mm"
     showgrid="false"
     inkscape:zoom="1.5287037"
     inkscape:cx="339.83041"
     inkscape:cy="374.17323"
     inkscape:window-width="3360"
     inkscape:window-height="1850"
     inkscape:window-x="3348"
     inkscape:window-y="-12"
     inkscape:window-maximized="1"
     inkscape:current-layer="layer1" /><defs
     id="defs2" /><g
     inkscape:label="Слой 1"
     inkscape:groupmode="layer"
     id="layer1"><circle
       style="fill:#000000;fill-opacity:1;stroke:#000000;stroke-width:0;stroke-linecap:round;paint-order:fill markers stroke"
       id="path16724"
       cx="102.00589"
       cy="102.04887"
       r="100.54166" /><path
       style="fill:none;stroke:#000000;stroke-width:2.91042;stroke-linecap:round;paint-order:fill markers stroke"
       id="path493"
       d="m 74.697979,66.010397 c 7.32452,-1.57676 14.8362,-1.97834 22.28966,-2.5228 8.733371,-0.5634 17.465181,-1.28682 26.218691,-1.44207 1.36922,0.0122 2.78758,-0.0301 4.08543,0.48858 1.1463,0.45806 2.11317,1.22593 3.08154,1.96749 2.55323,2.23346 5.12355,4.44151 7.77912,6.55314 2.56434,2.05272 5.1358,4.09671 7.71603,6.12945 1.18214,0.90314 2.29331,1.91651 3.09548,3.18205 0.31197,0.49218 0.50489,0.94054 0.75398,1.46555 0.76378,1.96795 1.41841,3.98014 2.10198,5.97836 1.0396,2.70339 1.21113,5.5734 1.32101,8.43532 0.0237,2.28271 0.0426,4.582923 -0.47815,6.823923 -1.02771,4.42279 -3.1423,8.43973 -5.12115,12.48681 -2.15266,4.16769 -4.63356,8.14738 -7.1259,12.11579 -0.199,0.31687 0.24913,0.59831 0.44813,0.28143 v 0 c 2.50214,-3.98434 4.99268,-7.98008 7.15317,-12.16482 2.00246,-4.09728 4.1345,-8.1611 5.16891,-12.63973 0.52527,-2.27418 0.5086,-4.607723 0.48376,-6.923793 -0.11277,-2.91313 -0.29216,-5.83432 -1.3491,-8.58621 -0.69009,-2.01719 -1.34963,-4.04911 -2.12473,-6.03424 -0.27205,-0.57139 -0.45908,-1.00915 -0.80081,-1.54526 -0.83227,-1.30565 -1.97738,-2.35689 -3.19911,-3.29085 -2.57961,-2.03223 -5.15043,-4.07575 -7.71416,-6.12797 -2.65826,-2.11365 -5.22989,-4.32525 -7.78704,-6.55931 -1.02326,-0.78135 -2.0406,-1.57994 -3.25419,-2.05496 -1.35155,-0.52902 -2.81926,-0.50184 -4.24359,-0.50983 -8.76325,0.15587 -17.50478,0.87878 -26.247861,1.44339 -7.48367,0.54673 -15.0258,0.95084 -22.37944,2.53719 -0.36301,0.0908 -0.23467,0.60412 0.12834,0.51337 z" /><circle
       id="path562"
       style="fill:#000000;stroke:#000000;stroke-width:0.264583"
       cx="-429.3226"
       cy="80.52858"
       r="0.047444247" /><circle
       id="path564"
       style="fill:#000000;stroke:#000000;stroke-width:0.264583"
       cx="-375.22894"
       cy="95.704185"
       r="0.047444247" /><path
       style="fill:#ffffff;fill-opacity:1;stroke:#ffffff;stroke-width:2.91042;stroke-linecap:round;stroke-opacity:1;paint-order:fill markers stroke"
       d="m 75.583859,72.607677 c 9.60657,-0.85714 18.94945,-1.62011 25.379081,-1.34262 8.67544,1.00095 16.93166,0.3846 25.39898,0.96932 5.83148,0.0301 10.5403,1.55701 12.23839,7.09826 l 3.67151,28.882593 c -0.44935,7.06703 0.74212,14.66492 -7.17249,19.31672 -7.16457,4.97413 -20.62213,3.65526 -31.74557,4.67052 -9.473751,-0.0722 -19.124341,0.0325 -28.393051,-0.24477 -13.02581,-1.20771 -10.72033,-7.06956 -11.50408,-11.99361 0.80134,-9.05641 0.0926,-26.680123 -0.15823,-35.736533 0.89277,-12.40881 8.63176,-11.64595 12.28546,-11.61988 z"
       id="path620"
       sodipodi:nodetypes="ccccccccccc" /><path
       style="fill:#ffffff;fill-opacity:1;stroke:#000000;stroke-width:2.11667;stroke-linecap:round;stroke-dasharray:none;stroke-opacity:1;paint-order:fill markers stroke"
       d="m 80.305549,78.341857 c 7.54663,-0.67334 14.88611,-1.27272 19.937031,-1.05473 6.81516,0.78632 13.301,0.30213 19.95268,0.76147 4.58102,0.0236 8.28013,1.22315 9.61409,5.57618 l 2.88424,22.689293 c -0.353,5.55164 0.58298,11.52031 -5.63449,15.17462 -5.62827,3.90753 -16.20013,2.87147 -24.93836,3.66902 -7.442301,-0.0568 -15.023511,0.0255 -22.304721,-0.19228 -10.23268,-0.94874 -8.42157,-5.55363 -9.03725,-9.42182 0.62951,-7.11444 0.0727,-20.959093 -0.12431,-28.073523 0.70133,-9.748 6.78086,-9.14872 9.65109,-9.12823 z"
       id="path620-3"
       sodipodi:nodetypes="ccccccccccc" /><path
       style="fill:#4d4d4d;fill-opacity:1;stroke:#000000;stroke-width:2.11667;stroke-linecap:round;stroke-dasharray:none;stroke-opacity:1;paint-order:fill markers stroke"
       d="m 92.137809,91.911257 c 3.12373,-0.27871 6.16172,-0.52681 8.252411,-0.43658 2.82096,0.32548 5.5056,0.12506 8.25889,0.31519 1.8962,0.01 3.42735,0.50629 3.97951,2.30811 l 1.19385,9.391653 c -0.14611,2.29795 0.24131,4.76853 -2.33225,6.28113 -2.32967,1.61742 -6.70562,1.18857 -10.32258,1.5187 -3.080551,-0.0235 -6.218591,0.0105 -9.232461,-0.0796 -4.23555,-0.39271 -3.48589,-2.29878 -3.74073,-3.89992 0.26056,-2.94483 0.0301,-8.675473 -0.0515,-11.620303 0.2903,-4.03493 2.80676,-3.78687 3.99482,-3.77839 z"
       id="path620-3-8"
       sodipodi:nodetypes="ccccccccccc" /></g></svg>
