<?xml version="1.0" encoding="UTF-8" standalone="no"?>
<!-- Created with Inkscape (http://www.inkscape.org/) -->

<svg
   width="770"
   height="770"
   viewBox="0 0 203.72916 203.72917"
   version="1.1"
   id="svg5"
   xml:space="preserve"
   inkscape:version="1.2.2 (732a01da63, 2022-12-09)"
   sodipodi:docname="tea.svg"
   xmlns:inkscape="http://www.inkscape.org/namespaces/inkscape"
   xmlns:sodipodi="http://sodipodi.sourceforge.net/DTD/sodipodi-0.dtd"
   xmlns="http://www.w3.org/2000/svg"
   xmlns:svg="http://www.w3.org/2000/svg"><sodipodi:namedview
     id="namedview7"
     pagecolor="#ffffff"
     bordercolor="#000000"
     borderopacity="0.25"
     inkscape:showpageshadow="2"
     inkscape:pageopacity="0.0"
     inkscape:pagecheckerboard="0"
     inkscape:deskcolor="#d1d1d1"
     inkscape:document-units="mm"
     showgrid="false"
     inkscape:zoom="1.0809568"
     inkscape:cx="-17.114468"
     inkscape:cy="132.29021"
     inkscape:window-width="3360"
     inkscape:window-height="1850"
     inkscape:window-x="3348"
     inkscape:window-y="-12"
     inkscape:window-maximized="1"
     inkscape:current-layer="layer1" /><defs
     id="defs2" /><g
     inkscape:label="Слой 1"
     inkscape:groupmode="layer"
     id="layer1"><circle
       style="fill:#000000;fill-opacity:1;stroke:#000000;stroke-width:0;stroke-linecap:round;paint-order:fill markers stroke"
       id="path16724"
       cx="102.00589"
       cy="102.04887"
       r="100.54166" /><path
       style="fill:none;fill-opacity:1;stroke:#ffffff;stroke-width:2.64583;stroke-linecap:round;stroke-dasharray:none;stroke-opacity:1;paint-order:fill markers stroke;font-variation-settings:normal;opacity:1;vector-effect:none;stroke-linejoin:miter;stroke-miterlimit:4;stroke-dashoffset:0;-inkscape-stroke:none;stop-color:#000000;stop-opacity:1"
       d="m 90.430558,106.93764 c -15.70473,-2.59385 -24.397622,7.31479 -26.337935,15.16496 -1.322187,4.72565 7.77179,9.11386 13.111617,3.01892 l 15.13812,-14.59487"
       id="path18166-2-1-9-4-4"
       sodipodi:nodetypes="cccc" /><circle
       id="path562"
       style="fill:#000000;stroke:#000000;stroke-width:0.264583"
       cx="-429.3226"
       cy="80.52858"
       r="0.047444247" /><circle
       id="path564"
       style="fill:#000000;stroke:#000000;stroke-width:0.264583"
       cx="-375.22894"
       cy="95.704185"
       r="0.047444247" /><circle
       style="fill:#7c7c7c;fill-opacity:1;stroke:#ffffff;stroke-width:2.64583333;stroke-linecap:round;stroke-dasharray:none;stroke-opacity:1;paint-order:fill markers stroke"
       id="path18164"
       cx="102.11539"
       cy="101.94231"
       r="8.0898743" /><path
       style="fill:none;fill-opacity:1;stroke:#ffffff;stroke-width:2.64583;stroke-linecap:round;stroke-dasharray:none;stroke-opacity:1;paint-order:fill markers stroke;font-variation-settings:normal;opacity:1;vector-effect:none;stroke-linejoin:miter;stroke-miterlimit:4;stroke-dashoffset:0;-inkscape-stroke:none;stop-color:#000000;stop-opacity:1"
       d="m 103.5,89.415863 c 0,-1.384615 -0.17308,-29.358171 -0.17308,-29.358171 -5.27142,-19.621457 -14.527509,-7.132444 -14.019229,1.73077 l 7.615385,28.03846"
       id="path18166"
       sodipodi:nodetypes="cccc" /><path
       style="fill:none;fill-opacity:1;stroke:#ffffff;stroke-width:2.64583;stroke-linecap:round;stroke-dasharray:none;stroke-opacity:1;paint-order:fill markers stroke"
       d="m 111.31797,93.056693 c 0.98314,-1.980259 8.81307,-27.016998 8.80772,-27.03839 1.74085,-7.042652 -0.27203,-12.893191 -3.28534,-13.784412 -4.62088,-1.366677 -10.02592,1.790704 -9.69543,7.553643 l -3.11538,29.249999"
       id="path18166-2"
       sodipodi:nodetypes="ccscc" /><path
       style="fill:none;fill-opacity:1;stroke:#ffffff;stroke-width:2.64583;stroke-linecap:round;stroke-dasharray:none;stroke-opacity:1;paint-order:fill markers stroke"
       d="m 103.14089,114.77055 c 0,1.38461 0.17308,29.9423 0.17308,29.9423 5.27142,19.62146 14.52751,7.13245 14.01923,-1.73077 l -7.61538,-30.05779"
       id="path18166-9"
       sodipodi:nodetypes="cccc" /><path
       style="fill:none;fill-opacity:1;stroke:#ffffff;stroke-width:2.64583;stroke-linecap:round;stroke-dasharray:none;stroke-opacity:1;paint-order:fill markers stroke"
       d="m 92.745965,110.19455 c -3.171794,4.60185 -6.866365,21.28332 -8.13461,28.38461 -1.444843,7.1164 0.30916,12.90623 3.28534,13.78442 4.621741,1.36375 10.02592,-1.79071 9.69543,-7.55365 l 5.495195,-30.20192"
       id="path18166-2-1"
       sodipodi:nodetypes="ccscc" /><path
       style="font-variation-settings:normal;opacity:1;vector-effect:none;fill:none;fill-opacity:1;stroke:#ffffff;stroke-width:2.64583;stroke-linecap:round;stroke-linejoin:miter;stroke-miterlimit:4;stroke-dasharray:none;stroke-dashoffset:0;stroke-opacity:1;-inkscape-stroke:none;paint-order:fill markers stroke;stop-color:#000000;stop-opacity:1"
       d="M 96.661946,89.650552 C 92.060096,86.478755 85.41028,72.542332 78.30899,71.274087 c -7.1164,-1.444843 -8.561603,-0.486335 -9.439793,2.489845 -1.36375,4.621743 5.462226,10.760226 9.205832,15.386282 l 11.490768,10.192647"
       id="path18166-2-1-9"
       sodipodi:nodetypes="ccscc" /><path
       style="font-variation-settings:normal;opacity:1;vector-effect:none;fill:none;fill-opacity:1;stroke:#ffffff;stroke-width:2.64583;stroke-linecap:round;stroke-linejoin:miter;stroke-miterlimit:4;stroke-dasharray:none;stroke-dashoffset:0;stroke-opacity:1;-inkscape-stroke:none;paint-order:fill markers stroke;stop-color:#000000;stop-opacity:1"
       d="m 89.834477,99.742396 c -4.60185,-3.1718 -15.49205,-6.377455 -22.59334,-7.6457 -7.1164,-1.444843 -8.128911,2.455972 -9.007101,5.432152 -1.36375,4.621742 1.394918,6.909272 9.378909,7.424742 l 22.697498,1.92823"
       id="path18166-2-1-9-4"
       sodipodi:nodetypes="ccscc" /><path
       style="font-variation-settings:normal;vector-effect:none;fill:none;fill-opacity:1;stroke:#ffffff;stroke-width:2.64583;stroke-linecap:round;stroke-linejoin:miter;stroke-miterlimit:4;stroke-dasharray:none;stroke-dashoffset:0;stroke-opacity:1;-inkscape-stroke:none;paint-order:fill markers stroke;stop-color:#000000"
       d="m 114.37233,97.901747 c 15.70473,2.593853 34.6747,-12.080555 36.61501,-19.930725 1.32219,-4.72565 -18.41602,-4.960014 -23.75584,1.134926 l -15.82353,13.837767"
       id="path18166-2-1-9-4-4-2"
       sodipodi:nodetypes="cccc" /><path
       style="font-variation-settings:normal;vector-effect:none;fill:none;fill-opacity:1;stroke:#ffffff;stroke-width:2.64583;stroke-linecap:round;stroke-linejoin:miter;stroke-miterlimit:4;stroke-dasharray:none;stroke-dashoffset:0;stroke-opacity:1;-inkscape-stroke:none;paint-order:fill markers stroke;stop-color:#000000"
       d="m 109.98052,113.19229 c 4.60185,3.1718 9.04494,18.49284 16.14623,19.76108 7.1164,1.44485 8.5616,0.48634 9.43979,-2.48984 1.36375,-4.62175 -5.46223,-10.76023 -9.20583,-15.38629 l -11.01481,-9.84649"
       id="path18166-2-1-9-7"
       sodipodi:nodetypes="ccscc" /><path
       style="font-variation-settings:normal;vector-effect:none;fill:none;fill-opacity:1;stroke:#ffffff;stroke-width:2.64583;stroke-linecap:round;stroke-linejoin:miter;stroke-miterlimit:4;stroke-dasharray:none;stroke-dashoffset:0;stroke-opacity:1;-inkscape-stroke:none;paint-order:fill markers stroke;stop-color:#000000"
       d="m 114.60126,104.48506 c 4.60185,3.1718 15.49205,6.37746 22.59334,7.6457 7.1164,1.44484 18.34045,-0.20597 19.21864,-3.18215 1.36375,-4.62173 -11.60646,-9.159262 -19.59045,-9.674732 l -22.48115,-1.19265"
       id="path18166-2-1-9-4-49"
       sodipodi:nodetypes="ccscc" /></g></svg>
