<?xml version="1.0" encoding="UTF-8" standalone="no"?>
<!-- Created with Inkscape (http://www.inkscape.org/) -->

<svg
   width="200"
   height="200"
   viewBox="0 0 52.916665 52.916668"
   version="1.1"
   id="svg5"
   xml:space="preserve"
   inkscape:version="1.4 (86a8ad7, 2024-10-11)"
   sodipodi:docname="tea.svg"
   xmlns:inkscape="http://www.inkscape.org/namespaces/inkscape"
   xmlns:sodipodi="http://sodipodi.sourceforge.net/DTD/sodipodi-0.dtd"
   xmlns="http://www.w3.org/2000/svg"
   xmlns:svg="http://www.w3.org/2000/svg"><sodipodi:namedview
     id="namedview7"
     pagecolor="#ffffff"
     bordercolor="#000000"
     borderopacity="0.25"
     inkscape:showpageshadow="2"
     inkscape:pageopacity="0.0"
     inkscape:pagecheckerboard="0"
     inkscape:deskcolor="#d1d1d1"
     inkscape:document-units="mm"
     showgrid="false"
     inkscape:zoom="4"
     inkscape:cx="64.125001"
     inkscape:cy="126"
     inkscape:window-width="1920"
     inkscape:window-height="1010"
     inkscape:window-x="-6"
     inkscape:window-y="-6"
     inkscape:window-maximized="1"
     inkscape:current-layer="g1" /><defs
     id="defs2" /><g
     inkscape:label="Слой 1"
     inkscape:groupmode="layer"
     id="layer1"><circle
       id="path562"
       style="fill:#000000;stroke:#000000;stroke-width:0.264583"
       cx="-429.3226"
       cy="80.52858"
       r="0.047444247" /><circle
       id="path564"
       style="fill:#000000;stroke:#000000;stroke-width:0.264583"
       cx="-375.22894"
       cy="95.704185"
       r="0.047444247" /><circle
       style="fill:#ffe6d5;fill-opacity:0.47368422;stroke:#ffffff;stroke-width:0"
       id="path23"
       cx="26.458334"
       cy="26.458334"
       r="26.458334" /><g
       style="fill:none"
       id="g1"
       transform="matrix(0.52852871,0,0,0.52852871,8.3859058,5.7490025)"><path
         d="m 15.41311,33.054179 c -3.06,-1.55 -6.9700301,-0.63 -8.7300301,2.06 -1.76,2.69 -0.72,6.13 2.34,7.68 3.0600301,1.55 10.6600301,2.5 12.4200301,-0.18 1.76,-2.69 -2.97,-8 -6.03,-9.55 z m 0.96,7.25 c -2.14,0 -4.5,-0.55 -5.54,-1.08 -0.51,-0.26 -0.8600001,-0.64 -0.9700001,-1.05 -0.08003,-0.29 -0.02,-0.58 0.1700001,-0.87 0.4,-0.61 1.26,-1.01 2.2,-1.01 0.49,0 0.97,0.11 1.38,0.32 1.31,0.66 2.95,2.38 3.75,3.63 -0.27,0.03 -0.6,0.04 -0.98,0.04 z"
         fill="#ffffff"
         id="path1"
         style="fill:#ffffff;fill-opacity:0" /><path
         d="m 16.39311,45.284179 c -2.98,0 -6.21,-0.79 -7.8300301,-1.61 -1.78,-0.9 -3.07,-2.44 -3.54,-4.22 -0.45,-1.67 -0.15,-3.41 0.82,-4.9 2.03,-3.1 6.5300301,-4.17 10.0200301,-2.4 2.57,1.31 5.99,4.83 6.78,7.8 0.33,1.22 0.2,2.33 -0.37,3.19 -1.03,1.57 -3.37,2.13 -5.88,2.13 z m -4.18,-11.99 c -1.88,0 -3.7000301,0.85 -4.6900301,2.36 -0.66,1 -0.86,2.17 -0.56,3.28 0.33,1.25 1.23,2.3 2.51,2.95 2.9500301,1.5 9.8200301,2.16 11.1300301,0.16 0.25,-0.38 0.29,-0.91 0.11,-1.58 -0.63,-2.35 -3.61,-5.44 -5.75,-6.53 -0.87,-0.44 -1.82,-0.65 -2.75,-0.65 z m 4.16,8 c -2.37,0 -4.86,-0.61 -5.99,-1.19 -0.7600301,-0.39 -1.3100201,-1 -1.4900201,-1.68 -0.1,-0.4 -0.14001,-1.01 0.29999,-1.67 0.59,-0.9 1.7500301,-1.46 3.0300301,-1.46 0.65,0 1.28,0.15 1.83,0.43 1.54,0.78 3.28,2.64 4.14,3.99 0.19,0.29 0.21,0.66 0.06,0.97 -0.15,0.31 -0.45,0.52 -0.8,0.56 -0.3,0.03 -0.66,0.05 -1.08,0.05 z m -4.15,-4 c -0.68,0 -1.19,0.29 -1.36,0.56 -0.01,0.14 0.13,0.33 0.42,0.48 0.75,0.38 2.36,0.79 3.99,0.92 -0.69,-0.73 -1.48,-1.41 -2.13,-1.74 -0.27,-0.14 -0.59,-0.21 -0.93,-0.21 z"
         fill="#2e1051"
         id="path2" /><path
         d="M 29.650863,49.339595 C 41.873277,50.450781 44.88584,40.016287 44.88584,28.716287 L 13.82301,28.304179 c 0,11.3 7.2,19.98 17.42,24 z"
         fill="#ffffff"
         id="path3"
         sodipodi:nodetypes="ccccc"
         style="fill:#959595;fill-opacity:1" /><path
         d="m 40.40301,53.304179 h -9.16 c -0.13,0 -0.25,-0.02 -0.37,-0.07 -11.31,-4.45 -18.05,-13.77 -18.05,-24.93 0,-0.55 0.45,-1 1,-1 h 44 c 0.55,0 1,0.45 1,1 0,11.16 -6.75,20.48 -18.05,24.93 -0.12,0.05 -0.24,0.07 -0.37,0.07 z m -8.97,-2 h 8.77 c 10.07,-4.03 16.2,-12.2 16.59,-22 h -41.95 c 0.39,9.8 6.53,17.97 16.59,22 z"
         fill="#2e1051"
         id="path4" /><g
         opacity="0.3"
         id="g6"
         transform="translate(-0.17699007,-3.1858213)"><path
           d="m 14,31.49 c 0,2.09 0.25,4.1 0.72,6 l 5.877264,9.261165 c 8.04026,0.102414 4.786638,-12.169958 4.786638,-14.259958 z"
           fill="#ffffff"
           id="path6"
           sodipodi:nodetypes="ccccc" /></g><path
         d="m 51.82301,33.304179 c -0.55,0 -1,-0.45 -1,-1 v -2 c 0,-1.65 -1.35,-3 -3,-3 -1.07,0 -2.03,0.56 -2.58,1.5 -0.28,0.48 -0.89,0.64 -1.37,0.36 -0.48,-0.28 -0.64,-0.89 -0.36,-1.37 0.9,-1.54 2.55,-2.5 4.31,-2.5 2.76,0 5,2.24 5,5 v 2 c 0,0.55 -0.45,1 -1,1 z"
         fill="#2e1051"
         id="path7" /><path
         d="m 27.39291,41.194179 c 2.4,0.64 3.83,3.11 3.18,5.51 -0.65,2.4 -3.11,3.83 -5.51,3.18 -2.4,-0.65 -9.37,-5.62 -8.98,-7.06 0.39,-1.44 8.91,-2.27 11.31,-1.63 z"
         fill="#2ccbd1"
         id="path8" /><path
         d="m 26.22291,51.034179 c -0.47,0 -0.95,-0.06 -1.42,-0.19 -1.48,-0.4 -4.02,-1.99 -5.88,-3.4 -4.26,-3.21 -3.94,-4.39 -3.81,-4.89 0.13,-0.5 0.45,-1.68 5.74,-2.33 2.32,-0.29 5.32,-0.4 6.79,0 1.42,0.38 2.61,1.29 3.34,2.56 0.73,1.27 0.93,2.75 0.55,4.17 -0.66,2.45 -2.89,4.08 -5.31,4.08 z m -9.05,-7.93 c 0.85,1.39 5.96,5.22 8.15,5.81 1.87,0.5 3.79,-0.61 4.29,-2.48 0.24,-0.9 0.12,-1.85 -0.35,-2.66 -0.47,-0.81 -1.22,-1.39 -2.13,-1.63 -2.19,-0.59 -8.53,0.18 -9.96,0.95 z"
         fill="#2e1051"
         id="path9" /><path
         d="m 33.12301,42.234179 c 1.76,1.76 1.76,4.61 0,6.36 -1.76,1.75 -4.61,1.76 -6.36,0 -1.75,-1.76 -5.3,-9.55 -4.24,-10.61 1.06,-1.06 8.85,2.49 10.61,4.24 z"
         fill="#2ccbd1"
         id="path10" /><path
         d="m 29.94311,50.914279 c -1.41,0 -2.82,-0.54 -3.89,-1.61 -1.08,-1.08 -2.48,-3.73 -3.39,-5.88 -2.08,-4.91 -1.22,-5.77 -0.85,-6.14 0.37,-0.37 1.23,-1.23 6.14,0.85 2.15,0.91 4.8,2.31 5.88,3.39 2.14,2.14 2.14,5.63 0,7.78 -1.07,1.07 -2.48,1.61 -3.89,1.61 z m -6.63,-12.13 c 0.04,1.62 2.55,7.5 4.15,9.1 1.37,1.36 3.58,1.36 4.95,0 1.36,-1.36 1.36,-3.58 0,-4.95 -1.6,-1.6 -7.48,-4.11 -9.1,-4.15 z"
         fill="#2e1051"
         id="path11" /><path
         d="m 33.12311,49.604279 c -0.26,0 -0.51,-0.1 -0.71,-0.29 l -5.3,-5.3 c -0.39,-0.39 -0.39,-1.02 0,-1.41 0.39,-0.39 1.02,-0.39 1.41,0 l 5.3,5.3 c 0.39,0.39 0.39,1.02 0,1.41 -0.2,0.2 -0.45,0.29 -0.71,0.29 z"
         fill="#2e1051"
         id="path12" /><path
         d="m 18.16301,52.304179 c 0,0 -2.09,0.22 -3.32,-1 -1.23,-1.22 -1.02,-2.83 -1,-3 h -0.03 44 c 0.02,0.17 0.22,1.78 -1,3 -1.22,1.22 -3.32,1 -3.32,1 h -35.35 0.03 z"
         fill="#592c87"
         id="path13" /><g
         opacity="0.3"
         id="g15"
         transform="translate(-0.17699007,-3.1858213)"><path
           d="m 19.0301,54.49 c -1.23,-1.23 -1.02,-2.83 -1,-3 h -4 c -0.02,0.17 -0.23,1.77 1,3 1.23,1.23 3.32,1 3.32,1 h 3.21 c -0.72,-0.05 -1.78,-0.26 -2.52,-1 z"
           fill="#ffffff"
           id="path14" /><path
           d="m 53.6902,55.49 c 0,0 0.33,0.03 0.79,0 z"
           fill="#ffffff"
           id="path15" /></g><path
         d="m 33.82291,23.784279 c -0.26,0 -0.51,-0.1 -0.71,-0.29 -0.39,-0.39 -0.39,-1.02 0,-1.41 1.95,-1.95 1.95,-5.12 0,-7.07 -2.73,-2.73 -2.73,-7.1700003 0,-9.9000303 0.39,-0.39 1.02,-0.39 1.41,0 0.39,0.39 0.39,1.02 0,1.41 -1.95,1.95003 -1.95,5.1200303 0,7.0700303 2.73,2.73 2.73,7.17 0,9.9 -0.2,0.2 -0.45,0.29 -0.71,0.29 z"
         fill="#2e1051"
         id="path16" /><path
         d="m 25.82291,23.784279 c -0.26,0 -0.51,-0.1 -0.71,-0.29 -0.39,-0.39 -0.39,-1.02 0,-1.41 1.95,-1.95 1.95,-5.12 0,-7.07 -2.73,-2.73 -2.73,-7.1700003 0,-9.9000303 0.39,-0.39 1.02,-0.39 1.41,0 0.39,0.39 0.39,1.02 0,1.41 -1.95,1.95003 -1.95,5.1200303 0,7.0700303 2.73,2.73 2.73,7.17 0,9.9 -0.2,0.2 -0.45,0.29 -0.71,0.29 z"
         fill="#2e1051"
         id="path17" /><path
         d="m 41.82291,23.784279 c -0.26,0 -0.51,-0.1 -0.71,-0.29 -0.39,-0.39 -0.39,-1.02 0,-1.41 1.95,-1.95 1.95,-5.12 0,-7.07 -2.73,-2.73 -2.73,-7.1700003 0,-9.9000303 0.39,-0.39 1.02,-0.39 1.41,0 0.39,0.39 0.39,1.02 0,1.41 -1.95,1.95003 -1.95,5.1200303 0,7.0700303 2.73,2.73 2.73,7.17 0,9.9 -0.2,0.2 -0.45,0.29 -0.71,0.29 z"
         fill="#2e1051"
         id="path18" /><path
         d="m 57.10301,35.304179 h -42.56 c -0.46,0 -0.86,-0.31 -0.97,-0.76 -0.5,-2.01 -0.75,-4.11 -0.75,-6.24 0,-0.55 0.45,-1 1,-1 h 44 c 0.55,0 1,0.45 1,1 0,2.13 -0.25,4.23 -0.75,6.24 -0.11,0.45 -0.51,0.76 -0.97,0.76 z m -41.77,-2 h 40.97 c 0.28,-1.3 0.44,-2.64 0.5,-4 h -41.96 c 0.05,1.36 0.22,2.7 0.5,4 z"
         fill="#2e1051"
         id="path19" /><path
         d="m 55.82301,36.304179 v 8 h -8 v -8 l 4,-4 z"
         fill="#2ccbd1"
         id="path20" /><path
         d="m 55.82301,45.304279 h -8 c -0.55,0 -1,-0.45 -1,-1 v -8.0001 c 0,-0.27 0.11,-0.52 0.29,-0.71 l 4,-4 c 0.39,-0.39 1.02,-0.39 1.41,0 l 4,4 c 0.19,0.19 0.29,0.44 0.29,0.71 v 8.0001 c 0,0.55 -0.45,1 -1,1 z m -7,-2 h 6 v -6.5901 l -3,-3 -3,3 z"
         fill="#2e1051"
         id="path21" /><path
         d="m 53.88311,53.314179 c -0.2,0 -0.34,0 -0.42,-0.02 h -35.25 c -0.41,0.03 -2.64,0.14 -4.07,-1.29 -1.29,-1.29 -1.35,-2.88 -1.31,-3.57 v -0.14 c 0,-0.55 0.45,-1 1,-1 h 44 c 0.5,0 0.92,0.36 0.99,0.86 0.05,0.37 0.25,2.32 -1.28,3.85 -1.15,1.15 -2.83,1.31 -3.64,1.31 z m -35.75,-2.02 h 35.37 0.11 c 0.45,0.04 1.79,0 2.5,-0.71 0.41,-0.41 0.6,-0.89 0.68,-1.29 h -41.92 c 0.08,0.4 0.27,0.88 0.68,1.29 0.68,0.68 1.92,0.75 2.43,0.72 0.05,0 0.1,-0.01 0.15,-0.01 z"
         fill="#2e1051"
         id="path22"
         sodipodi:nodetypes="sccscssscssssccsccscs" /><path
         style="fill:#fcfcfc;fill-opacity:0.473684;stroke:#ffffff;stroke-width:0"
         d="m -6.9019359,32.612856 c -0.1945187,2.947958 0.2513714,5.958188 0.6104798,8.867369 0.061753,0.500271 0.2592041,0.978551 0.3103211,1.480017 0.3722551,3.651944 -0.055649,2.351657 0.3793062,4.534566 0.1093715,0.548901 0.1686508,1.107187 0.2835055,1.654968 0.1511567,0.72092 0.5303794,1.388705 0.7547162,2.085308 0.018082,0.05616 -0.017877,0.11663 -0.026815,0.174945 0.031501,0.183884 0.023861,0.378982 0.094502,0.551656 0.063182,0.154443 0.2363805,0.24777 0.2962632,0.403526 0.1717369,0.446671 0.1385847,1.033346 0.3103216,1.480017 0.3517635,0.914912 1.1172426,1.712444 1.5758207,2.569279 0.2244436,0.419359 0.3112476,0.900719 0.5120826,1.331887 0.4120645,0.884645 1.10614723,1.571008 1.60263673,2.394328 0.40201168,0.1362 0.0238615,0.378982 0.0945018,0.551656 0.244221,0.596969 0.63476011,1.076043 1.01010841,1.587282 0.24688641,0.336273 0.40010461,0.767869 0.74065951,1.008812 0.2609756,0.184638 1.8496681,0.402189 2.0993637,0.32178 3.5532516,-1.144304 -0.066567,-0.0773 1.5604658,-0.835161 0.053483,-0.02493 0.1480258,0.07931 0.1749467,0.02681 C 6.1371758,61.522823 5.7611047,61.182065 5.412266,59.747361 5.2931748,59.257562 5.2887427,58.735518 5.1019457,58.267339 4.6952709,57.248074 4.0975839,56.315716 3.5797539,55.34817 2.9555223,54.18182 3.6031376,56.126809 2.7177773,53.962652 2.272473,52.874155 2.1586868,51.555868 1.8276875,50.424137 1.6508045,49.819354 1.2175961,48.706097 1.1266009,47.988939 c -0.01485,-0.117059 0.083143,-0.23565 0.05363,-0.349896 -0.086042,-0.333072 -0.32017248,-0.618491 -0.39076585,-0.955182 -0.0363202,-0.173221 0.0786405,-0.347859 0.080445,-0.52484 0.005978,-0.586384 -0.19269927,-1.271817 -0.25669094,-1.829912 -0.58239627,-0.374181 0.019229,-0.71918 -0.0140565,-1.076498 C 0.48058135,41.979666 0.3705536,43.517187 0.36928759,41.247748 0.36912294,40.952767 0.52298696,40.667345 0.5033622,40.373017 0.48580925,40.109759 0.27267762,39.883166 0.26072868,39.619596 c -0.0160316,-0.353615 0.13915929,-0.696371 0.16089023,-1.049682 0.0428731,-0.697029 -0.0352072,-1.45718 -0.0281138,-2.152993 0.0120849,-1.185443 -0.3787724,-2.33411 -0.5401962,-3.484882 -0.0245867,-0.175274 0.05363003,-0.349894 0.08044504,-0.524841 -0.18431846,-0.744479 -0.35554858,-1.492322 -0.55295453,-2.233438 -0.39420857,-1.479967 -0.73766947,-2.916665 -0.93096227,-4.440063 -0.07753,-0.611035 0.1664903,-2.257579 -0.6742713,-2.610148 -0.8366178,-0.35083 -1.1617967,0.09764 -1.708598,0.633401 -1.3216996,1.295022 -1.4981937,2.018683 -2.1644529,3.607497 -0.1949322,0.464851 -0.5667605,0.845535 -0.7393612,1.319131 -0.1659281,0.455288 -0.1673139,1.091592 -0.2413351,1.574522 -0.03327,0.217063 -0.5177283,0.675887 -0.4839692,0.821105 0.1260271,0.542117 0.4401429,1.022434 0.6602147,1.533651 z"
         id="path24" /><path
         style="fill:#fcfcfc;fill-opacity:0.473684;stroke:#ffffff;stroke-width:0"
         d="m 56.699419,6.1136771 c 2.160295,0.6873667 5.727901,1.628205 7.610576,3.0088309 1.201753,0.881287 2.057931,2.904697 2.65485,4.247762 0.160734,0.361652 0.353982,0.707961 0.53097,1.06194 0.294981,0.766957 0.555585,1.548039 0.884952,2.300871 0.57221,1.307919 0.104982,-0.120013 0.707959,0.884951 0.274566,0.45761 0.136454,0.926494 0.353981,1.415921 0.119805,0.269559 0.427391,0.431758 0.530971,0.70796 0.08286,0.220961 -0.05724,0.479019 0,0.70796 0.06399,0.255964 0.270546,0.457658 0.353976,0.70796 0.0373,0.111939 -0.02863,0.23951 0,0.35398 0.159518,0.638069 0.579569,1.304923 0.707964,1.946891 0.19508,0.975422 0.06046,1.722656 0.176988,2.654851 0.2034,1.627211 0.587298,3.958118 -0.176988,5.486692 -0.0095,0.01893 -0.852658,0.0323 -0.884952,0 -0.09328,-0.09328 -0.103815,-0.244215 -0.176988,-0.353979 -0.158141,-0.237207 -0.338093,-0.692069 -0.530971,-0.884951 -0.150416,-0.150415 -1.662504,-1.362222 -1.769903,-1.41592 -0.05277,-0.02639 -0.135273,0.04171 -0.176989,0 -0.265485,-0.265486 -0.442478,-0.619466 -0.707963,-0.884951 -0.322719,-0.322722 -0.32766,-0.01514 -0.53097,-0.35398 -0.326924,-0.544879 -0.887585,-1.513643 -1.061941,-2.123881 -0.04861,-0.17018 0.05597,-0.363063 0,-0.53097 -0.01867,-0.05597 -0.144263,0.04909 -0.176988,0 -0.134928,-0.202396 -0.005,-0.535957 -0.176988,-0.707961 -0.0417,-0.04171 -0.144264,0.04909 -0.176994,0 -0.176608,-0.26491 -0.29441,-1.23721 -0.353976,-1.41592 -0.08344,-0.250302 -0.270547,-0.457658 -0.353982,-0.70796 -0.111104,-0.333316 -0.04621,-0.734915 -0.176989,-1.061941 -0.06197,-0.154933 -0.279356,-0.204729 -0.353981,-0.35398 -0.108786,-0.217569 -0.100066,-0.477193 -0.176989,-0.70796 -0.19508,-0.585238 -0.22804,-0.178106 -0.53097,-0.88495 -0.339514,-0.792198 -0.196026,-1.138084 -0.353982,-1.769901 -0.07705,-0.308221 -0.266701,-0.579468 -0.353981,-0.884951 -0.03244,-0.113453 0.05277,-0.248443 0,-0.35398 -0.131919,-0.263841 -0.367343,-0.462519 -0.53097,-0.70796 -0.241727,-0.362592 -0.223755,-0.931715 -0.530971,-1.238931 -0.09328,-0.09328 -0.260694,-0.08371 -0.353976,-0.176989 -0.0417,-0.04172 0.03274,-0.127903 0,-0.176991 -0.308377,-0.46256 -0.885228,-0.814481 -1.238934,-1.23893 -0.626415,-0.751702 -1.346864,-1.631791 -1.769899,-2.477861 -0.05277,-0.105537 0.05277,-0.2484437 0,-0.3539804 C 57.424604,9.5109363 57.139955,9.0320715 56.876408,8.7685283 56.677398,8.5695144 56.227826,8.3951366 55.991461,8.2375582 c -0.059,-0.058997 -0.117992,-0.1179938 -0.176994,-0.1769904 0,-0.058997 0.0417,-0.1352731 0,-0.1769899 -0.0417,-0.041715 -0.135273,0.041715 -0.176988,0 -0.09821,-0.098209 -0.310349,-1.516706 -0.176988,-1.5929109 0.362201,-0.206974 0.825951,-0.1179932 1.238928,-0.1769899 z"
         id="path25" /></g></g></svg>
