<?xml version="1.0" encoding="UTF-8" standalone="no"?>
<svg
   width="25"
   height="21"
   version="1.1"
   xml:space="preserve"
   style="clip-rule:evenodd;fill-rule:evenodd;stroke-linejoin:round;stroke-miterlimit:1.41421"
   id="svg197"
   sodipodi:docname="tg.svg"
   inkscape:version="1.2.2 (732a01da63, 2022-12-09)"
   xmlns:inkscape="http://www.inkscape.org/namespaces/inkscape"
   xmlns:sodipodi="http://sodipodi.sourceforge.net/DTD/sodipodi-0.dtd"
   xmlns="http://www.w3.org/2000/svg"
   xmlns:svg="http://www.w3.org/2000/svg"><defs
     id="defs201" /><sodipodi:namedview
     id="namedview199"
     pagecolor="#ffffff"
     bordercolor="#000000"
     borderopacity="0.25"
     inkscape:showpageshadow="2"
     inkscape:pageopacity="0.0"
     inkscape:pagecheckerboard="0"
     inkscape:deskcolor="#d1d1d1"
     showgrid="false"
     inkscape:zoom="67.833333"
     inkscape:cx="11.181818"
     inkscape:cy="9.6412777"
     inkscape:window-width="3360"
     inkscape:window-height="1850"
     inkscape:window-x="3348"
     inkscape:window-y="-12"
     inkscape:window-maximized="1"
     inkscape:current-layer="svg197" /><path
     id="telegram-1"
     d="m 18.885228,20.346568 c 0.322,0.228 0.737,0.285 1.107,0.145 0.37,-0.141 0.642,-0.457 0.724,-0.84 0.869,-4.084 2.977,-14.4210005 3.768,-18.1360005 0.06,-0.28 -0.04,-0.57099997 -0.26,-0.75799997 -0.22,-0.187 -0.525,-0.241 -0.797,-0.14 -4.193,1.55199997 -17.1059995,6.39699997 -22.3839995,8.35000007 -0.33499999,0.124 -0.55299999,0.446 -0.54199999,0.799 0.012,0.3540004 0.25,0.6610004 0.59299999,0.7640004 2.367,0.708 5.474,1.693 5.474,1.693 0,0 1.452,4.385 2.209,6.615 0.095,0.28 0.314,0.5 0.603,0.576 0.288,0.075 0.596,-0.004 0.8109995,-0.207 1.216,-1.148 3.096,-2.923 3.096,-2.923 0,0 3.572,2.619 5.598,4.062 z m -11.0099995,-8.677 1.679,5.538 0.373,-3.507 c 0,0 6.4869995,-5.8510004 10.1849995,-9.1860005 0.108,-0.098 0.123,-0.262 0.033,-0.377 -0.089,-0.115 -0.253,-0.142 -0.376,-0.064 -4.286,2.737 -11.8939995,7.5960005 -11.8939995,7.5960005 z"
     style="stroke:#ffffff;stroke-opacity:1;fill:#ffffff;fill-opacity:1;stroke-width:0;stroke-dasharray:none" /></svg>
