<?xml version="1.0" encoding="UTF-8" standalone="no"?>
<!-- Created with Inkscape (http://www.inkscape.org/) -->

<svg
   width="200"
   height="200"
   viewBox="0 0 52.916665 52.916668"
   version="1.1"
   id="svg5"
   xml:space="preserve"
   inkscape:version="1.4 (86a8ad7, 2024-10-11)"
   sodipodi:docname="vue-sneakers.svg"
   xmlns:inkscape="http://www.inkscape.org/namespaces/inkscape"
   xmlns:sodipodi="http://sodipodi.sourceforge.net/DTD/sodipodi-0.dtd"
   xmlns="http://www.w3.org/2000/svg"
   xmlns:svg="http://www.w3.org/2000/svg"><sodipodi:namedview
     id="namedview7"
     pagecolor="#ffffff"
     bordercolor="#000000"
     borderopacity="0.25"
     inkscape:showpageshadow="2"
     inkscape:pageopacity="0.0"
     inkscape:pagecheckerboard="0"
     inkscape:deskcolor="#d1d1d1"
     inkscape:document-units="mm"
     showgrid="false"
     inkscape:zoom="5.6568542"
     inkscape:cx="70.62229"
     inkscape:cy="78.223688"
     inkscape:window-width="2560"
     inkscape:window-height="1494"
     inkscape:window-x="-11"
     inkscape:window-y="-11"
     inkscape:window-maximized="1"
     inkscape:current-layer="layer1" /><defs
     id="defs2"><pattern
       id="EMFhbasepattern"
       patternUnits="userSpaceOnUse"
       width="6"
       height="6"
       x="0"
       y="0" /></defs><g
     inkscape:label="Слой 1"
     inkscape:groupmode="layer"
     id="layer1"><circle
       id="path562"
       style="fill:#000000;stroke:#000000;stroke-width:0.264583"
       cx="-429.3226"
       cy="80.52858"
       r="0.047444247" /><circle
       id="path564"
       style="fill:#000000;stroke:#000000;stroke-width:0.264583"
       cx="-375.22894"
       cy="95.704185"
       r="0.047444247" /><circle
       style="fill:#3059ff;fill-opacity:0.48450705;stroke:#ffffff;stroke-width:0"
       id="path23"
       cx="26.458334"
       cy="26.458334"
       r="26.458334" /><g
       style="fill:none"
       id="g1"
       transform="matrix(0.52852871,0,0,0.52852871,8.3859058,5.7490025)"><path
         style="fill:#fcfcfc;fill-opacity:0.473684;stroke:#ffffff;stroke-width:0"
         d="m -6.9019359,32.612856 c -0.1945187,2.947958 0.2513714,5.958188 0.6104798,8.867369 0.061753,0.500271 0.2592041,0.978551 0.3103211,1.480017 0.3722551,3.651944 -0.055649,2.351657 0.3793062,4.534566 0.1093715,0.548901 0.1686508,1.107187 0.2835055,1.654968 0.1511567,0.72092 0.5303794,1.388705 0.7547162,2.085308 0.018082,0.05616 -0.017877,0.11663 -0.026815,0.174945 0.031501,0.183884 0.023861,0.378982 0.094502,0.551656 0.063182,0.154443 0.2363805,0.24777 0.2962632,0.403526 0.1717369,0.446671 0.1385847,1.033346 0.3103216,1.480017 0.3517635,0.914912 1.1172426,1.712444 1.5758207,2.569279 0.2244436,0.419359 0.3112476,0.900719 0.5120826,1.331887 0.4120645,0.884645 1.10614723,1.571008 1.60263673,2.394328 0.40201168,0.1362 0.0238615,0.378982 0.0945018,0.551656 0.244221,0.596969 0.63476011,1.076043 1.01010841,1.587282 0.24688641,0.336273 0.40010461,0.767869 0.74065951,1.008812 0.2609756,0.184638 1.8496681,0.402189 2.0993637,0.32178 3.5532516,-1.144304 -0.066567,-0.0773 1.5604658,-0.835161 0.053483,-0.02493 0.1480258,0.07931 0.1749467,0.02681 C 6.1371758,61.522823 5.7611047,61.182065 5.412266,59.747361 5.2931748,59.257562 5.2887427,58.735518 5.1019457,58.267339 4.6952709,57.248074 4.0975839,56.315716 3.5797539,55.34817 2.9555223,54.18182 3.6031376,56.126809 2.7177773,53.962652 2.272473,52.874155 2.1586868,51.555868 1.8276875,50.424137 1.6508045,49.819354 1.2175961,48.706097 1.1266009,47.988939 c -0.01485,-0.117059 0.083143,-0.23565 0.05363,-0.349896 -0.086042,-0.333072 -0.32017248,-0.618491 -0.39076585,-0.955182 -0.0363202,-0.173221 0.0786405,-0.347859 0.080445,-0.52484 0.005978,-0.586384 -0.19269927,-1.271817 -0.25669094,-1.829912 -0.58239627,-0.374181 0.019229,-0.71918 -0.0140565,-1.076498 C 0.48058135,41.979666 0.3705536,43.517187 0.36928759,41.247748 0.36912294,40.952767 0.52298696,40.667345 0.5033622,40.373017 0.48580925,40.109759 0.27267762,39.883166 0.26072868,39.619596 c -0.0160316,-0.353615 0.13915929,-0.696371 0.16089023,-1.049682 0.0428731,-0.697029 -0.0352072,-1.45718 -0.0281138,-2.152993 0.0120849,-1.185443 -0.3787724,-2.33411 -0.5401962,-3.484882 -0.0245867,-0.175274 0.05363003,-0.349894 0.08044504,-0.524841 -0.18431846,-0.744479 -0.35554858,-1.492322 -0.55295453,-2.233438 -0.39420857,-1.479967 -0.73766947,-2.916665 -0.93096227,-4.440063 -0.07753,-0.611035 0.1664903,-2.257579 -0.6742713,-2.610148 -0.8366178,-0.35083 -1.1617967,0.09764 -1.708598,0.633401 -1.3216996,1.295022 -1.4981937,2.018683 -2.1644529,3.607497 -0.1949322,0.464851 -0.5667605,0.845535 -0.7393612,1.319131 -0.1659281,0.455288 -0.1673139,1.091592 -0.2413351,1.574522 -0.03327,0.217063 -0.5177283,0.675887 -0.4839692,0.821105 0.1260271,0.542117 0.4401429,1.022434 0.6602147,1.533651 z"
         id="path24" /><path
         style="fill:#fcfcfc;fill-opacity:0.473684;stroke:#ffffff;stroke-width:0"
         d="m 56.699419,6.1136771 c 2.160295,0.6873667 5.727901,1.628205 7.610576,3.0088309 1.201753,0.881287 2.057931,2.904697 2.65485,4.247762 0.160734,0.361652 0.353982,0.707961 0.53097,1.06194 0.294981,0.766957 0.555585,1.548039 0.884952,2.300871 0.57221,1.307919 0.104982,-0.120013 0.707959,0.884951 0.274566,0.45761 0.136454,0.926494 0.353981,1.415921 0.119805,0.269559 0.427391,0.431758 0.530971,0.70796 0.08286,0.220961 -0.05724,0.479019 0,0.70796 0.06399,0.255964 0.270546,0.457658 0.353976,0.70796 0.0373,0.111939 -0.02863,0.23951 0,0.35398 0.159518,0.638069 0.579569,1.304923 0.707964,1.946891 0.19508,0.975422 0.06046,1.722656 0.176988,2.654851 0.2034,1.627211 0.587298,3.958118 -0.176988,5.486692 -0.0095,0.01893 -0.852658,0.0323 -0.884952,0 -0.09328,-0.09328 -0.103815,-0.244215 -0.176988,-0.353979 -0.158141,-0.237207 -0.338093,-0.692069 -0.530971,-0.884951 -0.150416,-0.150415 -1.662504,-1.362222 -1.769903,-1.41592 -0.05277,-0.02639 -0.135273,0.04171 -0.176989,0 -0.265485,-0.265486 -0.442478,-0.619466 -0.707963,-0.884951 -0.322719,-0.322722 -0.32766,-0.01514 -0.53097,-0.35398 -0.326924,-0.544879 -0.887585,-1.513643 -1.061941,-2.123881 -0.04861,-0.17018 0.05597,-0.363063 0,-0.53097 -0.01867,-0.05597 -0.144263,0.04909 -0.176988,0 -0.134928,-0.202396 -0.005,-0.535957 -0.176988,-0.707961 -0.0417,-0.04171 -0.144264,0.04909 -0.176994,0 -0.176608,-0.26491 -0.29441,-1.23721 -0.353976,-1.41592 -0.08344,-0.250302 -0.270547,-0.457658 -0.353982,-0.70796 -0.111104,-0.333316 -0.04621,-0.734915 -0.176989,-1.061941 -0.06197,-0.154933 -0.279356,-0.204729 -0.353981,-0.35398 -0.108786,-0.217569 -0.100066,-0.477193 -0.176989,-0.70796 -0.19508,-0.585238 -0.22804,-0.178106 -0.53097,-0.88495 -0.339514,-0.792198 -0.196026,-1.138084 -0.353982,-1.769901 -0.07705,-0.308221 -0.266701,-0.579468 -0.353981,-0.884951 -0.03244,-0.113453 0.05277,-0.248443 0,-0.35398 -0.131919,-0.263841 -0.367343,-0.462519 -0.53097,-0.70796 -0.241727,-0.362592 -0.223755,-0.931715 -0.530971,-1.238931 -0.09328,-0.09328 -0.260694,-0.08371 -0.353976,-0.176989 -0.0417,-0.04172 0.03274,-0.127903 0,-0.176991 -0.308377,-0.46256 -0.885228,-0.814481 -1.238934,-1.23893 -0.626415,-0.751702 -1.346864,-1.631791 -1.769899,-2.477861 -0.05277,-0.105537 0.05277,-0.2484437 0,-0.3539804 C 57.424604,9.5109363 57.139955,9.0320715 56.876408,8.7685283 56.677398,8.5695144 56.227826,8.3951366 55.991461,8.2375582 c -0.059,-0.058997 -0.117992,-0.1179938 -0.176994,-0.1769904 0,-0.058997 0.0417,-0.1352731 0,-0.1769899 -0.0417,-0.041715 -0.135273,0.041715 -0.176988,0 -0.09821,-0.098209 -0.310349,-1.516706 -0.176988,-1.5929109 0.362201,-0.206974 0.825951,-0.1179932 1.238928,-0.1769899 z"
         id="path25" /></g><g
       style="fill:none"
       id="g2"
       transform="matrix(1.045046,0,0,1.045046,12.865374,9.6260873)" /><ellipse
       style="fill:#e248ff;fill-opacity:0.54827589;stroke-width:0.264583"
       id="path4"
       cx="-67.667183"
       cy="-4.0679688"
       rx="0.13229166"
       ry="0.29765624" /><g
       id="g3"
       transform="matrix(0.26458333,0,0,0.26458333,15.425933,10.87102)"><path
         d="m 0,0 c 7.8437022,5.589615 12.9035,13.17119 15.476563,22.425781 1.740168,12.209247 0.347349,23.621078 -6.9843755,33.738281 -6.439527,7.706881 -14.7542241,14.182503 -25.0156245,15.261719 -5.608704,0.258112 -11.082432,0.330616 -16.625,-0.625 -4.223501,-0.469278 -7.715758,0.365577 -11.824219,1.347656 -2.550781,0.277344 -2.550781,0.277344 -4.820313,-0.269531 -2.649173,-2.224588 -2.425051,-4.394576 -2.730468,-7.765625 -0.482825,-5.292967 -1.505282,-7.706674 -5,-11.6875 -1.265625,-2.316406 -1.265625,-2.316406 -2.25,-4.5625 -0.335157,-0.743789 -0.670313,-1.487578 -1.015625,-2.253906 -0.734375,-2.183594 -0.734375,-2.183594 -0.734375,-6.183594 -0.990001,-0.33 -1.98,-0.66 -3,-1 -0.512747,-11.979613 4.057914,-24.067217 12,-32.9999998 C -38.387752,-9.5193098 -17.02304,-10.619636 0,0 Z"
         fill="#428cbe"
         transform="translate(64.523437,7.5742187)"
         id="path1" /><path
         d="M 0,0 C 0.56976563,0.29261719 1.1395313,0.58523437 1.7265625,0.88671875 3.9137289,1.9577538 6.1242037,2.8845401 8.375,3.8125 12.606894,5.6670038 15.582571,7.9159788 19,11 c 2.910552,1.455276 4.780918,1.450671 8,1 2.424222,-2.8850991 2.424222,-2.8850991 4,-6 3,1 3,1 4.175781,2.9609375 C 36.3289,13.212722 36.250598,17.241328 36.1875,21.625 c -6.45e-4,0.858516 -0.0013,1.717031 -0.002,2.601562 C 36.160416,27.800781 36.139841,30.580477 35,34 33.376618,34.736554 31.746035,35.460501 30.086426,36.111328 26.170362,37.779298 22.588829,40.075697 18.9375,42.25 11.109297,46.854241 3.1939734,51.083468 -5,55 -8,53 -8,53 -8.6875,50.375 -8.790625,49.59125 -8.89375,48.8075 -9,48 c -1.98,0.495 -1.98,0.495 -4,1 0.576665,-3.467578 1.710052,-5.046636 4.25,-7.4375 0.6316406,-0.607148 1.2632813,-1.214297 1.9140625,-1.839844 C -6.2300781,39.15418 -5.6242187,38.585703 -5,38 -1.0755225,34.262402 1.9445059,30.452291 5,26 4.67,25.34 4.34,24.68 4,24 c -0.99,0.33 -1.98,0.66 -3,1 -2.3518845,-0.597937 -4.689256,-1.258818 -7,-2 1.2547697,3.764309 2.6942262,4.050441 6,6 0,0.66 0,1.32 0,2 -2.7627618,-0.522685 -5.3260876,-1.108696 -8,-2 -0.33,0.99 -0.66,1.98 -1,3 1.32,0.66 2.64,1.32 4,2 0,0.66 0,1.32 0,2 -5.28,-0.66 -10.56,-1.32 -16,-2 0,-2.64 0,-5.28 0,-8 -0.99,-0.66 -1.98,-1.32 -3,-2 3.63842,-2.396524 6.892342,-3.685028 11.125,-4.6875 1.033828,-0.251367 2.067656,-0.502734 3.1328125,-0.761719 C -7,18 -7,18 -4,18 c 0,0.66 0,1.32 0,2 1.9753674,-0.347867 1.9753674,-0.347867 4,-1 C 0.33,18.34 0.66,17.68 1,17 -0.11375,16.5875 -1.2275,16.175 -2.375,15.75 -5.8175448,14.295404 -5.8175448,14.295404 -7.3125,11.875 -7.539375,11.25625 -7.76625,10.6375 -8,10 -8.66,9.67 -9.32,9.34 -10,9 -9.67,8.34 -9.34,7.68 -9,7 -8.34,6.855625 -7.68,6.71125 -7,6.5625 -6.01,6.2840625 -6.01,6.2840625 -5,6 -4.67,5.01 -4.34,4.02 -4,3 -3.01,2.67 -2.02,2.34 -1,2 -0.67,1.34 -0.34,0.68 0,0 Z"
         fill="#64b1e6"
         transform="translate(44,18)"
         id="path2" /><path
         d="m 0,0 c 5.4399536,3.8766447 9.3919397,8.4863703 12.476563,14.425781 v 2 h -2 l -0.8750005,2.375 c -1.125,2.625 -1.125,2.625 -3.125,4.625 -3.8545447,0.52562 -5.6572898,0.195835 -9.0625,-1.75 -1.8235842,-1.396788 -3.6214574,-2.828733 -5.375,-4.3125 -3.0091665,-2.275223 -6.0790285,-3.518308 -9.5624995,-4.9375 l -3,-2 -1,3 h -3 l -1,4 h -4 c -1.836913,3.781879 -2.158377,5.945683 -1,10 l -3,-1 -1,-2 -3,-1 v 5 l -3,-1 v -3 c -5.088697,2.163603 -8.641236,3.69278 -11,9 -4.840222,-0.474531 -7.93203,-1.379356 -12,-4 2.988291,-12.881205 7.823683,-23.2466878 19,-30.9999997 C -29.978341,-9.4468121 -13.94157,-8.6972951 0,0 Z"
         fill="#fab859"
         transform="translate(64.523437,7.5742187)"
         id="path3"
         sodipodi:nodetypes="ccccccccccccccccccccccccc"
         style="fill:#fcd8a3;fill-opacity:1" /><path
         d="M 0,0 C 0.99,0 1.98,0 3,0 3.78375,0.804375 4.5675,1.60875 5.375,2.4375 8.1008985,5.0984962 9.2968335,5.6825857 13,6 12.34,7.32 11.68,8.64 11,10 9.68,10 8.36,10 7,10 7,9.34 7,8.68 7,8 6.4547266,8.1933594 5.9094531,8.3867188 5.3476562,8.5859375 0.52159126,10.252374 -4.2406378,11.578876 -9.25,12.570313 -11.016538,12.843839 -11.016538,12.843839 -12,14 c 0.99,0.66 1.98,1.32 3,2 -0.33,2.64 -0.66,5.28 -1,8 2.97,0 5.94,0 9,0 -0.33,0.66 -0.66,1.32 -1,2 -0.66,0 -1.32,0 -2,0 -0.2307422,0.608437 -0.4614844,1.216875 -0.6992187,1.84375 -1.664573,2.759292 -3.1913026,3.35954 -6.1132813,4.65625 -3.83805,1.794052 -7.012834,3.642801 -10.1875,6.5 -9,-12.84466 -9,-12.84466 -9,-20 -0.99,-0.33 -1.98,-0.66 -3,-1 -0.125,-3.375 -0.125,-3.375 0,-7 0.66,-0.66 1.32,-1.32 2,-2 3.63,1.32 7.26,2.64 11,4 0.33,-1.32 0.66,-2.64 1,-4 3.165802,-3.0778631 5.606188,-4.4978501 10,-5 0.33,0.99 0.66,1.98 1,3 0.66,0.33 1.32,0.66 2,1 0,-1.65 0,-3.3 0,-5 3.269542,0.5637141 4.8257588,1.4996227 7,4 C 0.34,5.02 -0.32,3.04 -1,1 -0.67,0.67 -0.34,0.34 0,0 Z"
         fill="#2d75a6"
         transform="translate(33,28)"
         id="path4-0" /><path
         d="M 0,0 C 0.56976563,0.29261719 1.1395313,0.58523437 1.7265625,0.88671875 3.9137289,1.9577538 6.1242037,2.8845401 8.375,3.8125 11.372117,5.1200659 13.709493,6.4237714 16.125,8.625 19.504562,11.416813 21.781709,12.071976 26,13 23.423843,15.576157 21.544093,16.223552 18,16.25 15.219102,16.146235 12.657134,15.885711 10,15 9.896875,15.9075 9.79375,16.815 9.6875,17.75 8.9958505,21.019616 8.1786508,22.537177 6,25 5.34,24.34 4.68,23.68 4,23 3.67,23.66 3.34,24.32 3,25 0.03,24.34 -2.94,23.68 -6,23 c 1.2547697,3.764309 2.6942262,4.050441 6,6 0,0.66 0,1.32 0,2 -2.7627618,-0.522685 -5.3260876,-1.108696 -8,-2 -0.33,0.99 -0.66,1.98 -1,3 1.32,0.66 2.64,1.32 4,2 0,0.66 0,1.32 0,2 -5.28,-0.66 -10.56,-1.32 -16,-2 0,-2.64 0,-5.28 0,-8 -0.99,-0.66 -1.98,-1.32 -3,-2 3.63842,-2.396524 6.892342,-3.685028 11.125,-4.6875 1.033828,-0.251367 2.067656,-0.502734 3.1328125,-0.761719 C -7,18 -7,18 -4,18 c 0,0.66 0,1.32 0,2 1.9753674,-0.347867 1.9753674,-0.347867 4,-1 C 0.33,18.34 0.66,17.68 1,17 -0.11375,16.5875 -1.2275,16.175 -2.375,15.75 -5.8175448,14.295404 -5.8175448,14.295404 -7.3125,11.875 -7.539375,11.25625 -7.76625,10.6375 -8,10 -8.66,9.67 -9.32,9.34 -10,9 -9.67,8.34 -9.34,7.68 -9,7 -8.34,6.855625 -7.68,6.71125 -7,6.5625 -6.01,6.2840625 -6.01,6.2840625 -5,6 -4.67,5.01 -4.34,4.02 -4,3 -3.01,2.67 -2.02,2.34 -1,2 -0.67,1.34 -0.34,0.68 0,0 Z"
         fill="#4f97c7"
         transform="translate(44,18)"
         id="path5" /><path
         d="M 0,0 C -1.3217694,8.576481 -7.1173768,14.802218 -13.558594,20.273437 -17.415045,23.00072 -21.502886,24.625235 -26,26 l -1.890625,0.589844 c -2.870207,0.558096 -5.624843,0.541912 -8.546875,0.535156 -1.112461,0.0026 -2.224922,0.0052 -3.371094,0.0078 C -42.663775,27.013992 -45.225079,26.653533 -48,26 v -2 l 3.199219,-1.328125 C -31.176885,16.884678 -17.732864,10.147447 -5.578125,1.640625 -3,0 -3,0 0,0 Z"
         fill="#fc9351"
         transform="translate(78,52)"
         id="path6"
         sodipodi:nodetypes="ccccccccccc" /><path
         d="M 0,0 C 0.02712066,1.4373951 0.04645067,2.8749386 0.0625,4.3125 0.07410156,5.1130078 0.08570313,5.9135156 0.09765625,6.7382812 0,9 0,9 -1,12 -2.6233817,12.736554 -4.2539647,13.460501 -5.9135742,14.111328 -9.829638,15.779298 -13.411171,18.075697 -17.0625,20.25 -24.890703,24.854241 -32.806027,29.083468 -41,33 -44,31 -44,31 -44.6875,27.875 -44.790625,26.92625 -44.89375,25.9775 -45,25 c 0.520942,-0.259907 1.041885,-0.519814 1.578613,-0.787598 C -31.498561,18.221124 -20.09002,11.752655 -8.9350586,4.4213867 -8.0554346,3.8453369 -7.1758105,3.2692871 -6.2695312,2.6757813 -5.4919849,2.15927 -4.7144385,1.6427588 -3.9133301,1.1105957 -2,0 -2,0 0,0 Z"
         fill="#d1d4ce"
         transform="translate(80,40)"
         id="path7" /><path
         d="M 0,0 1.7734375,0.5859375 C 10.717913,3.2988265 19.734323,4.1335725 29,5 L 28,7 H 26 L 25.300781,8.84375 C 23.636208,11.603042 22.109479,12.20329 19.1875,13.5 15.34945,15.294052 12.174666,17.142801 9,20 0,7.1553398 0,7.1553398 0,0 Z"
         fill="#fc6f49"
         transform="translate(3,47)"
         id="path8"
         sodipodi:nodetypes="ccccccccc" /><path
         d="m 0,0 c 0.99,2.31 1.98,4.62 3,7 -6.6235542,3.764363 -13.258978,6.789781 -21,7 -2.273437,-0.738281 -2.273437,-0.738281 -4,-2 -0.75,-3.625 -0.75,-3.625 -1,-7 0.773438,-0.1095703 1.546875,-0.2191406 2.34375,-0.3320313 C -13.950247,3.6471292 -6.5359191,0 0,0 Z"
         fill="#575b6e"
         transform="translate(35,66)"
         id="path9" /><path
         d="M 0,0 C 3,1 3,1 4.1875,2.9375 5.3447237,7.2993432 5.1567953,11.513913 5,16 3.5954636,16.894342 2.1757813,17.764932 0.75,18.625 -0.43335937,19.355898 -0.43335937,19.355898 -1.640625,20.101562 -4,21 -4,21 -6.171875,20.335937 -8,19 -8,19 -10,16 c 0,-3.4375 0,-3.4375 1,-7 2.875,-2.125 2.875,-2.125 6,-4 1.8631032,-2.6002405 1.8631032,-2.6002405 3,-5 z"
         fill="#7bc8f1"
         transform="translate(75,24)"
         id="path10" /><path
         d="M 0,0 C 0.99,0.34933594 1.98,0.69867188 3,1.0585937 12.785187,4.4662578 12.785187,4.4662578 23,6 22.67,8.64 22.34,11.28 22,14 14.050574,14.538944 7.4484203,12.759906 0,10 -1,9 -1,9 -1.125,5.5625 -1,2 -1,2 0,0 Z"
         fill="#56596b"
         transform="translate(1,37)"
         id="path11" /><path
         d="M 0,0 C 0,0.66 0,1.32 0,2 -2.7627618,1.4773153 -5.3260876,0.89130413 -8,0 c -0.33,0.99 -0.66,1.98 -1,3 1.32,0.66 2.64,1.32 4,2 0,0.66 0,1.32 0,2 -5.28,-0.66 -10.56,-1.32 -16,-2 0,-2.64 0,-5.28 0,-8 2.060934,-0.223293 4.123884,-0.4280289 6.1875,-0.625 1.148555,-0.1160156 2.297109,-0.2320313 3.480469,-0.3515625 C -6.5586118,-4.0101387 -3.9180494,-2.6120329 0,0 Z"
         fill="#cdd1cd"
         transform="translate(44,47)"
         id="path12" /><path
         d="m 0,0 c 2.8596535,1.3659952 4.6829009,3.4817413 6.75,5.8359375 0,0.66 0,1.32 0,2 -3.5117878,1.0818711 -6.77552566,1.133467 -10.4375,1.125 -1.1124609,0.00258 -2.2249219,0.00516 -3.3710937,0.00781 C -9.9137749,8.8499297 -12.475079,8.4894702 -15.25,7.8359375 c 0,-0.66 0,-1.32 0,-2 2.076266,-1.0351325 4.161315,-2.0526621 6.25,-3.0625 C -7.8398437,2.2049609 -6.6796875,1.6364844 -5.484375,1.0507812 -2.25,-0.1640625 -2.25,-0.1640625 0,0 Z"
         fill="#fb704a"
         transform="translate(45.25,70.164062)"
         id="path13" /><path
         d="m 0,0 c 3.3562027,1.3887735 5.0729873,2.9167797 7,6 0,0.66 0,1.32 0,2 1.65,0.33 3.3,0.66 5,1 0,0.66 0,1.32 0,2 C 9.0945809,11.968473 7.0336255,12.195828 4,12.25 2.700625,12.28867 2.700625,12.28867 1.375,12.32813 -1,12 -1,12 -2.8125,10.609375 -4,9 -4,9 -4,7 -4.66,6.67 -5.32,6.34 -6,6 -5.67,5.34 -5.34,4.68 -5,4 -4.34,3.855625 -3.68,3.71125 -3,3.5625 -2.01,3.2840625 -2.01,3.2840625 -1,3 -0.67,2.01 -0.34,1.02 0,0 Z"
         fill="#d1d7d1"
         transform="translate(40,21)"
         id="path14" /><path
         d="M 0,0 C -0.7115625,0.7734375 -0.7115625,0.7734375 -1.4375,1.5625 -3.4187066,4.6531824 -3.5243131,7.3983706 -4,11 c -2.4054564,1.202728 -3.9499695,1.100715 -6.625,1.0625 -1.225898,-0.01353 -1.225898,-0.01353 -2.476563,-0.02734 C -14.041289,12.017754 -14.041289,12.017754 -15,12 -14.918024,9.2128211 -14.437646,7.4824723 -12.550781,5.4023437 -4.1061765,-2.0530882 -4.1061765,-2.0530882 0,0 Z"
         fill="#dddfd6"
         transform="translate(27,59)"
         id="path15" /><path
         d="M 0,0 C 0.886875,-0.01417969 1.77375,-0.02835938 2.6875,-0.04296875 5,0.1875 5,0.1875 7,2.1875 5.7934375,3.0846875 5.7934375,3.0846875 4.5625,4 1.7767202,5.9969728 1.7767202,5.9969728 1,9.1875 -3.7757634,8.7192879 -7.0447634,7.94418 -11,5.1875 -7.209405,1.2705518 -5.4608346,0.0396863 0,0 Z"
         fill="#d1d2ca"
         transform="translate(12,31.8125)"
         id="path16" /><path
         d="M 0,0 C 0.33,0.66 0.66,1.32 1,2 2.32,1.67 3.64,1.34 5,1 4.4653746,5.5443156 2.9503695,8.5061414 0,12 -3.75,13.375 -3.75,13.375 -7,14 -7.5734141,8.3805416 -6.5593358,5.6359585 -3.2890625,1.2851562 -2,0 -2,0 0,0 Z"
         fill="#2d76a7"
         transform="translate(30,56)"
         id="path17" /><path
         d="m 0,0 c 0,0.66 0,1.32 0,2 -0.66,0 -1.32,0 -2,0 0,0.66 0,1.32 0,2 0.66,0.33 1.32,0.66 2,1 -0.66,0 -1.32,0 -2,0 0,0.66 0,1.32 0,2 -2.6966421,1.348321 -4.8658752,1.1691068 -7.875,1.1875 -1.049297,0.01418 -2.098594,0.028359 -3.179688,0.042969 C -15.935471,8.0050494 -17.562402,7.4896432 -20,6 -16.36158,3.6034763 -13.107658,2.3149717 -8.875,1.3125 -7.3242578,0.93544922 -7.3242578,0.93544922 -5.7421875,0.55078125 -3,0 -3,0 0,0 Z"
         fill="#4c94c6"
         transform="translate(40,36)"
         id="path18" /><path
         d="M 0,0 C 0.84304687,0.42925781 0.84304687,0.42925781 1.703125,0.8671875 4.0287092,2.0141593 6.377702,3.0783979 8.75,4.125 9.5492188,4.4782031 10.348437,4.8314062 11.171875,5.1953125 11.775156,5.4608594 12.378438,5.7264062 13,6 11.125,9.875 11.125,9.875 10,11 6.75,11.5625 6.75,11.5625 3,11 0.85556305,8.5682191 -0.59103759,5.9088256 -2,3 -1.34,2.01 -0.68,1.02 0,0 Z"
         fill="#3179a9"
         transform="translate(44,18)"
         id="path19" /><path
         d="M 0,0 C 0.02712066,1.4373951 0.04645067,2.8749386 0.0625,4.3125 0.07410156,5.1130078 0.08570312,5.9135156 0.09765625,6.7382812 0,9 0,9 -1,12 c -2.875,0.125 -2.875,0.125 -6,0 -0.66,-0.66 -1.32,-1.32 -2,-2 0,-2.875 0,-2.875 1,-6 4.9473684,-4 4.9473684,-4 8,-4 z"
         fill="#dee2d8"
         transform="translate(80,40)"
         id="path20" /><path
         d="M 0,0 C 0.33,0 0.66,0 1,0 1.3125,2.25 1.3125,2.25 1,5 -1.5,7.3125 -1.5,7.3125 -4,9 -4.33,8.34 -4.66,7.68 -5,7 -6.32,7 -7.64,7 -9,7 -9.33,5.68 -9.66,4.36 -10,3 -7,1 -7,1 -5,1.3125 -4.34,1.539375 -3.68,1.76625 -3,2 -2.01,2.33 -1.02,2.66 0,3 0,2.01 0,1.02 0,0 Z"
         fill="#578db0"
         transform="translate(39,51)"
         id="path21" /><path
         d="m 0,0 c 4.3641692,0.23590104 6.909184,1.997493 10,5 0,0.99 0,1.98 0,3 C 1.6498906,6.6695842 1.6498906,6.6695842 -1.0625,3.875 -1.371875,3.25625 -1.68125,2.6375 -2,2 -1.34,1.34 -0.68,0.68 0,0 Z"
         fill="#d3d2c5"
         transform="translate(47,15)"
         id="path22" /><path
         d="M 0,0 C 3.0831351,1.198997 6.0627949,2.4770048 9,4 7.02,6.97 7.02,6.97 5,10 4.566875,9.38125 4.13375,8.7625 3.6875,8.125 2.0025952,5.7802755 2.0025952,5.7802755 -1,4 -0.67,2.68 -0.34,1.36 0,0 Z"
         fill="#337cac"
         transform="translate(36,46)"
         id="path23-9" /><path
         d="M 0,0 C 2.875,-0.125 2.875,-0.125 6,0 6.66,0.66 7.32,1.32 8,2 6.7934375,2.8971875 6.7934375,2.8971875 5.5625,3.8125 2.7767202,5.8094728 2.7767202,5.8094728 2,9 0.68,8.67 -0.64,8.34 -2,8 -1.34,7.67 -0.68,7.34 0,7 0,4.69 0,2.38 0,0 Z"
         fill="#bdc1c1"
         transform="translate(11,32)"
         id="path24-4" /><path
         d="M 0,0 C 0.66,0.33 1.32,0.66 2,1 1.2884375,1.7734375 1.2884375,1.7734375 0.5625,2.5625 -1.4280941,5.6678267 -1.6506082,8.366325 -2,12 -2.268125,11.443125 -2.53625,10.88625 -2.8125,10.3125 -4.1012265,7.8028748 -5.5292648,5.4066576 -7,3 -4.6963126,1.9334781 -2.3598181,0.93578995 0,0 Z"
         fill="#cfcbc5"
         transform="translate(25,58)"
         id="path25-8" /><path
         d="M 0,0 C 6.5230769,0.61538462 6.5230769,0.61538462 8.9375,2.5625 9.288125,3.036875 9.63875,3.51125 10,4 5.8241225,5.3919591 3.8652522,3.8232322 0,2 0,1.34 0,0.68 0,0 Z"
         fill="#c6d0cf"
         transform="translate(38,38)"
         id="path26" /><path
         d="M 0,0 C 1.9375,0.8125 1.9375,0.8125 4,2 4.33,2.99 4.66,3.98 5,5 3.35,5.33 1.7,5.66 0,6 -0.66,5.01 -1.32,4.02 -2,3 -1.34,2.01 -0.68,1.02 0,0 Z"
         fill="#2b6f9a"
         transform="translate(44,18)"
         id="path27" /><path
         d="M 0,0 C 1.32,0.66 2.64,1.32 4,2 4,2.99 4,3.98 4,5 3.01,5.33 2.02,5.66 1,6 0.34,4.35 -0.32,2.7 -1,1 -0.67,0.67 -0.34,0.34 0,0 Z"
         fill="#3176a4"
         transform="translate(39,24)"
         id="path28" /><path
         d="M 0,0 C 0.66,0 1.32,0 2,0 3.4606285,2.6473892 4,3.8944833 4,7 1,6 1,6 -0.25,4.0625 -0.4975,3.381875 -0.745,2.70125 -1,2 -0.67,1.34 -0.34,0.68 0,0 Z"
         fill="#c8ccc4"
         transform="translate(30,28)"
         id="path29" /></g></g></svg>
